%TF.GenerationSoftware,KiCad,Pcbnew,8.0.8*%
%TF.CreationDate,2025-03-20T13:14:25-05:00*%
%TF.ProjectId,ControllerPCB,436f6e74-726f-46c6-9c65-725043422e6b,rev?*%
%TF.SameCoordinates,Original*%
%TF.FileFunction,Paste,Top*%
%TF.FilePolarity,Positive*%
%FSLAX46Y46*%
G04 Gerber Fmt 4.6, Leading zero omitted, Abs format (unit mm)*
G04 Created by KiCad (PCBNEW 8.0.8) date 2025-03-20 13:14:25*
%MOMM*%
%LPD*%
G01*
G04 APERTURE LIST*
G04 Aperture macros list*
%AMRoundRect*
0 Rectangle with rounded corners*
0 $1 Rounding radius*
0 $2 $3 $4 $5 $6 $7 $8 $9 X,Y pos of 4 corners*
0 Add a 4 corners polygon primitive as box body*
4,1,4,$2,$3,$4,$5,$6,$7,$8,$9,$2,$3,0*
0 Add four circle primitives for the rounded corners*
1,1,$1+$1,$2,$3*
1,1,$1+$1,$4,$5*
1,1,$1+$1,$6,$7*
1,1,$1+$1,$8,$9*
0 Add four rect primitives between the rounded corners*
20,1,$1+$1,$2,$3,$4,$5,0*
20,1,$1+$1,$4,$5,$6,$7,0*
20,1,$1+$1,$6,$7,$8,$9,0*
20,1,$1+$1,$8,$9,$2,$3,0*%
G04 Aperture macros list end*
%ADD10R,0.280000X0.200000*%
%ADD11RoundRect,0.112500X-0.112500X0.187500X-0.112500X-0.187500X0.112500X-0.187500X0.112500X0.187500X0*%
%ADD12RoundRect,0.140000X0.140000X0.170000X-0.140000X0.170000X-0.140000X-0.170000X0.140000X-0.170000X0*%
%ADD13RoundRect,0.112500X0.187500X0.112500X-0.187500X0.112500X-0.187500X-0.112500X0.187500X-0.112500X0*%
%ADD14RoundRect,0.140000X-0.140000X-0.170000X0.140000X-0.170000X0.140000X0.170000X-0.140000X0.170000X0*%
%ADD15RoundRect,0.135000X-0.135000X-0.185000X0.135000X-0.185000X0.135000X0.185000X-0.135000X0.185000X0*%
%ADD16RoundRect,0.135000X-0.185000X0.135000X-0.185000X-0.135000X0.185000X-0.135000X0.185000X0.135000X0*%
%ADD17R,0.200000X0.280000*%
%ADD18RoundRect,0.140000X0.170000X-0.140000X0.170000X0.140000X-0.170000X0.140000X-0.170000X-0.140000X0*%
%ADD19RoundRect,0.135000X0.135000X0.185000X-0.135000X0.185000X-0.135000X-0.185000X0.135000X-0.185000X0*%
%ADD20RoundRect,0.218750X0.256250X-0.218750X0.256250X0.218750X-0.256250X0.218750X-0.256250X-0.218750X0*%
%ADD21RoundRect,0.218750X-0.218750X-0.256250X0.218750X-0.256250X0.218750X0.256250X-0.218750X0.256250X0*%
%ADD22RoundRect,0.250000X-0.625000X0.312500X-0.625000X-0.312500X0.625000X-0.312500X0.625000X0.312500X0*%
%ADD23RoundRect,0.140000X-0.170000X0.140000X-0.170000X-0.140000X0.170000X-0.140000X0.170000X0.140000X0*%
%ADD24R,1.300000X0.450000*%
%ADD25RoundRect,0.075000X-0.662500X-0.075000X0.662500X-0.075000X0.662500X0.075000X-0.662500X0.075000X0*%
%ADD26RoundRect,0.075000X-0.075000X-0.662500X0.075000X-0.662500X0.075000X0.662500X-0.075000X0.662500X0*%
%ADD27RoundRect,0.250000X-0.312500X-0.625000X0.312500X-0.625000X0.312500X0.625000X-0.312500X0.625000X0*%
%ADD28RoundRect,0.225000X-0.225000X-0.250000X0.225000X-0.250000X0.225000X0.250000X-0.225000X0.250000X0*%
%ADD29R,1.200000X1.400000*%
%ADD30R,1.200000X0.600000*%
%ADD31RoundRect,0.218750X-0.256250X0.218750X-0.256250X-0.218750X0.256250X-0.218750X0.256250X0.218750X0*%
%ADD32R,1.524000X0.431800*%
G04 APERTURE END LIST*
D10*
%TO.C,D503*%
X93500000Y-91250000D03*
X93500000Y-91650000D03*
%TD*%
D11*
%TO.C,D114*%
X131500000Y-90531202D03*
X131500000Y-92631202D03*
%TD*%
D12*
%TO.C,C106*%
X123980000Y-118750000D03*
X123020000Y-118750000D03*
%TD*%
D10*
%TO.C,D540*%
X94500000Y-86200000D03*
X94500000Y-86600000D03*
%TD*%
%TO.C,D552*%
X194750000Y-94000000D03*
X194750000Y-94400000D03*
%TD*%
D12*
%TO.C,C107*%
X140180000Y-127100000D03*
X139220000Y-127100000D03*
%TD*%
D10*
%TO.C,D534*%
X93500000Y-78300000D03*
X93500000Y-77900000D03*
%TD*%
D12*
%TO.C,C122*%
X121180000Y-124637500D03*
X120220000Y-124637500D03*
%TD*%
D10*
%TO.C,D550*%
X193750000Y-94000000D03*
X193750000Y-94400000D03*
%TD*%
%TO.C,D502*%
X93500000Y-88500000D03*
X93500000Y-88100000D03*
%TD*%
%TO.C,D512*%
X94500000Y-101600000D03*
X94500000Y-102000000D03*
%TD*%
D13*
%TO.C,D410*%
X117500000Y-134734399D03*
X115400000Y-134734399D03*
%TD*%
D10*
%TO.C,D530*%
X93500000Y-73400000D03*
X93500000Y-73000000D03*
%TD*%
%TO.C,D570*%
X193750000Y-106500000D03*
X193750000Y-106100000D03*
%TD*%
D14*
%TO.C,C114*%
X144490000Y-127100000D03*
X145450000Y-127100000D03*
%TD*%
D10*
%TO.C,D529*%
X94500000Y-73400000D03*
X94500000Y-73000000D03*
%TD*%
%TO.C,D562*%
X194750000Y-101500000D03*
X194750000Y-101900000D03*
%TD*%
%TO.C,D574*%
X194750000Y-109000000D03*
X194750000Y-109400000D03*
%TD*%
D12*
%TO.C,C102*%
X123730000Y-108250000D03*
X122770000Y-108250000D03*
%TD*%
D15*
%TO.C,R202*%
X149490000Y-96750000D03*
X150510000Y-96750000D03*
%TD*%
D13*
%TO.C,D411*%
X129000000Y-130734399D03*
X126900000Y-130734399D03*
%TD*%
D10*
%TO.C,D511*%
X93500000Y-101600000D03*
X93500000Y-102000000D03*
%TD*%
D11*
%TO.C,D115*%
X128866800Y-90531202D03*
X128866800Y-92631202D03*
%TD*%
D10*
%TO.C,D542*%
X194750000Y-88250000D03*
X194750000Y-87850000D03*
%TD*%
D16*
%TO.C,R108*%
X196800000Y-129755000D03*
X196800000Y-130775000D03*
%TD*%
D10*
%TO.C,D549*%
X194750000Y-68250000D03*
X194750000Y-67850000D03*
%TD*%
D16*
%TO.C,R412*%
X119700000Y-132724399D03*
X119700000Y-133744399D03*
%TD*%
D10*
%TO.C,D554*%
X193750000Y-97000000D03*
X193750000Y-97400000D03*
%TD*%
D17*
%TO.C,D110*%
X131116800Y-89281202D03*
X131516800Y-89281202D03*
%TD*%
D18*
%TO.C,C119*%
X123700000Y-114080000D03*
X123700000Y-113120000D03*
%TD*%
D10*
%TO.C,D109*%
X198100000Y-130380000D03*
X198100000Y-129980000D03*
%TD*%
D11*
%TO.C,D113*%
X134000000Y-90531202D03*
X134000000Y-92631202D03*
%TD*%
D19*
%TO.C,R401*%
X122210000Y-136234399D03*
X121190000Y-136234399D03*
%TD*%
D10*
%TO.C,D539*%
X93500000Y-86200000D03*
X93500000Y-86600000D03*
%TD*%
%TO.C,D507*%
X93500000Y-96350000D03*
X93500000Y-96750000D03*
%TD*%
D13*
%TO.C,D401*%
X123250000Y-132734399D03*
X121150000Y-132734399D03*
%TD*%
D10*
%TO.C,D504*%
X94500000Y-91250000D03*
X94500000Y-91650000D03*
%TD*%
D20*
%TO.C,D202*%
X143000000Y-94287500D03*
X143000000Y-92712500D03*
%TD*%
D10*
%TO.C,D501*%
X94500000Y-88500000D03*
X94500000Y-88100000D03*
%TD*%
D19*
%TO.C,R101*%
X161010000Y-126750000D03*
X159990000Y-126750000D03*
%TD*%
D10*
%TO.C,D509*%
X94500000Y-98750000D03*
X94500000Y-98350000D03*
%TD*%
%TO.C,D568*%
X194750000Y-104500000D03*
X194750000Y-104900000D03*
%TD*%
%TO.C,D558*%
X193750000Y-100250000D03*
X193750000Y-99850000D03*
%TD*%
D13*
%TO.C,D408*%
X129000000Y-134734399D03*
X126900000Y-134734399D03*
%TD*%
D10*
%TO.C,D566*%
X193750000Y-104500000D03*
X193750000Y-104900000D03*
%TD*%
D19*
%TO.C,R407*%
X127960000Y-136234399D03*
X126940000Y-136234399D03*
%TD*%
D10*
%TO.C,D505*%
X94500000Y-93650000D03*
X94500000Y-93250000D03*
%TD*%
D14*
%TO.C,C116*%
X133770000Y-102000000D03*
X134730000Y-102000000D03*
%TD*%
D10*
%TO.C,D544*%
X193750000Y-88250000D03*
X193750000Y-87850000D03*
%TD*%
D13*
%TO.C,D412*%
X117500000Y-130734399D03*
X115400000Y-130734399D03*
%TD*%
D10*
%TO.C,D564*%
X193750000Y-101900000D03*
X193750000Y-101500000D03*
%TD*%
%TO.C,D545*%
X193750000Y-65600000D03*
X193750000Y-66000000D03*
%TD*%
D21*
%TO.C,D101*%
X159792500Y-124750000D03*
X161367500Y-124750000D03*
%TD*%
D22*
%TO.C,R102*%
X122500000Y-95287500D03*
X122500000Y-98212500D03*
%TD*%
D10*
%TO.C,D506*%
X93500000Y-93650000D03*
X93500000Y-93250000D03*
%TD*%
D19*
%TO.C,R402*%
X110710000Y-136234399D03*
X109690000Y-136234399D03*
%TD*%
D15*
%TO.C,R201*%
X148490000Y-95750000D03*
X149510000Y-95750000D03*
%TD*%
D12*
%TO.C,C118*%
X126180000Y-103350000D03*
X125220000Y-103350000D03*
%TD*%
D13*
%TO.C,D407*%
X129000000Y-132734399D03*
X126900000Y-132734399D03*
%TD*%
D14*
%TO.C,C201*%
X151500000Y-90250000D03*
X152460000Y-90250000D03*
%TD*%
D12*
%TO.C,C104*%
X128230000Y-127100000D03*
X127270000Y-127100000D03*
%TD*%
D15*
%TO.C,R107*%
X158260000Y-93268300D03*
X159280000Y-93268300D03*
%TD*%
D17*
%TO.C,D105*%
X125950000Y-89281202D03*
X126350000Y-89281202D03*
%TD*%
D13*
%TO.C,D404*%
X111750000Y-134734399D03*
X109650000Y-134734399D03*
%TD*%
D12*
%TO.C,C105*%
X135200000Y-127100000D03*
X134240000Y-127100000D03*
%TD*%
D17*
%TO.C,D106*%
X128450000Y-89281202D03*
X128850000Y-89281202D03*
%TD*%
D12*
%TO.C,C120*%
X123700000Y-121850000D03*
X122740000Y-121850000D03*
%TD*%
D10*
%TO.C,D543*%
X193750000Y-63000000D03*
X193750000Y-62600000D03*
%TD*%
%TO.C,D548*%
X194750000Y-91100000D03*
X194750000Y-91500000D03*
%TD*%
D13*
%TO.C,D403*%
X111750000Y-132734399D03*
X109650000Y-132734399D03*
%TD*%
D10*
%TO.C,D555*%
X194750000Y-70750000D03*
X194750000Y-71150000D03*
%TD*%
D13*
%TO.C,D406*%
X111750000Y-130734399D03*
X109650000Y-130734399D03*
%TD*%
D14*
%TO.C,C202*%
X148520000Y-94750000D03*
X149480000Y-94750000D03*
%TD*%
D23*
%TO.C,C203*%
X145171700Y-92520000D03*
X145171700Y-93480000D03*
%TD*%
D10*
%TO.C,D551*%
X193750000Y-68250000D03*
X193750000Y-67850000D03*
%TD*%
%TO.C,D567*%
X193750000Y-78150000D03*
X193750000Y-77750000D03*
%TD*%
D15*
%TO.C,R203*%
X144240000Y-94500000D03*
X145260000Y-94500000D03*
%TD*%
D10*
%TO.C,D523*%
X93500000Y-65850000D03*
X93500000Y-66250000D03*
%TD*%
D19*
%TO.C,R410*%
X116470000Y-136234399D03*
X115450000Y-136234399D03*
%TD*%
D15*
%TO.C,R302*%
X155265199Y-119364800D03*
X156285199Y-119364800D03*
%TD*%
D10*
%TO.C,D569*%
X193750000Y-80850000D03*
X193750000Y-81250000D03*
%TD*%
%TO.C,D524*%
X94500000Y-65850000D03*
X94500000Y-66250000D03*
%TD*%
D23*
%TO.C,C112*%
X122000000Y-117790000D03*
X122000000Y-118750000D03*
%TD*%
D10*
%TO.C,D571*%
X194750000Y-80850000D03*
X194750000Y-81250000D03*
%TD*%
%TO.C,D108*%
X198050000Y-127455000D03*
X198050000Y-127055000D03*
%TD*%
%TO.C,D527*%
X93500000Y-71100000D03*
X93500000Y-71500000D03*
%TD*%
D16*
%TO.C,R403*%
X124500000Y-131724399D03*
X124500000Y-132744399D03*
%TD*%
D24*
%TO.C,J107*%
X200150000Y-125205000D03*
X200150000Y-125855000D03*
X200150000Y-126505000D03*
X200150000Y-127155000D03*
X200150000Y-127805000D03*
%TD*%
D10*
%TO.C,D541*%
X194750000Y-63000000D03*
X194750000Y-62600000D03*
%TD*%
D17*
%TO.C,D201*%
X151800000Y-89250000D03*
X151400000Y-89250000D03*
%TD*%
D23*
%TO.C,C103*%
X123700000Y-119850000D03*
X123700000Y-120810000D03*
%TD*%
D10*
%TO.C,D103*%
X197050000Y-126205000D03*
X197050000Y-126605000D03*
%TD*%
%TO.C,D572*%
X194750000Y-106500000D03*
X194750000Y-106100000D03*
%TD*%
D23*
%TO.C,C110*%
X148700000Y-117620000D03*
X148700000Y-118580000D03*
%TD*%
D25*
%TO.C,U101*%
X125537500Y-105850000D03*
X125537500Y-106350000D03*
X125537500Y-106850000D03*
X125537500Y-107350000D03*
X125537500Y-107850000D03*
X125537500Y-108350000D03*
X125537500Y-108850000D03*
X125537500Y-109350000D03*
X125537500Y-109850000D03*
X125537500Y-110350000D03*
X125537500Y-110850000D03*
X125537500Y-111350000D03*
X125537500Y-111850000D03*
X125537500Y-112350000D03*
X125537500Y-112850000D03*
X125537500Y-113350000D03*
X125537500Y-113850000D03*
X125537500Y-114350000D03*
X125537500Y-114850000D03*
X125537500Y-115350000D03*
X125537500Y-115850000D03*
X125537500Y-116350000D03*
X125537500Y-116850000D03*
X125537500Y-117350000D03*
X125537500Y-117850000D03*
X125537500Y-118350000D03*
X125537500Y-118850000D03*
X125537500Y-119350000D03*
X125537500Y-119850000D03*
X125537500Y-120350000D03*
X125537500Y-120850000D03*
X125537500Y-121350000D03*
X125537500Y-121850000D03*
X125537500Y-122350000D03*
X125537500Y-122850000D03*
X125537500Y-123350000D03*
D26*
X127450000Y-125262500D03*
X127950000Y-125262500D03*
X128450000Y-125262500D03*
X128950000Y-125262500D03*
X129450000Y-125262500D03*
X129950000Y-125262500D03*
X130450000Y-125262500D03*
X130950000Y-125262500D03*
X131450000Y-125262500D03*
X131950000Y-125262500D03*
X132450000Y-125262500D03*
X132950000Y-125262500D03*
X133450000Y-125262500D03*
X133950000Y-125262500D03*
X134450000Y-125262500D03*
X134950000Y-125262500D03*
X135450000Y-125262500D03*
X135950000Y-125262500D03*
X136450000Y-125262500D03*
X136950000Y-125262500D03*
X137450000Y-125262500D03*
X137950000Y-125262500D03*
X138450000Y-125262500D03*
X138950000Y-125262500D03*
X139450000Y-125262500D03*
X139950000Y-125262500D03*
X140450000Y-125262500D03*
X140950000Y-125262500D03*
X141450000Y-125262500D03*
X141950000Y-125262500D03*
X142450000Y-125262500D03*
X142950000Y-125262500D03*
X143450000Y-125262500D03*
X143950000Y-125262500D03*
X144450000Y-125262500D03*
X144950000Y-125262500D03*
D25*
X146862500Y-123350000D03*
X146862500Y-122850000D03*
X146862500Y-122350000D03*
X146862500Y-121850000D03*
X146862500Y-121350000D03*
X146862500Y-120850000D03*
X146862500Y-120350000D03*
X146862500Y-119850000D03*
X146862500Y-119350000D03*
X146862500Y-118850000D03*
X146862500Y-118350000D03*
X146862500Y-117850000D03*
X146862500Y-117350000D03*
X146862500Y-116850000D03*
X146862500Y-116350000D03*
X146862500Y-115850000D03*
X146862500Y-115350000D03*
X146862500Y-114850000D03*
X146862500Y-114350000D03*
X146862500Y-113850000D03*
X146862500Y-113350000D03*
X146862500Y-112850000D03*
X146862500Y-112350000D03*
X146862500Y-111850000D03*
X146862500Y-111350000D03*
X146862500Y-110850000D03*
X146862500Y-110350000D03*
X146862500Y-109850000D03*
X146862500Y-109350000D03*
X146862500Y-108850000D03*
X146862500Y-108350000D03*
X146862500Y-107850000D03*
X146862500Y-107350000D03*
X146862500Y-106850000D03*
X146862500Y-106350000D03*
X146862500Y-105850000D03*
D26*
X144950000Y-103937500D03*
X144450000Y-103937500D03*
X143950000Y-103937500D03*
X143450000Y-103937500D03*
X142950000Y-103937500D03*
X142450000Y-103937500D03*
X141950000Y-103937500D03*
X141450000Y-103937500D03*
X140950000Y-103937500D03*
X140450000Y-103937500D03*
X139950000Y-103937500D03*
X139450000Y-103937500D03*
X138950000Y-103937500D03*
X138450000Y-103937500D03*
X137950000Y-103937500D03*
X137450000Y-103937500D03*
X136950000Y-103937500D03*
X136450000Y-103937500D03*
X135950000Y-103937500D03*
X135450000Y-103937500D03*
X134950000Y-103937500D03*
X134450000Y-103937500D03*
X133950000Y-103937500D03*
X133450000Y-103937500D03*
X132950000Y-103937500D03*
X132450000Y-103937500D03*
X131950000Y-103937500D03*
X131450000Y-103937500D03*
X130950000Y-103937500D03*
X130450000Y-103937500D03*
X129950000Y-103937500D03*
X129450000Y-103937500D03*
X128950000Y-103937500D03*
X128450000Y-103937500D03*
X127950000Y-103937500D03*
X127450000Y-103937500D03*
%TD*%
D16*
%TO.C,R109*%
X195770000Y-130730000D03*
X195770000Y-131750000D03*
%TD*%
D12*
%TO.C,C121*%
X121180000Y-122887500D03*
X120220000Y-122887500D03*
%TD*%
D15*
%TO.C,R301*%
X155265199Y-117364800D03*
X156285199Y-117364800D03*
%TD*%
D10*
%TO.C,D528*%
X94500000Y-71100000D03*
X94500000Y-71500000D03*
%TD*%
D13*
%TO.C,D405*%
X123250000Y-130734399D03*
X121150000Y-130734399D03*
%TD*%
D10*
%TO.C,D510*%
X93500000Y-98750000D03*
X93500000Y-98350000D03*
%TD*%
D27*
%TO.C,R103*%
X124987500Y-101250000D03*
X127912500Y-101250000D03*
%TD*%
D10*
%TO.C,D561*%
X193750000Y-75750000D03*
X193750000Y-76150000D03*
%TD*%
D11*
%TO.C,D116*%
X126366800Y-90531202D03*
X126366800Y-92631202D03*
%TD*%
D14*
%TO.C,C115*%
X138770000Y-102100000D03*
X139730000Y-102100000D03*
%TD*%
D10*
%TO.C,D559*%
X193750000Y-73250000D03*
X193750000Y-72850000D03*
%TD*%
%TO.C,D573*%
X194750000Y-83150000D03*
X194750000Y-82750000D03*
%TD*%
%TO.C,D521*%
X94500000Y-63050000D03*
X94500000Y-62650000D03*
%TD*%
%TO.C,D560*%
X194750000Y-100250000D03*
X194750000Y-99850000D03*
%TD*%
%TO.C,D563*%
X194750000Y-75750000D03*
X194750000Y-76150000D03*
%TD*%
D13*
%TO.C,D402*%
X123250000Y-134734399D03*
X121150000Y-134734399D03*
%TD*%
D16*
%TO.C,R409*%
X131200000Y-132734399D03*
X131200000Y-133754399D03*
%TD*%
D10*
%TO.C,D575*%
X193750000Y-83150000D03*
X193750000Y-82750000D03*
%TD*%
%TO.C,D547*%
X194750000Y-65600000D03*
X194750000Y-66000000D03*
%TD*%
D16*
%TO.C,R405*%
X112900000Y-131724399D03*
X112900000Y-132744399D03*
%TD*%
D10*
%TO.C,D102*%
X160900000Y-92950000D03*
X160900000Y-93350000D03*
%TD*%
%TO.C,D580*%
X193750000Y-112000000D03*
X193750000Y-112400000D03*
%TD*%
D13*
%TO.C,D409*%
X117500000Y-132734399D03*
X115400000Y-132734399D03*
%TD*%
D28*
%TO.C,C101*%
X138475000Y-100750000D03*
X140025000Y-100750000D03*
%TD*%
D23*
%TO.C,C111*%
X148700000Y-112120000D03*
X148700000Y-113080000D03*
%TD*%
D14*
%TO.C,C109*%
X146220000Y-125600000D03*
X147180000Y-125600000D03*
%TD*%
D10*
%TO.C,D536*%
X94500000Y-81200000D03*
X94500000Y-81600000D03*
%TD*%
%TO.C,D526*%
X93500000Y-68400000D03*
X93500000Y-68000000D03*
%TD*%
%TO.C,D522*%
X93500000Y-63050000D03*
X93500000Y-62650000D03*
%TD*%
D23*
%TO.C,C113*%
X148700000Y-105020000D03*
X148700000Y-105980000D03*
%TD*%
D10*
%TO.C,D578*%
X194750000Y-112000000D03*
X194750000Y-112400000D03*
%TD*%
D23*
%TO.C,C108*%
X122000000Y-114540000D03*
X122000000Y-115500000D03*
%TD*%
D14*
%TO.C,C117*%
X148740000Y-107000000D03*
X149700000Y-107000000D03*
%TD*%
D10*
%TO.C,D537*%
X94500000Y-83150000D03*
X94500000Y-83550000D03*
%TD*%
D29*
%TO.C,Y101*%
X118550000Y-115020000D03*
X118550000Y-117220000D03*
X120250000Y-117220000D03*
X120250000Y-115020000D03*
%TD*%
D10*
%TO.C,D546*%
X193750000Y-91100000D03*
X193750000Y-91500000D03*
%TD*%
%TO.C,D538*%
X93500000Y-83150000D03*
X93500000Y-83550000D03*
%TD*%
%TO.C,D565*%
X194750000Y-78150000D03*
X194750000Y-77750000D03*
%TD*%
%TO.C,D579*%
X194750000Y-86000000D03*
X194750000Y-86400000D03*
%TD*%
%TO.C,D533*%
X94500000Y-78300000D03*
X94500000Y-77900000D03*
%TD*%
D16*
%TO.C,R404*%
X125450000Y-132734399D03*
X125450000Y-133754399D03*
%TD*%
D10*
%TO.C,D557*%
X194750000Y-73250000D03*
X194750000Y-72850000D03*
%TD*%
D17*
%TO.C,D117*%
X166300000Y-99980000D03*
X165900000Y-99980000D03*
%TD*%
%TO.C,D112*%
X133616800Y-89281202D03*
X134016800Y-89281202D03*
%TD*%
D30*
%TO.C,U301*%
X151275199Y-117364800D03*
X151275199Y-118314800D03*
X151275199Y-119264800D03*
X153775199Y-119264800D03*
X153775199Y-117364800D03*
%TD*%
D10*
%TO.C,D508*%
X94500000Y-96350000D03*
X94500000Y-96750000D03*
%TD*%
D16*
%TO.C,R408*%
X130200000Y-131714399D03*
X130200000Y-132734399D03*
%TD*%
D31*
%TO.C,FB101*%
X122450000Y-123100000D03*
X122450000Y-124675000D03*
%TD*%
D10*
%TO.C,D556*%
X194750000Y-97000000D03*
X194750000Y-97400000D03*
%TD*%
%TO.C,D531*%
X93500000Y-76000000D03*
X93500000Y-76400000D03*
%TD*%
D16*
%TO.C,R406*%
X113950000Y-132724399D03*
X113950000Y-133744399D03*
%TD*%
D10*
%TO.C,D553*%
X193750000Y-70750000D03*
X193750000Y-71150000D03*
%TD*%
D16*
%TO.C,R411*%
X118700000Y-131724399D03*
X118700000Y-132744399D03*
%TD*%
D10*
%TO.C,D532*%
X94500000Y-76000000D03*
X94500000Y-76400000D03*
%TD*%
D32*
%TO.C,U201*%
X146828300Y-91275001D03*
X146828300Y-91924999D03*
X146828300Y-92575001D03*
X146828300Y-93224999D03*
X151171700Y-93224999D03*
X151171700Y-92575001D03*
X151171700Y-91924999D03*
X151171700Y-91275001D03*
%TD*%
D10*
%TO.C,D535*%
X93500000Y-81200000D03*
X93500000Y-81600000D03*
%TD*%
%TO.C,D577*%
X193750000Y-86000000D03*
X193750000Y-86400000D03*
%TD*%
%TO.C,D525*%
X94500000Y-68400000D03*
X94500000Y-68000000D03*
%TD*%
%TO.C,D576*%
X193750000Y-109000000D03*
X193750000Y-109400000D03*
%TD*%
M02*
