%TF.GenerationSoftware,KiCad,Pcbnew,8.0.8*%
%TF.CreationDate,2025-03-20T13:14:25-05:00*%
%TF.ProjectId,ControllerPCB,436f6e74-726f-46c6-9c65-725043422e6b,rev?*%
%TF.SameCoordinates,Original*%
%TF.FileFunction,Legend,Bot*%
%TF.FilePolarity,Positive*%
%FSLAX46Y46*%
G04 Gerber Fmt 4.6, Leading zero omitted, Abs format (unit mm)*
G04 Created by KiCad (PCBNEW 8.0.8) date 2025-03-20 13:14:25*
%MOMM*%
%LPD*%
G01*
G04 APERTURE LIST*
%ADD10C,0.100000*%
%ADD11C,0.120000*%
%ADD12C,0.508000*%
G04 APERTURE END LIST*
D10*
%TO.C,D516*%
X94450000Y-106400000D02*
X94450000Y-106400000D01*
X94550000Y-106400000D02*
X94550000Y-106400000D01*
X94550000Y-106400000D02*
G75*
G02*
X94450000Y-106400000I-50000J0D01*
G01*
X94450000Y-106400000D02*
G75*
G02*
X94550000Y-106400000I50000J0D01*
G01*
%TO.C,D519*%
X94450000Y-111500000D02*
X94450000Y-111500000D01*
X94550000Y-111500000D02*
X94550000Y-111500000D01*
X94550000Y-111500000D02*
G75*
G02*
X94450000Y-111500000I-50000J0D01*
G01*
X94450000Y-111500000D02*
G75*
G02*
X94550000Y-111500000I50000J0D01*
G01*
%TO.C,D514*%
X93550000Y-104450000D02*
X93550000Y-104450000D01*
X93450000Y-104450000D02*
X93450000Y-104450000D01*
X93450000Y-104450000D02*
G75*
G02*
X93550000Y-104450000I50000J0D01*
G01*
X93550000Y-104450000D02*
G75*
G02*
X93450000Y-104450000I-50000J0D01*
G01*
D11*
%TO.C,R105*%
X158878642Y-97648300D02*
X158571360Y-97648300D01*
X158878642Y-96888300D02*
X158571360Y-96888300D01*
%TO.C,R106*%
X158878642Y-95610000D02*
X158571360Y-95610000D01*
X158878642Y-94850000D02*
X158571360Y-94850000D01*
D10*
%TO.C,D515*%
X93450000Y-106400000D02*
X93450000Y-106400000D01*
X93550000Y-106400000D02*
X93550000Y-106400000D01*
X93550000Y-106400000D02*
G75*
G02*
X93450000Y-106400000I-50000J0D01*
G01*
X93450000Y-106400000D02*
G75*
G02*
X93550000Y-106400000I50000J0D01*
G01*
D12*
%TO.C,J102*%
X136203000Y-84250000D02*
G75*
G02*
X135441000Y-84250000I-381000J0D01*
G01*
X135441000Y-84250000D02*
G75*
G02*
X136203000Y-84250000I381000J0D01*
G01*
D11*
%TO.C,R104*%
X158878642Y-99648300D02*
X158571360Y-99648300D01*
X158878642Y-98888300D02*
X158571360Y-98888300D01*
D10*
%TO.C,D107*%
X160925001Y-97750000D02*
X160925001Y-97750000D01*
X160825001Y-97750000D02*
X160825001Y-97750000D01*
X160825001Y-97750000D02*
G75*
G02*
X160925001Y-97750000I50000J0D01*
G01*
X160925001Y-97750000D02*
G75*
G02*
X160825001Y-97750000I-50000J0D01*
G01*
D12*
%TO.C,J104*%
X152163000Y-137484399D02*
G75*
G02*
X151401000Y-137484399I-381000J0D01*
G01*
X151401000Y-137484399D02*
G75*
G02*
X152163000Y-137484399I381000J0D01*
G01*
D10*
%TO.C,D517*%
X94550000Y-109600000D02*
X94550000Y-109600000D01*
X94450000Y-109600000D02*
X94450000Y-109600000D01*
X94450000Y-109600000D02*
G75*
G02*
X94550000Y-109600000I50000J0D01*
G01*
X94550000Y-109600000D02*
G75*
G02*
X94450000Y-109600000I-50000J0D01*
G01*
%TO.C,D518*%
X93550000Y-109600000D02*
G75*
G02*
X93450000Y-109600000I-50000J0D01*
G01*
X93450000Y-109600000D02*
G75*
G02*
X93550000Y-109600000I50000J0D01*
G01*
X93450000Y-109600000D02*
X93450000Y-109600000D01*
X93550000Y-109600000D02*
X93550000Y-109600000D01*
D12*
%TO.C,J103*%
X142669600Y-137484399D02*
G75*
G02*
X141907600Y-137484399I-381000J0D01*
G01*
X141907600Y-137484399D02*
G75*
G02*
X142669600Y-137484399I381000J0D01*
G01*
D10*
%TO.C,D104*%
X160925001Y-95630000D02*
X160925001Y-95630000D01*
X160825001Y-95630000D02*
X160825001Y-95630000D01*
X160825001Y-95630000D02*
G75*
G02*
X160925001Y-95630000I50000J0D01*
G01*
X160925001Y-95630000D02*
G75*
G02*
X160825001Y-95630000I-50000J0D01*
G01*
D12*
%TO.C,J105*%
X142669600Y-144234399D02*
G75*
G02*
X141907600Y-144234399I-381000J0D01*
G01*
X141907600Y-144234399D02*
G75*
G02*
X142669600Y-144234399I381000J0D01*
G01*
%TO.C,J301*%
X160381000Y-114968000D02*
G75*
G02*
X159619000Y-114968000I-381000J0D01*
G01*
X159619000Y-114968000D02*
G75*
G02*
X160381000Y-114968000I381000J0D01*
G01*
%TO.C,J109*%
X152163000Y-144250000D02*
G75*
G02*
X151401000Y-144250000I-381000J0D01*
G01*
X151401000Y-144250000D02*
G75*
G02*
X152163000Y-144250000I381000J0D01*
G01*
D10*
%TO.C,D520*%
X93450000Y-111500000D02*
X93450000Y-111500000D01*
X93550000Y-111500000D02*
X93550000Y-111500000D01*
X93550000Y-111500000D02*
G75*
G02*
X93450000Y-111500000I-50000J0D01*
G01*
X93450000Y-111500000D02*
G75*
G02*
X93550000Y-111500000I50000J0D01*
G01*
%TO.C,D513*%
X94550000Y-104450000D02*
X94550000Y-104450000D01*
X94450000Y-104450000D02*
X94450000Y-104450000D01*
X94450000Y-104450000D02*
G75*
G02*
X94550000Y-104450000I50000J0D01*
G01*
X94550000Y-104450000D02*
G75*
G02*
X94450000Y-104450000I-50000J0D01*
G01*
D12*
%TO.C,J106*%
X161669600Y-137468798D02*
G75*
G02*
X160907600Y-137468798I-381000J0D01*
G01*
X160907600Y-137468798D02*
G75*
G02*
X161669600Y-137468798I381000J0D01*
G01*
D10*
%TO.C,D111*%
X160925001Y-100000000D02*
X160925001Y-100000000D01*
X160825001Y-100000000D02*
X160825001Y-100000000D01*
X160825001Y-100000000D02*
G75*
G02*
X160925001Y-100000000I50000J0D01*
G01*
X160925001Y-100000000D02*
G75*
G02*
X160825001Y-100000000I-50000J0D01*
G01*
%TD*%
M02*
