%TF.GenerationSoftware,KiCad,Pcbnew,8.0.8*%
%TF.CreationDate,2025-03-20T13:14:25-05:00*%
%TF.ProjectId,ControllerPCB,436f6e74-726f-46c6-9c65-725043422e6b,rev?*%
%TF.SameCoordinates,Original*%
%TF.FileFunction,Legend,Top*%
%TF.FilePolarity,Positive*%
%FSLAX46Y46*%
G04 Gerber Fmt 4.6, Leading zero omitted, Abs format (unit mm)*
G04 Created by KiCad (PCBNEW 8.0.8) date 2025-03-20 13:14:25*
%MOMM*%
%LPD*%
G01*
G04 APERTURE LIST*
%ADD10C,0.200000*%
%ADD11C,0.100000*%
%ADD12C,0.120000*%
%ADD13C,0.300000*%
%ADD14C,0.127000*%
%ADD15C,0.152400*%
%ADD16C,0.508000*%
%ADD17C,0.150000*%
G04 APERTURE END LIST*
D10*
%TO.C,J108*%
X162075000Y-93460000D02*
X162900000Y-93460000D01*
X162075000Y-98540000D02*
X162075000Y-93460000D01*
X162900000Y-92825000D02*
X163100000Y-92825000D01*
X162900000Y-93460000D02*
X162900000Y-92825000D01*
X162900000Y-98540000D02*
X162075000Y-98540000D01*
X162900000Y-99175000D02*
X162900000Y-98540000D01*
X162900000Y-99175000D02*
X163100000Y-99175000D01*
X166330000Y-92825000D02*
X166130000Y-92825000D01*
X166330000Y-93460000D02*
X166330000Y-92825000D01*
X166330000Y-98540000D02*
X167155000Y-98540000D01*
X166330000Y-99175000D02*
X166130000Y-99175000D01*
X166330000Y-99175000D02*
X166330000Y-98540000D01*
X167155000Y-93460000D02*
X166330000Y-93460000D01*
X167155000Y-98540000D02*
X167155000Y-93460000D01*
X165315000Y-99765000D02*
G75*
G02*
X165115000Y-99765000I-100000J0D01*
G01*
X165115000Y-99765000D02*
G75*
G02*
X165315000Y-99765000I100000J0D01*
G01*
D11*
%TO.C,D503*%
X93550000Y-90900000D02*
X93550000Y-90900000D01*
X93450000Y-90900000D02*
X93450000Y-90900000D01*
X93550000Y-90900000D02*
G75*
G02*
X93450000Y-90900000I-50000J0D01*
G01*
X93450000Y-90900000D02*
G75*
G02*
X93550000Y-90900000I50000J0D01*
G01*
D12*
%TO.C,D114*%
X130650000Y-89971202D02*
X130650000Y-92631202D01*
X132350000Y-89971202D02*
X130650000Y-89971202D01*
X132350000Y-89971202D02*
X132350000Y-92631202D01*
%TO.C,C106*%
X123607836Y-118390000D02*
X123392164Y-118390000D01*
X123607836Y-119110000D02*
X123392164Y-119110000D01*
D11*
%TO.C,D540*%
X94550000Y-85850000D02*
X94550000Y-85850000D01*
X94450000Y-85850000D02*
X94450000Y-85850000D01*
X94550000Y-85850000D02*
G75*
G02*
X94450000Y-85850000I-50000J0D01*
G01*
X94450000Y-85850000D02*
G75*
G02*
X94550000Y-85850000I50000J0D01*
G01*
%TO.C,D552*%
X194700000Y-93650000D02*
X194700000Y-93650000D01*
X194800000Y-93650000D02*
X194800000Y-93650000D01*
X194700000Y-93650000D02*
G75*
G02*
X194800000Y-93650000I50000J0D01*
G01*
X194800000Y-93650000D02*
G75*
G02*
X194700000Y-93650000I-50000J0D01*
G01*
D12*
%TO.C,C107*%
X139807836Y-126740000D02*
X139592164Y-126740000D01*
X139807836Y-127460000D02*
X139592164Y-127460000D01*
D11*
%TO.C,D534*%
X93450000Y-78650000D02*
X93450000Y-78650000D01*
X93550000Y-78650000D02*
X93550000Y-78650000D01*
X93450000Y-78650000D02*
G75*
G02*
X93550000Y-78650000I50000J0D01*
G01*
X93550000Y-78650000D02*
G75*
G02*
X93450000Y-78650000I-50000J0D01*
G01*
D12*
%TO.C,C122*%
X120807836Y-124277500D02*
X120592164Y-124277500D01*
X120807836Y-124997500D02*
X120592164Y-124997500D01*
D11*
%TO.C,D550*%
X193700000Y-93650000D02*
X193700000Y-93650000D01*
X193800000Y-93650000D02*
X193800000Y-93650000D01*
X193700000Y-93650000D02*
G75*
G02*
X193800000Y-93650000I50000J0D01*
G01*
X193800000Y-93650000D02*
G75*
G02*
X193700000Y-93650000I-50000J0D01*
G01*
D13*
%TO.C,J202*%
X144800000Y-86655000D02*
G75*
G02*
X144500000Y-86655000I-150000J0D01*
G01*
X144500000Y-86655000D02*
G75*
G02*
X144800000Y-86655000I150000J0D01*
G01*
D14*
X162350000Y-83215000D02*
X162350000Y-69455000D01*
X162350000Y-83215000D02*
X145550000Y-83215000D01*
X162350000Y-67605000D02*
X162350000Y-58615000D01*
X145550000Y-83215000D02*
X145550000Y-69455000D01*
X145550000Y-67605000D02*
X145550000Y-58615000D01*
X145550000Y-58615000D02*
X162350000Y-58615000D01*
D11*
%TO.C,D502*%
X93450000Y-88850000D02*
X93450000Y-88850000D01*
X93550000Y-88850000D02*
X93550000Y-88850000D01*
X93450000Y-88850000D02*
G75*
G02*
X93550000Y-88850000I50000J0D01*
G01*
X93550000Y-88850000D02*
G75*
G02*
X93450000Y-88850000I-50000J0D01*
G01*
%TO.C,D512*%
X94550000Y-101250000D02*
X94550000Y-101250000D01*
X94450000Y-101250000D02*
X94450000Y-101250000D01*
X94550000Y-101250000D02*
G75*
G02*
X94450000Y-101250000I-50000J0D01*
G01*
X94450000Y-101250000D02*
G75*
G02*
X94550000Y-101250000I50000J0D01*
G01*
D12*
%TO.C,D410*%
X118060000Y-133884399D02*
X115400000Y-133884399D01*
X118060000Y-135584399D02*
X115400000Y-135584399D01*
X118060000Y-135584399D02*
X118060000Y-133884399D01*
D11*
%TO.C,D530*%
X93450000Y-73750000D02*
X93450000Y-73750000D01*
X93550000Y-73750000D02*
X93550000Y-73750000D01*
X93450000Y-73750000D02*
G75*
G02*
X93550000Y-73750000I50000J0D01*
G01*
X93550000Y-73750000D02*
G75*
G02*
X93450000Y-73750000I-50000J0D01*
G01*
%TO.C,D570*%
X193800000Y-106850000D02*
X193800000Y-106850000D01*
X193700000Y-106850000D02*
X193700000Y-106850000D01*
X193800000Y-106850000D02*
G75*
G02*
X193700000Y-106850000I-50000J0D01*
G01*
X193700000Y-106850000D02*
G75*
G02*
X193800000Y-106850000I50000J0D01*
G01*
D12*
%TO.C,C114*%
X144862164Y-126740000D02*
X145077836Y-126740000D01*
X144862164Y-127460000D02*
X145077836Y-127460000D01*
D11*
%TO.C,D529*%
X94450000Y-73750000D02*
X94450000Y-73750000D01*
X94550000Y-73750000D02*
X94550000Y-73750000D01*
X94450000Y-73750000D02*
G75*
G02*
X94550000Y-73750000I50000J0D01*
G01*
X94550000Y-73750000D02*
G75*
G02*
X94450000Y-73750000I-50000J0D01*
G01*
%TO.C,D562*%
X194700000Y-102250000D02*
G75*
G02*
X194800000Y-102250000I50000J0D01*
G01*
X194800000Y-102250000D02*
G75*
G02*
X194700000Y-102250000I-50000J0D01*
G01*
X194700000Y-102250000D02*
X194700000Y-102250000D01*
X194800000Y-102250000D02*
X194800000Y-102250000D01*
%TO.C,D574*%
X194700000Y-108650000D02*
X194700000Y-108650000D01*
X194800000Y-108650000D02*
X194800000Y-108650000D01*
X194700000Y-108650000D02*
G75*
G02*
X194800000Y-108650000I50000J0D01*
G01*
X194800000Y-108650000D02*
G75*
G02*
X194700000Y-108650000I-50000J0D01*
G01*
D12*
%TO.C,C102*%
X123357836Y-107890000D02*
X123142164Y-107890000D01*
X123357836Y-108610000D02*
X123142164Y-108610000D01*
%TO.C,R202*%
X149846359Y-96370000D02*
X150153641Y-96370000D01*
X149846359Y-97130000D02*
X150153641Y-97130000D01*
%TO.C,D411*%
X129560000Y-129884399D02*
X126900000Y-129884399D01*
X129560000Y-131584399D02*
X126900000Y-131584399D01*
X129560000Y-131584399D02*
X129560000Y-129884399D01*
D11*
%TO.C,D511*%
X93550000Y-101250000D02*
X93550000Y-101250000D01*
X93450000Y-101250000D02*
X93450000Y-101250000D01*
X93550000Y-101250000D02*
G75*
G02*
X93450000Y-101250000I-50000J0D01*
G01*
X93450000Y-101250000D02*
G75*
G02*
X93550000Y-101250000I50000J0D01*
G01*
D12*
%TO.C,D115*%
X128016800Y-89971202D02*
X128016800Y-92631202D01*
X129716800Y-89971202D02*
X128016800Y-89971202D01*
X129716800Y-89971202D02*
X129716800Y-92631202D01*
D11*
%TO.C,D542*%
X194800000Y-88600000D02*
X194800000Y-88600000D01*
X194700000Y-88600000D02*
X194700000Y-88600000D01*
X194800000Y-88600000D02*
G75*
G02*
X194700000Y-88600000I-50000J0D01*
G01*
X194700000Y-88600000D02*
G75*
G02*
X194800000Y-88600000I50000J0D01*
G01*
D12*
%TO.C,R108*%
X196420000Y-130111359D02*
X196420000Y-130418641D01*
X197180000Y-130111359D02*
X197180000Y-130418641D01*
D11*
%TO.C,D549*%
X194700000Y-68600000D02*
X194700000Y-68600000D01*
X194800000Y-68600000D02*
X194800000Y-68600000D01*
X194700000Y-68600000D02*
G75*
G02*
X194800000Y-68600000I50000J0D01*
G01*
X194800000Y-68600000D02*
G75*
G02*
X194700000Y-68600000I-50000J0D01*
G01*
D12*
%TO.C,R412*%
X119320000Y-133080758D02*
X119320000Y-133388040D01*
X120080000Y-133080758D02*
X120080000Y-133388040D01*
D11*
%TO.C,D554*%
X193700000Y-96650000D02*
X193700000Y-96650000D01*
X193800000Y-96650000D02*
X193800000Y-96650000D01*
X193700000Y-96650000D02*
G75*
G02*
X193800000Y-96650000I50000J0D01*
G01*
X193800000Y-96650000D02*
G75*
G02*
X193700000Y-96650000I-50000J0D01*
G01*
%TO.C,D110*%
X130766800Y-89231202D02*
X130766800Y-89231202D01*
X130766800Y-89331202D02*
X130766800Y-89331202D01*
X130766800Y-89231202D02*
G75*
G02*
X130766800Y-89331202I0J-50000D01*
G01*
X130766800Y-89331202D02*
G75*
G02*
X130766800Y-89231202I0J50000D01*
G01*
D12*
%TO.C,C119*%
X123340000Y-113707836D02*
X123340000Y-113492164D01*
X124060000Y-113707836D02*
X124060000Y-113492164D01*
D11*
%TO.C,D109*%
X198050000Y-130730000D02*
X198050000Y-130730000D01*
X198150000Y-130730000D02*
X198150000Y-130730000D01*
X198050000Y-130730000D02*
G75*
G02*
X198150000Y-130730000I50000J0D01*
G01*
X198150000Y-130730000D02*
G75*
G02*
X198050000Y-130730000I-50000J0D01*
G01*
D12*
%TO.C,D113*%
X133150000Y-89971202D02*
X133150000Y-92631202D01*
X134850000Y-89971202D02*
X133150000Y-89971202D01*
X134850000Y-89971202D02*
X134850000Y-92631202D01*
%TO.C,R401*%
X121853641Y-135854399D02*
X121546359Y-135854399D01*
X121853641Y-136614399D02*
X121546359Y-136614399D01*
D11*
%TO.C,D539*%
X93550000Y-85850000D02*
X93550000Y-85850000D01*
X93450000Y-85850000D02*
X93450000Y-85850000D01*
X93550000Y-85850000D02*
G75*
G02*
X93450000Y-85850000I-50000J0D01*
G01*
X93450000Y-85850000D02*
G75*
G02*
X93550000Y-85850000I50000J0D01*
G01*
%TO.C,D507*%
X93550000Y-96000000D02*
X93550000Y-96000000D01*
X93450000Y-96000000D02*
X93450000Y-96000000D01*
X93550000Y-96000000D02*
G75*
G02*
X93450000Y-96000000I-50000J0D01*
G01*
X93450000Y-96000000D02*
G75*
G02*
X93550000Y-96000000I50000J0D01*
G01*
D14*
%TO.C,J201*%
X131210000Y-58450000D02*
X136290000Y-58450000D01*
X131210000Y-64170000D02*
X131210000Y-58450000D01*
X136290000Y-58450000D02*
X136290000Y-64170000D01*
X136290000Y-64170000D02*
X131210000Y-64170000D01*
D10*
X135120000Y-65170000D02*
G75*
G02*
X134920000Y-65170000I-100000J0D01*
G01*
X134920000Y-65170000D02*
G75*
G02*
X135120000Y-65170000I100000J0D01*
G01*
D12*
%TO.C,D401*%
X123810000Y-131884399D02*
X121150000Y-131884399D01*
X123810000Y-133584399D02*
X121150000Y-133584399D01*
X123810000Y-133584399D02*
X123810000Y-131884399D01*
D11*
%TO.C,D504*%
X94550000Y-90900000D02*
X94550000Y-90900000D01*
X94450000Y-90900000D02*
X94450000Y-90900000D01*
X94550000Y-90900000D02*
G75*
G02*
X94450000Y-90900000I-50000J0D01*
G01*
X94450000Y-90900000D02*
G75*
G02*
X94550000Y-90900000I50000J0D01*
G01*
D12*
%TO.C,D202*%
X142265000Y-92700000D02*
X142265000Y-94985000D01*
X142265000Y-94985000D02*
X143735000Y-94985000D01*
X143735000Y-94985000D02*
X143735000Y-92700000D01*
D11*
%TO.C,D501*%
X94450000Y-88850000D02*
X94450000Y-88850000D01*
X94550000Y-88850000D02*
X94550000Y-88850000D01*
X94450000Y-88850000D02*
G75*
G02*
X94550000Y-88850000I50000J0D01*
G01*
X94550000Y-88850000D02*
G75*
G02*
X94450000Y-88850000I-50000J0D01*
G01*
D12*
%TO.C,R101*%
X160653641Y-126370000D02*
X160346359Y-126370000D01*
X160653641Y-127130000D02*
X160346359Y-127130000D01*
D11*
%TO.C,D509*%
X94450000Y-99100000D02*
X94450000Y-99100000D01*
X94550000Y-99100000D02*
X94550000Y-99100000D01*
X94450000Y-99100000D02*
G75*
G02*
X94550000Y-99100000I50000J0D01*
G01*
X94550000Y-99100000D02*
G75*
G02*
X94450000Y-99100000I-50000J0D01*
G01*
%TO.C,D568*%
X194700000Y-104150000D02*
X194700000Y-104150000D01*
X194800000Y-104150000D02*
X194800000Y-104150000D01*
X194700000Y-104150000D02*
G75*
G02*
X194800000Y-104150000I50000J0D01*
G01*
X194800000Y-104150000D02*
G75*
G02*
X194700000Y-104150000I-50000J0D01*
G01*
%TO.C,D558*%
X193800000Y-99500000D02*
G75*
G02*
X193700000Y-99500000I-50000J0D01*
G01*
X193700000Y-99500000D02*
G75*
G02*
X193800000Y-99500000I50000J0D01*
G01*
X193800000Y-99500000D02*
X193800000Y-99500000D01*
X193700000Y-99500000D02*
X193700000Y-99500000D01*
D12*
%TO.C,D408*%
X129560000Y-133884399D02*
X126900000Y-133884399D01*
X129560000Y-135584399D02*
X126900000Y-135584399D01*
X129560000Y-135584399D02*
X129560000Y-133884399D01*
D11*
%TO.C,D566*%
X193700000Y-104150000D02*
X193700000Y-104150000D01*
X193800000Y-104150000D02*
X193800000Y-104150000D01*
X193700000Y-104150000D02*
G75*
G02*
X193800000Y-104150000I50000J0D01*
G01*
X193800000Y-104150000D02*
G75*
G02*
X193700000Y-104150000I-50000J0D01*
G01*
D12*
%TO.C,R407*%
X127603641Y-135854399D02*
X127296359Y-135854399D01*
X127603641Y-136614399D02*
X127296359Y-136614399D01*
D11*
%TO.C,D505*%
X94450000Y-94000000D02*
X94450000Y-94000000D01*
X94550000Y-94000000D02*
X94550000Y-94000000D01*
X94450000Y-94000000D02*
G75*
G02*
X94550000Y-94000000I50000J0D01*
G01*
X94550000Y-94000000D02*
G75*
G02*
X94450000Y-94000000I-50000J0D01*
G01*
D10*
%TO.C,J501*%
X183330000Y-58175000D02*
X183330000Y-116315000D01*
X183330000Y-116315000D02*
X189500000Y-116315000D01*
X192830000Y-58175000D02*
X183330000Y-58175000D01*
X192830000Y-111440000D02*
X192830000Y-58175000D01*
D12*
%TO.C,C116*%
X134142164Y-101640000D02*
X134357836Y-101640000D01*
X134142164Y-102360000D02*
X134357836Y-102360000D01*
D11*
%TO.C,D544*%
X193800000Y-88600000D02*
X193800000Y-88600000D01*
X193700000Y-88600000D02*
X193700000Y-88600000D01*
X193800000Y-88600000D02*
G75*
G02*
X193700000Y-88600000I-50000J0D01*
G01*
X193700000Y-88600000D02*
G75*
G02*
X193800000Y-88600000I50000J0D01*
G01*
D12*
%TO.C,D412*%
X118060000Y-129884399D02*
X115400000Y-129884399D01*
X118060000Y-131584399D02*
X115400000Y-131584399D01*
X118060000Y-131584399D02*
X118060000Y-129884399D01*
D11*
%TO.C,D564*%
X193800000Y-102250000D02*
X193800000Y-102250000D01*
X193700000Y-102250000D02*
X193700000Y-102250000D01*
X193800000Y-102250000D02*
G75*
G02*
X193700000Y-102250000I-50000J0D01*
G01*
X193700000Y-102250000D02*
G75*
G02*
X193800000Y-102250000I50000J0D01*
G01*
%TO.C,D545*%
X193800000Y-65250000D02*
X193800000Y-65250000D01*
X193700000Y-65250000D02*
X193700000Y-65250000D01*
X193800000Y-65250000D02*
G75*
G02*
X193700000Y-65250000I-50000J0D01*
G01*
X193700000Y-65250000D02*
G75*
G02*
X193800000Y-65250000I50000J0D01*
G01*
D12*
%TO.C,D101*%
X159095000Y-124015000D02*
X159095000Y-125485000D01*
X159095000Y-125485000D02*
X161380000Y-125485000D01*
X161380000Y-124015000D02*
X159095000Y-124015000D01*
%TO.C,R102*%
X121590000Y-96022936D02*
X121590000Y-97477064D01*
X123410000Y-96022936D02*
X123410000Y-97477064D01*
D11*
%TO.C,D506*%
X93450000Y-94000000D02*
X93450000Y-94000000D01*
X93550000Y-94000000D02*
X93550000Y-94000000D01*
X93450000Y-94000000D02*
G75*
G02*
X93550000Y-94000000I50000J0D01*
G01*
X93550000Y-94000000D02*
G75*
G02*
X93450000Y-94000000I-50000J0D01*
G01*
D12*
%TO.C,R402*%
X110353641Y-135854399D02*
X110046359Y-135854399D01*
X110353641Y-136614399D02*
X110046359Y-136614399D01*
%TO.C,R201*%
X148846359Y-95370000D02*
X149153641Y-95370000D01*
X148846359Y-96130000D02*
X149153641Y-96130000D01*
%TO.C,C118*%
X125807836Y-102990000D02*
X125592164Y-102990000D01*
X125807836Y-103710000D02*
X125592164Y-103710000D01*
%TO.C,D407*%
X129560000Y-131884399D02*
X126900000Y-131884399D01*
X129560000Y-133584399D02*
X126900000Y-133584399D01*
X129560000Y-133584399D02*
X129560000Y-131884399D01*
%TO.C,C201*%
X151872164Y-89890000D02*
X152087836Y-89890000D01*
X151872164Y-90610000D02*
X152087836Y-90610000D01*
%TO.C,C104*%
X127857836Y-126740000D02*
X127642164Y-126740000D01*
X127857836Y-127460000D02*
X127642164Y-127460000D01*
%TO.C,R107*%
X158616359Y-92888300D02*
X158923641Y-92888300D01*
X158616359Y-93648300D02*
X158923641Y-93648300D01*
D11*
%TO.C,D105*%
X125600000Y-89231202D02*
X125600000Y-89231202D01*
X125600000Y-89331202D02*
X125600000Y-89331202D01*
X125600000Y-89231202D02*
G75*
G02*
X125600000Y-89331202I0J-50000D01*
G01*
X125600000Y-89331202D02*
G75*
G02*
X125600000Y-89231202I0J50000D01*
G01*
D12*
%TO.C,D404*%
X112310000Y-133884399D02*
X109650000Y-133884399D01*
X112310000Y-135584399D02*
X109650000Y-135584399D01*
X112310000Y-135584399D02*
X112310000Y-133884399D01*
%TO.C,C105*%
X134827836Y-126740000D02*
X134612164Y-126740000D01*
X134827836Y-127460000D02*
X134612164Y-127460000D01*
D11*
%TO.C,D106*%
X128100000Y-89231202D02*
X128100000Y-89231202D01*
X128100000Y-89331202D02*
X128100000Y-89331202D01*
X128100000Y-89231202D02*
G75*
G02*
X128100000Y-89331202I0J-50000D01*
G01*
X128100000Y-89331202D02*
G75*
G02*
X128100000Y-89231202I0J50000D01*
G01*
D12*
%TO.C,C120*%
X123327836Y-121490000D02*
X123112164Y-121490000D01*
X123327836Y-122210000D02*
X123112164Y-122210000D01*
D11*
%TO.C,D543*%
X193700000Y-63350000D02*
X193700000Y-63350000D01*
X193800000Y-63350000D02*
X193800000Y-63350000D01*
X193700000Y-63350000D02*
G75*
G02*
X193800000Y-63350000I50000J0D01*
G01*
X193800000Y-63350000D02*
G75*
G02*
X193700000Y-63350000I-50000J0D01*
G01*
%TO.C,D548*%
X194700000Y-90750000D02*
X194700000Y-90750000D01*
X194800000Y-90750000D02*
X194800000Y-90750000D01*
X194700000Y-90750000D02*
G75*
G02*
X194800000Y-90750000I50000J0D01*
G01*
X194800000Y-90750000D02*
G75*
G02*
X194700000Y-90750000I-50000J0D01*
G01*
D12*
%TO.C,D403*%
X112310000Y-131884399D02*
X109650000Y-131884399D01*
X112310000Y-133584399D02*
X109650000Y-133584399D01*
X112310000Y-133584399D02*
X112310000Y-131884399D01*
D11*
%TO.C,D555*%
X194800000Y-70400000D02*
X194800000Y-70400000D01*
X194700000Y-70400000D02*
X194700000Y-70400000D01*
X194800000Y-70400000D02*
G75*
G02*
X194700000Y-70400000I-50000J0D01*
G01*
X194700000Y-70400000D02*
G75*
G02*
X194800000Y-70400000I50000J0D01*
G01*
D12*
%TO.C,D406*%
X112310000Y-129884399D02*
X109650000Y-129884399D01*
X112310000Y-131584399D02*
X109650000Y-131584399D01*
X112310000Y-131584399D02*
X112310000Y-129884399D01*
%TO.C,C202*%
X148892164Y-94390000D02*
X149107836Y-94390000D01*
X148892164Y-95110000D02*
X149107836Y-95110000D01*
%TO.C,C203*%
X144811700Y-92892164D02*
X144811700Y-93107836D01*
X145531700Y-92892164D02*
X145531700Y-93107836D01*
D11*
%TO.C,D551*%
X193700000Y-68600000D02*
X193700000Y-68600000D01*
X193800000Y-68600000D02*
X193800000Y-68600000D01*
X193700000Y-68600000D02*
G75*
G02*
X193800000Y-68600000I50000J0D01*
G01*
X193800000Y-68600000D02*
G75*
G02*
X193700000Y-68600000I-50000J0D01*
G01*
%TO.C,D567*%
X193700000Y-78500000D02*
X193700000Y-78500000D01*
X193800000Y-78500000D02*
X193800000Y-78500000D01*
X193700000Y-78500000D02*
G75*
G02*
X193800000Y-78500000I50000J0D01*
G01*
X193800000Y-78500000D02*
G75*
G02*
X193700000Y-78500000I-50000J0D01*
G01*
D12*
%TO.C,R203*%
X144596359Y-94120000D02*
X144903641Y-94120000D01*
X144596359Y-94880000D02*
X144903641Y-94880000D01*
D11*
%TO.C,D523*%
X93550000Y-65500000D02*
X93550000Y-65500000D01*
X93450000Y-65500000D02*
X93450000Y-65500000D01*
X93550000Y-65500000D02*
G75*
G02*
X93450000Y-65500000I-50000J0D01*
G01*
X93450000Y-65500000D02*
G75*
G02*
X93550000Y-65500000I50000J0D01*
G01*
D12*
%TO.C,R410*%
X116113641Y-135854399D02*
X115806359Y-135854399D01*
X116113641Y-136614399D02*
X115806359Y-136614399D01*
D15*
%TO.C,J102*%
X124773000Y-81243001D02*
X124773000Y-87288201D01*
X124773000Y-87288201D02*
X135187000Y-87288201D01*
X135187000Y-81243001D02*
X124773000Y-81243001D01*
X135187000Y-87288201D02*
X135187000Y-81243001D01*
D16*
X136203000Y-84250000D02*
G75*
G02*
X135441000Y-84250000I-381000J0D01*
G01*
X135441000Y-84250000D02*
G75*
G02*
X136203000Y-84250000I381000J0D01*
G01*
D12*
%TO.C,R302*%
X155621558Y-118984800D02*
X155928840Y-118984800D01*
X155621558Y-119744800D02*
X155928840Y-119744800D01*
D11*
%TO.C,D569*%
X193800000Y-80500000D02*
X193800000Y-80500000D01*
X193700000Y-80500000D02*
X193700000Y-80500000D01*
X193800000Y-80500000D02*
G75*
G02*
X193700000Y-80500000I-50000J0D01*
G01*
X193700000Y-80500000D02*
G75*
G02*
X193800000Y-80500000I50000J0D01*
G01*
%TO.C,D524*%
X94550000Y-65500000D02*
X94550000Y-65500000D01*
X94450000Y-65500000D02*
X94450000Y-65500000D01*
X94550000Y-65500000D02*
G75*
G02*
X94450000Y-65500000I-50000J0D01*
G01*
X94450000Y-65500000D02*
G75*
G02*
X94550000Y-65500000I50000J0D01*
G01*
D12*
%TO.C,C112*%
X121640000Y-118162164D02*
X121640000Y-118377836D01*
X122360000Y-118162164D02*
X122360000Y-118377836D01*
D11*
%TO.C,D571*%
X194800000Y-80500000D02*
X194800000Y-80500000D01*
X194700000Y-80500000D02*
X194700000Y-80500000D01*
X194800000Y-80500000D02*
G75*
G02*
X194700000Y-80500000I-50000J0D01*
G01*
X194700000Y-80500000D02*
G75*
G02*
X194800000Y-80500000I50000J0D01*
G01*
%TO.C,D108*%
X198000000Y-127805000D02*
X198000000Y-127805000D01*
X198100000Y-127805000D02*
X198100000Y-127805000D01*
X198000000Y-127805000D02*
G75*
G02*
X198100000Y-127805000I50000J0D01*
G01*
X198100000Y-127805000D02*
G75*
G02*
X198000000Y-127805000I-50000J0D01*
G01*
%TO.C,D527*%
X93550000Y-70750000D02*
X93550000Y-70750000D01*
X93450000Y-70750000D02*
X93450000Y-70750000D01*
X93550000Y-70750000D02*
G75*
G02*
X93450000Y-70750000I-50000J0D01*
G01*
X93450000Y-70750000D02*
G75*
G02*
X93550000Y-70750000I50000J0D01*
G01*
D12*
%TO.C,R403*%
X124120000Y-132080758D02*
X124120000Y-132388040D01*
X124880000Y-132080758D02*
X124880000Y-132388040D01*
D17*
%TO.C,J107*%
X205800000Y-122655000D02*
X205350000Y-122655000D01*
X205350000Y-130655000D02*
X205350000Y-130355000D01*
X205350000Y-130355000D02*
X205800000Y-130355000D01*
X205350000Y-122655000D02*
X205350000Y-122355000D01*
X205350000Y-122355000D02*
X205200000Y-122355000D01*
X205200000Y-130655000D02*
X205350000Y-130655000D01*
X202800000Y-122355000D02*
X201400000Y-122355000D01*
X201400000Y-130655000D02*
X202800000Y-130655000D01*
X199650000Y-128305000D02*
X199650000Y-129305000D01*
X199650000Y-124705000D02*
X199650000Y-123705000D01*
X199225000Y-128305000D02*
X199650000Y-128305000D01*
X199225000Y-127580000D02*
X199225000Y-128305000D01*
D15*
%TO.C,J104*%
X143273000Y-134477400D02*
X143273000Y-140522600D01*
X143273000Y-140522600D02*
X151147000Y-140522600D01*
X151147000Y-134477400D02*
X143273000Y-134477400D01*
X151147000Y-140522600D02*
X151147000Y-134477400D01*
D16*
X152163000Y-137484399D02*
G75*
G02*
X151401000Y-137484399I-381000J0D01*
G01*
X151401000Y-137484399D02*
G75*
G02*
X152163000Y-137484399I381000J0D01*
G01*
D11*
%TO.C,D541*%
X194700000Y-63350000D02*
X194700000Y-63350000D01*
X194800000Y-63350000D02*
X194800000Y-63350000D01*
X194700000Y-63350000D02*
G75*
G02*
X194800000Y-63350000I50000J0D01*
G01*
X194800000Y-63350000D02*
G75*
G02*
X194700000Y-63350000I-50000J0D01*
G01*
%TO.C,D201*%
X152150000Y-89200000D02*
X152150000Y-89200000D01*
X152150000Y-89300000D02*
X152150000Y-89300000D01*
X152150000Y-89200000D02*
G75*
G02*
X152150000Y-89300000I0J-50000D01*
G01*
X152150000Y-89300000D02*
G75*
G02*
X152150000Y-89200000I0J50000D01*
G01*
D12*
%TO.C,C103*%
X123340000Y-120222164D02*
X123340000Y-120437836D01*
X124060000Y-120222164D02*
X124060000Y-120437836D01*
D11*
%TO.C,D103*%
X197000000Y-125855000D02*
X197000000Y-125855000D01*
X197100000Y-125855000D02*
X197100000Y-125855000D01*
X197000000Y-125855000D02*
G75*
G02*
X197100000Y-125855000I50000J0D01*
G01*
X197100000Y-125855000D02*
G75*
G02*
X197000000Y-125855000I-50000J0D01*
G01*
%TO.C,D572*%
X194800000Y-106850000D02*
X194800000Y-106850000D01*
X194700000Y-106850000D02*
X194700000Y-106850000D01*
X194800000Y-106850000D02*
G75*
G02*
X194700000Y-106850000I-50000J0D01*
G01*
X194700000Y-106850000D02*
G75*
G02*
X194800000Y-106850000I50000J0D01*
G01*
D12*
%TO.C,C110*%
X148340000Y-117992164D02*
X148340000Y-118207836D01*
X149060000Y-117992164D02*
X149060000Y-118207836D01*
%TO.C,U101*%
X126090000Y-104490000D02*
X126090000Y-105440000D01*
X126090000Y-124710000D02*
X126090000Y-123760000D01*
X127040000Y-104490000D02*
X126090000Y-104490000D01*
X127040000Y-124710000D02*
X126090000Y-124710000D01*
X145360000Y-104490000D02*
X146310000Y-104490000D01*
X145360000Y-124710000D02*
X146310000Y-124710000D01*
X146310000Y-104490000D02*
X146310000Y-105440000D01*
X146310000Y-124710000D02*
X146310000Y-123760000D01*
X125500000Y-105440000D02*
X125160000Y-104970000D01*
X125840000Y-104970000D01*
X125500000Y-105440000D01*
G36*
X125500000Y-105440000D02*
G01*
X125160000Y-104970000D01*
X125840000Y-104970000D01*
X125500000Y-105440000D01*
G37*
%TO.C,R109*%
X195390000Y-131086359D02*
X195390000Y-131393641D01*
X196150000Y-131086359D02*
X196150000Y-131393641D01*
%TO.C,C121*%
X120807836Y-122527500D02*
X120592164Y-122527500D01*
X120807836Y-123247500D02*
X120592164Y-123247500D01*
%TO.C,R301*%
X155621558Y-116984800D02*
X155928840Y-116984800D01*
X155621558Y-117744800D02*
X155928840Y-117744800D01*
D14*
%TO.C,J101*%
X111035000Y-138154399D02*
X128405000Y-138154399D01*
X111035000Y-147354399D02*
X111035000Y-138154399D01*
X128405000Y-138154399D02*
X128405000Y-147354399D01*
X128405000Y-147354399D02*
X111035000Y-147354399D01*
D10*
X116010000Y-147854399D02*
G75*
G02*
X115810000Y-147854399I-100000J0D01*
G01*
X115810000Y-147854399D02*
G75*
G02*
X116010000Y-147854399I100000J0D01*
G01*
D11*
%TO.C,D528*%
X94550000Y-70750000D02*
X94550000Y-70750000D01*
X94450000Y-70750000D02*
X94450000Y-70750000D01*
X94550000Y-70750000D02*
G75*
G02*
X94450000Y-70750000I-50000J0D01*
G01*
X94450000Y-70750000D02*
G75*
G02*
X94550000Y-70750000I50000J0D01*
G01*
D12*
%TO.C,D405*%
X123810000Y-129884399D02*
X121150000Y-129884399D01*
X123810000Y-131584399D02*
X121150000Y-131584399D01*
X123810000Y-131584399D02*
X123810000Y-129884399D01*
D11*
%TO.C,D510*%
X93450000Y-99100000D02*
X93450000Y-99100000D01*
X93550000Y-99100000D02*
X93550000Y-99100000D01*
X93450000Y-99100000D02*
G75*
G02*
X93550000Y-99100000I50000J0D01*
G01*
X93550000Y-99100000D02*
G75*
G02*
X93450000Y-99100000I-50000J0D01*
G01*
D12*
%TO.C,R103*%
X125722936Y-100340000D02*
X127177064Y-100340000D01*
X125722936Y-102160000D02*
X127177064Y-102160000D01*
D11*
%TO.C,D561*%
X193800000Y-75400000D02*
X193800000Y-75400000D01*
X193700000Y-75400000D02*
X193700000Y-75400000D01*
X193800000Y-75400000D02*
G75*
G02*
X193700000Y-75400000I-50000J0D01*
G01*
X193700000Y-75400000D02*
G75*
G02*
X193800000Y-75400000I50000J0D01*
G01*
D12*
%TO.C,D116*%
X125516800Y-89971202D02*
X125516800Y-92631202D01*
X127216800Y-89971202D02*
X125516800Y-89971202D01*
X127216800Y-89971202D02*
X127216800Y-92631202D01*
%TO.C,C115*%
X139142164Y-101740000D02*
X139357836Y-101740000D01*
X139142164Y-102460000D02*
X139357836Y-102460000D01*
D15*
%TO.C,J103*%
X133779600Y-134477400D02*
X133779600Y-140522600D01*
X133779600Y-140522600D02*
X141653600Y-140522600D01*
X141653600Y-134477400D02*
X133779600Y-134477400D01*
X141653600Y-140522600D02*
X141653600Y-134477400D01*
D16*
X142669600Y-137484399D02*
G75*
G02*
X141907600Y-137484399I-381000J0D01*
G01*
X141907600Y-137484399D02*
G75*
G02*
X142669600Y-137484399I381000J0D01*
G01*
D11*
%TO.C,D559*%
X193700000Y-73600000D02*
X193700000Y-73600000D01*
X193800000Y-73600000D02*
X193800000Y-73600000D01*
X193700000Y-73600000D02*
G75*
G02*
X193800000Y-73600000I50000J0D01*
G01*
X193800000Y-73600000D02*
G75*
G02*
X193700000Y-73600000I-50000J0D01*
G01*
%TO.C,D573*%
X194700000Y-83500000D02*
X194700000Y-83500000D01*
X194800000Y-83500000D02*
X194800000Y-83500000D01*
X194700000Y-83500000D02*
G75*
G02*
X194800000Y-83500000I50000J0D01*
G01*
X194800000Y-83500000D02*
G75*
G02*
X194700000Y-83500000I-50000J0D01*
G01*
%TO.C,D521*%
X94450000Y-63400000D02*
X94450000Y-63400000D01*
X94550000Y-63400000D02*
X94550000Y-63400000D01*
X94450000Y-63400000D02*
G75*
G02*
X94550000Y-63400000I50000J0D01*
G01*
X94550000Y-63400000D02*
G75*
G02*
X94450000Y-63400000I-50000J0D01*
G01*
%TO.C,D560*%
X194800000Y-99500000D02*
G75*
G02*
X194700000Y-99500000I-50000J0D01*
G01*
X194700000Y-99500000D02*
G75*
G02*
X194800000Y-99500000I50000J0D01*
G01*
X194800000Y-99500000D02*
X194800000Y-99500000D01*
X194700000Y-99500000D02*
X194700000Y-99500000D01*
%TO.C,D563*%
X194800000Y-75400000D02*
X194800000Y-75400000D01*
X194700000Y-75400000D02*
X194700000Y-75400000D01*
X194800000Y-75400000D02*
G75*
G02*
X194700000Y-75400000I-50000J0D01*
G01*
X194700000Y-75400000D02*
G75*
G02*
X194800000Y-75400000I50000J0D01*
G01*
D12*
%TO.C,D402*%
X123810000Y-133884399D02*
X121150000Y-133884399D01*
X123810000Y-135584399D02*
X121150000Y-135584399D01*
X123810000Y-135584399D02*
X123810000Y-133884399D01*
%TO.C,R409*%
X130820000Y-133090758D02*
X130820000Y-133398040D01*
X131580000Y-133090758D02*
X131580000Y-133398040D01*
D11*
%TO.C,D575*%
X193700000Y-83500000D02*
X193700000Y-83500000D01*
X193800000Y-83500000D02*
X193800000Y-83500000D01*
X193700000Y-83500000D02*
G75*
G02*
X193800000Y-83500000I50000J0D01*
G01*
X193800000Y-83500000D02*
G75*
G02*
X193700000Y-83500000I-50000J0D01*
G01*
%TO.C,D547*%
X194800000Y-65250000D02*
X194800000Y-65250000D01*
X194700000Y-65250000D02*
X194700000Y-65250000D01*
X194800000Y-65250000D02*
G75*
G02*
X194700000Y-65250000I-50000J0D01*
G01*
X194700000Y-65250000D02*
G75*
G02*
X194800000Y-65250000I50000J0D01*
G01*
D12*
%TO.C,R405*%
X112520000Y-132080758D02*
X112520000Y-132388040D01*
X113280000Y-132080758D02*
X113280000Y-132388040D01*
D11*
%TO.C,D102*%
X160950000Y-92600000D02*
X160950000Y-92600000D01*
X160850000Y-92600000D02*
X160850000Y-92600000D01*
X160950000Y-92600000D02*
G75*
G02*
X160850000Y-92600000I-50000J0D01*
G01*
X160850000Y-92600000D02*
G75*
G02*
X160950000Y-92600000I50000J0D01*
G01*
%TO.C,D580*%
X193700000Y-111650000D02*
X193700000Y-111650000D01*
X193800000Y-111650000D02*
X193800000Y-111650000D01*
X193700000Y-111650000D02*
G75*
G02*
X193800000Y-111650000I50000J0D01*
G01*
X193800000Y-111650000D02*
G75*
G02*
X193700000Y-111650000I-50000J0D01*
G01*
D12*
%TO.C,D409*%
X118060000Y-131884399D02*
X115400000Y-131884399D01*
X118060000Y-133584399D02*
X115400000Y-133584399D01*
X118060000Y-133584399D02*
X118060000Y-131884399D01*
%TO.C,C101*%
X139109420Y-100240000D02*
X139390580Y-100240000D01*
X139109420Y-101260000D02*
X139390580Y-101260000D01*
%TO.C,C111*%
X148340000Y-112492164D02*
X148340000Y-112707836D01*
X149060000Y-112492164D02*
X149060000Y-112707836D01*
D15*
%TO.C,J105*%
X133779600Y-141227400D02*
X133779600Y-147272600D01*
X133779600Y-147272600D02*
X141653600Y-147272600D01*
X141653600Y-141227400D02*
X133779600Y-141227400D01*
X141653600Y-147272600D02*
X141653600Y-141227400D01*
D16*
X142669600Y-144234399D02*
G75*
G02*
X141907600Y-144234399I-381000J0D01*
G01*
X141907600Y-144234399D02*
G75*
G02*
X142669600Y-144234399I381000J0D01*
G01*
D12*
%TO.C,C109*%
X146592164Y-125240000D02*
X146807836Y-125240000D01*
X146592164Y-125960000D02*
X146807836Y-125960000D01*
D11*
%TO.C,D536*%
X94550000Y-80850000D02*
X94550000Y-80850000D01*
X94450000Y-80850000D02*
X94450000Y-80850000D01*
X94550000Y-80850000D02*
G75*
G02*
X94450000Y-80850000I-50000J0D01*
G01*
X94450000Y-80850000D02*
G75*
G02*
X94550000Y-80850000I50000J0D01*
G01*
%TO.C,D526*%
X93450000Y-68750000D02*
X93450000Y-68750000D01*
X93550000Y-68750000D02*
X93550000Y-68750000D01*
X93450000Y-68750000D02*
G75*
G02*
X93550000Y-68750000I50000J0D01*
G01*
X93550000Y-68750000D02*
G75*
G02*
X93450000Y-68750000I-50000J0D01*
G01*
%TO.C,D522*%
X93450000Y-63400000D02*
X93450000Y-63400000D01*
X93550000Y-63400000D02*
X93550000Y-63400000D01*
X93450000Y-63400000D02*
G75*
G02*
X93550000Y-63400000I50000J0D01*
G01*
X93550000Y-63400000D02*
G75*
G02*
X93450000Y-63400000I-50000J0D01*
G01*
D12*
%TO.C,C113*%
X148340000Y-105392164D02*
X148340000Y-105607836D01*
X149060000Y-105392164D02*
X149060000Y-105607836D01*
D11*
%TO.C,D578*%
X194700000Y-111650000D02*
X194700000Y-111650000D01*
X194800000Y-111650000D02*
X194800000Y-111650000D01*
X194700000Y-111650000D02*
G75*
G02*
X194800000Y-111650000I50000J0D01*
G01*
X194800000Y-111650000D02*
G75*
G02*
X194700000Y-111650000I-50000J0D01*
G01*
D12*
%TO.C,C108*%
X121640000Y-114912164D02*
X121640000Y-115127836D01*
X122360000Y-114912164D02*
X122360000Y-115127836D01*
%TO.C,C117*%
X149112164Y-106640000D02*
X149327836Y-106640000D01*
X149112164Y-107360000D02*
X149327836Y-107360000D01*
D15*
%TO.C,J301*%
X156993001Y-115603000D02*
X156993001Y-123477000D01*
X156993001Y-123477000D02*
X163038201Y-123477000D01*
X163038201Y-115603000D02*
X156993001Y-115603000D01*
X163038201Y-123477000D02*
X163038201Y-115603000D01*
D16*
X160381000Y-114968000D02*
G75*
G02*
X159619000Y-114968000I-381000J0D01*
G01*
X159619000Y-114968000D02*
G75*
G02*
X160381000Y-114968000I381000J0D01*
G01*
D11*
%TO.C,D537*%
X94550000Y-83900000D02*
G75*
G02*
X94450000Y-83900000I-50000J0D01*
G01*
X94450000Y-83900000D02*
G75*
G02*
X94550000Y-83900000I50000J0D01*
G01*
X94550000Y-83900000D02*
X94550000Y-83900000D01*
X94450000Y-83900000D02*
X94450000Y-83900000D01*
D12*
%TO.C,Y101*%
X117750000Y-114120000D02*
X117750000Y-118120000D01*
X121050000Y-114120000D02*
X117750000Y-114120000D01*
D15*
%TO.C,J109*%
X143273000Y-141243001D02*
X143273000Y-147288201D01*
X143273000Y-147288201D02*
X151147000Y-147288201D01*
X151147000Y-141243001D02*
X143273000Y-141243001D01*
X151147000Y-147288201D02*
X151147000Y-141243001D01*
D16*
X152163000Y-144250000D02*
G75*
G02*
X151401000Y-144250000I-381000J0D01*
G01*
X151401000Y-144250000D02*
G75*
G02*
X152163000Y-144250000I381000J0D01*
G01*
D11*
%TO.C,D546*%
X193700000Y-90750000D02*
X193700000Y-90750000D01*
X193800000Y-90750000D02*
X193800000Y-90750000D01*
X193700000Y-90750000D02*
G75*
G02*
X193800000Y-90750000I50000J0D01*
G01*
X193800000Y-90750000D02*
G75*
G02*
X193700000Y-90750000I-50000J0D01*
G01*
%TO.C,D538*%
X93550000Y-83900000D02*
G75*
G02*
X93450000Y-83900000I-50000J0D01*
G01*
X93450000Y-83900000D02*
G75*
G02*
X93550000Y-83900000I50000J0D01*
G01*
X93550000Y-83900000D02*
X93550000Y-83900000D01*
X93450000Y-83900000D02*
X93450000Y-83900000D01*
%TO.C,D565*%
X194700000Y-78500000D02*
X194700000Y-78500000D01*
X194800000Y-78500000D02*
X194800000Y-78500000D01*
X194700000Y-78500000D02*
G75*
G02*
X194800000Y-78500000I50000J0D01*
G01*
X194800000Y-78500000D02*
G75*
G02*
X194700000Y-78500000I-50000J0D01*
G01*
%TO.C,D579*%
X194800000Y-85650000D02*
X194800000Y-85650000D01*
X194700000Y-85650000D02*
X194700000Y-85650000D01*
X194800000Y-85650000D02*
G75*
G02*
X194700000Y-85650000I-50000J0D01*
G01*
X194700000Y-85650000D02*
G75*
G02*
X194800000Y-85650000I50000J0D01*
G01*
%TO.C,D533*%
X94450000Y-78650000D02*
X94450000Y-78650000D01*
X94550000Y-78650000D02*
X94550000Y-78650000D01*
X94450000Y-78650000D02*
G75*
G02*
X94550000Y-78650000I50000J0D01*
G01*
X94550000Y-78650000D02*
G75*
G02*
X94450000Y-78650000I-50000J0D01*
G01*
D12*
%TO.C,R404*%
X125070000Y-133090758D02*
X125070000Y-133398040D01*
X125830000Y-133090758D02*
X125830000Y-133398040D01*
D11*
%TO.C,D557*%
X194700000Y-73600000D02*
X194700000Y-73600000D01*
X194800000Y-73600000D02*
X194800000Y-73600000D01*
X194700000Y-73600000D02*
G75*
G02*
X194800000Y-73600000I50000J0D01*
G01*
X194800000Y-73600000D02*
G75*
G02*
X194700000Y-73600000I-50000J0D01*
G01*
%TO.C,D117*%
X166650000Y-99930000D02*
X166650000Y-99930000D01*
X166650000Y-100030000D02*
X166650000Y-100030000D01*
X166650000Y-99930000D02*
G75*
G02*
X166650000Y-100030000I0J-50000D01*
G01*
X166650000Y-100030000D02*
G75*
G02*
X166650000Y-99930000I0J50000D01*
G01*
%TO.C,D112*%
X133266800Y-89231202D02*
X133266800Y-89231202D01*
X133266800Y-89331202D02*
X133266800Y-89331202D01*
X133266800Y-89231202D02*
G75*
G02*
X133266800Y-89331202I0J-50000D01*
G01*
X133266800Y-89331202D02*
G75*
G02*
X133266800Y-89231202I0J50000D01*
G01*
D10*
%TO.C,J502*%
X95330000Y-58585000D02*
X95330000Y-116725000D01*
X95330000Y-116725000D02*
X101500000Y-116725000D01*
X104830000Y-58585000D02*
X95330000Y-58585000D01*
X104830000Y-111850000D02*
X104830000Y-58585000D01*
%TO.C,U301*%
X150675199Y-116814800D02*
X151875199Y-116814800D01*
X152225199Y-116864800D02*
X152825199Y-116864800D01*
X152225199Y-119764800D02*
X152225199Y-116864800D01*
X152825199Y-116864800D02*
X152825199Y-119764800D01*
X152825199Y-119764800D02*
X152225199Y-119764800D01*
D11*
%TO.C,D508*%
X94550000Y-96000000D02*
X94550000Y-96000000D01*
X94450000Y-96000000D02*
X94450000Y-96000000D01*
X94550000Y-96000000D02*
G75*
G02*
X94450000Y-96000000I-50000J0D01*
G01*
X94450000Y-96000000D02*
G75*
G02*
X94550000Y-96000000I50000J0D01*
G01*
D12*
%TO.C,R408*%
X129820000Y-132070758D02*
X129820000Y-132378040D01*
X130580000Y-132070758D02*
X130580000Y-132378040D01*
%TO.C,FB101*%
X121940000Y-123724721D02*
X121940000Y-124050279D01*
X122960000Y-123724721D02*
X122960000Y-124050279D01*
D11*
%TO.C,D556*%
X194700000Y-96650000D02*
X194700000Y-96650000D01*
X194800000Y-96650000D02*
X194800000Y-96650000D01*
X194700000Y-96650000D02*
G75*
G02*
X194800000Y-96650000I50000J0D01*
G01*
X194800000Y-96650000D02*
G75*
G02*
X194700000Y-96650000I-50000J0D01*
G01*
%TO.C,D531*%
X93550000Y-75650000D02*
X93550000Y-75650000D01*
X93450000Y-75650000D02*
X93450000Y-75650000D01*
X93550000Y-75650000D02*
G75*
G02*
X93450000Y-75650000I-50000J0D01*
G01*
X93450000Y-75650000D02*
G75*
G02*
X93550000Y-75650000I50000J0D01*
G01*
D15*
%TO.C,J106*%
X152779600Y-134461799D02*
X152779600Y-140506999D01*
X152779600Y-140506999D02*
X160653600Y-140506999D01*
X160653600Y-134461799D02*
X152779600Y-134461799D01*
X160653600Y-140506999D02*
X160653600Y-134461799D01*
D16*
X161669600Y-137468798D02*
G75*
G02*
X160907600Y-137468798I-381000J0D01*
G01*
X160907600Y-137468798D02*
G75*
G02*
X161669600Y-137468798I381000J0D01*
G01*
D12*
%TO.C,R406*%
X113570000Y-133080758D02*
X113570000Y-133388040D01*
X114330000Y-133080758D02*
X114330000Y-133388040D01*
D11*
%TO.C,D553*%
X193800000Y-70400000D02*
X193800000Y-70400000D01*
X193700000Y-70400000D02*
X193700000Y-70400000D01*
X193800000Y-70400000D02*
G75*
G02*
X193700000Y-70400000I-50000J0D01*
G01*
X193700000Y-70400000D02*
G75*
G02*
X193800000Y-70400000I50000J0D01*
G01*
D12*
%TO.C,R411*%
X118320000Y-132080758D02*
X118320000Y-132388040D01*
X119080000Y-132080758D02*
X119080000Y-132388040D01*
D11*
%TO.C,D532*%
X94550000Y-75650000D02*
X94550000Y-75650000D01*
X94450000Y-75650000D02*
X94450000Y-75650000D01*
X94550000Y-75650000D02*
G75*
G02*
X94450000Y-75650000I-50000J0D01*
G01*
X94450000Y-75650000D02*
G75*
G02*
X94550000Y-75650000I50000J0D01*
G01*
D15*
%TO.C,U201*%
X147272800Y-90522800D02*
X147272800Y-90726361D01*
X147272800Y-93773639D02*
X147272800Y-93977200D01*
X147272800Y-93977200D02*
X150727200Y-93977200D01*
X150727200Y-90522800D02*
X147272800Y-90522800D01*
X150727200Y-90726361D02*
X150727200Y-90522800D01*
X150727200Y-93977200D02*
X150727200Y-93773639D01*
D11*
%TO.C,D535*%
X93550000Y-80850000D02*
X93550000Y-80850000D01*
X93450000Y-80850000D02*
X93450000Y-80850000D01*
X93550000Y-80850000D02*
G75*
G02*
X93450000Y-80850000I-50000J0D01*
G01*
X93450000Y-80850000D02*
G75*
G02*
X93550000Y-80850000I50000J0D01*
G01*
%TO.C,D577*%
X193800000Y-85650000D02*
X193800000Y-85650000D01*
X193700000Y-85650000D02*
X193700000Y-85650000D01*
X193800000Y-85650000D02*
G75*
G02*
X193700000Y-85650000I-50000J0D01*
G01*
X193700000Y-85650000D02*
G75*
G02*
X193800000Y-85650000I50000J0D01*
G01*
%TO.C,D525*%
X94450000Y-68750000D02*
X94450000Y-68750000D01*
X94550000Y-68750000D02*
X94550000Y-68750000D01*
X94450000Y-68750000D02*
G75*
G02*
X94550000Y-68750000I50000J0D01*
G01*
X94550000Y-68750000D02*
G75*
G02*
X94450000Y-68750000I-50000J0D01*
G01*
%TO.C,D576*%
X193700000Y-108650000D02*
X193700000Y-108650000D01*
X193800000Y-108650000D02*
X193800000Y-108650000D01*
X193700000Y-108650000D02*
G75*
G02*
X193800000Y-108650000I50000J0D01*
G01*
X193800000Y-108650000D02*
G75*
G02*
X193700000Y-108650000I-50000J0D01*
G01*
%TD*%
M02*
