%TF.GenerationSoftware,KiCad,Pcbnew,8.0.8*%
%TF.CreationDate,2025-03-22T13:35:51-05:00*%
%TF.ProjectId,ControllerPCB,436f6e74-726f-46c6-9c65-725043422e6b,rev?*%
%TF.SameCoordinates,Original*%
%TF.FileFunction,Drillmap*%
%TF.FilePolarity,Positive*%
%FSLAX45Y45*%
G04 Gerber Fmt 4.5, Leading zero omitted, Abs format (unit mm)*
G04 Created by KiCad (PCBNEW 8.0.8) date 2025-03-22 13:35:51*
%MOMM*%
%LPD*%
G01*
G04 APERTURE LIST*
%ADD10C,0.050000*%
%ADD11C,0.200000*%
%ADD12C,0.100000*%
%ADD13C,0.320000*%
G04 APERTURE END LIST*
D10*
X20625000Y-14500000D02*
G75*
G02*
X20200000Y-14925000I-425000J0D01*
G01*
X8600000Y-14925000D02*
G75*
G02*
X8175000Y-14500000I0J425000D01*
G01*
X8175000Y-6200000D02*
G75*
G02*
X8600000Y-5775000I425000J0D01*
G01*
X20200000Y-5775000D02*
G75*
G02*
X20625000Y-6200000I0J-425000D01*
G01*
X8600000Y-14925000D02*
X20200000Y-14925000D01*
X8175000Y-6200000D02*
X8175000Y-14500000D01*
X20200000Y-5775000D02*
X8600000Y-5775000D01*
X20625000Y-14500000D02*
X20625000Y-6200000D01*
D11*
D12*
X20085000Y-12360500D02*
X20165000Y-12440500D01*
X20165000Y-12360500D02*
X20085000Y-12440500D01*
X20085000Y-12860500D02*
X20165000Y-12940500D01*
X20165000Y-12860500D02*
X20085000Y-12940500D01*
D13*
X8760000Y-6200000D02*
G75*
G02*
X8440000Y-6200000I-160000J0D01*
G01*
X8440000Y-6200000D02*
G75*
G02*
X8760000Y-6200000I160000J0D01*
G01*
X8760000Y-14500000D02*
G75*
G02*
X8440000Y-14500000I-160000J0D01*
G01*
X8440000Y-14500000D02*
G75*
G02*
X8760000Y-14500000I160000J0D01*
G01*
X20360000Y-6200000D02*
G75*
G02*
X20040000Y-6200000I-160000J0D01*
G01*
X20040000Y-6200000D02*
G75*
G02*
X20360000Y-6200000I160000J0D01*
G01*
X20360000Y-14500000D02*
G75*
G02*
X20040000Y-14500000I-160000J0D01*
G01*
X20040000Y-14500000D02*
G75*
G02*
X20360000Y-14500000I160000J0D01*
G01*
D11*
X8433277Y-15238984D02*
X8433277Y-15038984D01*
X8433277Y-15038984D02*
X8480896Y-15038984D01*
X8480896Y-15038984D02*
X8509467Y-15048508D01*
X8509467Y-15048508D02*
X8528515Y-15067555D01*
X8528515Y-15067555D02*
X8538039Y-15086603D01*
X8538039Y-15086603D02*
X8547563Y-15124698D01*
X8547563Y-15124698D02*
X8547563Y-15153269D01*
X8547563Y-15153269D02*
X8538039Y-15191365D01*
X8538039Y-15191365D02*
X8528515Y-15210412D01*
X8528515Y-15210412D02*
X8509467Y-15229460D01*
X8509467Y-15229460D02*
X8480896Y-15238984D01*
X8480896Y-15238984D02*
X8433277Y-15238984D01*
X8633277Y-15238984D02*
X8633277Y-15105650D01*
X8633277Y-15143746D02*
X8642801Y-15124698D01*
X8642801Y-15124698D02*
X8652324Y-15115174D01*
X8652324Y-15115174D02*
X8671372Y-15105650D01*
X8671372Y-15105650D02*
X8690420Y-15105650D01*
X8757086Y-15238984D02*
X8757086Y-15105650D01*
X8757086Y-15038984D02*
X8747563Y-15048508D01*
X8747563Y-15048508D02*
X8757086Y-15058031D01*
X8757086Y-15058031D02*
X8766610Y-15048508D01*
X8766610Y-15048508D02*
X8757086Y-15038984D01*
X8757086Y-15038984D02*
X8757086Y-15058031D01*
X8880896Y-15238984D02*
X8861848Y-15229460D01*
X8861848Y-15229460D02*
X8852324Y-15210412D01*
X8852324Y-15210412D02*
X8852324Y-15038984D01*
X8985658Y-15238984D02*
X8966610Y-15229460D01*
X8966610Y-15229460D02*
X8957086Y-15210412D01*
X8957086Y-15210412D02*
X8957086Y-15038984D01*
X9214229Y-15238984D02*
X9214229Y-15038984D01*
X9214229Y-15038984D02*
X9280896Y-15181841D01*
X9280896Y-15181841D02*
X9347563Y-15038984D01*
X9347563Y-15038984D02*
X9347563Y-15238984D01*
X9528515Y-15238984D02*
X9528515Y-15134222D01*
X9528515Y-15134222D02*
X9518991Y-15115174D01*
X9518991Y-15115174D02*
X9499944Y-15105650D01*
X9499944Y-15105650D02*
X9461848Y-15105650D01*
X9461848Y-15105650D02*
X9442801Y-15115174D01*
X9528515Y-15229460D02*
X9509467Y-15238984D01*
X9509467Y-15238984D02*
X9461848Y-15238984D01*
X9461848Y-15238984D02*
X9442801Y-15229460D01*
X9442801Y-15229460D02*
X9433277Y-15210412D01*
X9433277Y-15210412D02*
X9433277Y-15191365D01*
X9433277Y-15191365D02*
X9442801Y-15172317D01*
X9442801Y-15172317D02*
X9461848Y-15162793D01*
X9461848Y-15162793D02*
X9509467Y-15162793D01*
X9509467Y-15162793D02*
X9528515Y-15153269D01*
X9623753Y-15105650D02*
X9623753Y-15305650D01*
X9623753Y-15115174D02*
X9642801Y-15105650D01*
X9642801Y-15105650D02*
X9680896Y-15105650D01*
X9680896Y-15105650D02*
X9699944Y-15115174D01*
X9699944Y-15115174D02*
X9709467Y-15124698D01*
X9709467Y-15124698D02*
X9718991Y-15143746D01*
X9718991Y-15143746D02*
X9718991Y-15200888D01*
X9718991Y-15200888D02*
X9709467Y-15219936D01*
X9709467Y-15219936D02*
X9699944Y-15229460D01*
X9699944Y-15229460D02*
X9680896Y-15238984D01*
X9680896Y-15238984D02*
X9642801Y-15238984D01*
X9642801Y-15238984D02*
X9623753Y-15229460D01*
X9804705Y-15219936D02*
X9814229Y-15229460D01*
X9814229Y-15229460D02*
X9804705Y-15238984D01*
X9804705Y-15238984D02*
X9795182Y-15229460D01*
X9795182Y-15229460D02*
X9804705Y-15219936D01*
X9804705Y-15219936D02*
X9804705Y-15238984D01*
X9804705Y-15115174D02*
X9814229Y-15124698D01*
X9814229Y-15124698D02*
X9804705Y-15134222D01*
X9804705Y-15134222D02*
X9795182Y-15124698D01*
X9795182Y-15124698D02*
X9804705Y-15115174D01*
X9804705Y-15115174D02*
X9804705Y-15134222D01*
D12*
X8092500Y-15527500D02*
X8172500Y-15607500D01*
X8172500Y-15527500D02*
X8092500Y-15607500D01*
D11*
X8471372Y-15458984D02*
X8490420Y-15458984D01*
X8490420Y-15458984D02*
X8509467Y-15468508D01*
X8509467Y-15468508D02*
X8518991Y-15478031D01*
X8518991Y-15478031D02*
X8528515Y-15497079D01*
X8528515Y-15497079D02*
X8538039Y-15535174D01*
X8538039Y-15535174D02*
X8538039Y-15582793D01*
X8538039Y-15582793D02*
X8528515Y-15620888D01*
X8528515Y-15620888D02*
X8518991Y-15639936D01*
X8518991Y-15639936D02*
X8509467Y-15649460D01*
X8509467Y-15649460D02*
X8490420Y-15658984D01*
X8490420Y-15658984D02*
X8471372Y-15658984D01*
X8471372Y-15658984D02*
X8452324Y-15649460D01*
X8452324Y-15649460D02*
X8442801Y-15639936D01*
X8442801Y-15639936D02*
X8433277Y-15620888D01*
X8433277Y-15620888D02*
X8423753Y-15582793D01*
X8423753Y-15582793D02*
X8423753Y-15535174D01*
X8423753Y-15535174D02*
X8433277Y-15497079D01*
X8433277Y-15497079D02*
X8442801Y-15478031D01*
X8442801Y-15478031D02*
X8452324Y-15468508D01*
X8452324Y-15468508D02*
X8471372Y-15458984D01*
X8623753Y-15639936D02*
X8633277Y-15649460D01*
X8633277Y-15649460D02*
X8623753Y-15658984D01*
X8623753Y-15658984D02*
X8614229Y-15649460D01*
X8614229Y-15649460D02*
X8623753Y-15639936D01*
X8623753Y-15639936D02*
X8623753Y-15658984D01*
X8747563Y-15544698D02*
X8728515Y-15535174D01*
X8728515Y-15535174D02*
X8718991Y-15525650D01*
X8718991Y-15525650D02*
X8709467Y-15506603D01*
X8709467Y-15506603D02*
X8709467Y-15497079D01*
X8709467Y-15497079D02*
X8718991Y-15478031D01*
X8718991Y-15478031D02*
X8728515Y-15468508D01*
X8728515Y-15468508D02*
X8747563Y-15458984D01*
X8747563Y-15458984D02*
X8785658Y-15458984D01*
X8785658Y-15458984D02*
X8804705Y-15468508D01*
X8804705Y-15468508D02*
X8814229Y-15478031D01*
X8814229Y-15478031D02*
X8823753Y-15497079D01*
X8823753Y-15497079D02*
X8823753Y-15506603D01*
X8823753Y-15506603D02*
X8814229Y-15525650D01*
X8814229Y-15525650D02*
X8804705Y-15535174D01*
X8804705Y-15535174D02*
X8785658Y-15544698D01*
X8785658Y-15544698D02*
X8747563Y-15544698D01*
X8747563Y-15544698D02*
X8728515Y-15554222D01*
X8728515Y-15554222D02*
X8718991Y-15563746D01*
X8718991Y-15563746D02*
X8709467Y-15582793D01*
X8709467Y-15582793D02*
X8709467Y-15620888D01*
X8709467Y-15620888D02*
X8718991Y-15639936D01*
X8718991Y-15639936D02*
X8728515Y-15649460D01*
X8728515Y-15649460D02*
X8747563Y-15658984D01*
X8747563Y-15658984D02*
X8785658Y-15658984D01*
X8785658Y-15658984D02*
X8804705Y-15649460D01*
X8804705Y-15649460D02*
X8814229Y-15639936D01*
X8814229Y-15639936D02*
X8823753Y-15620888D01*
X8823753Y-15620888D02*
X8823753Y-15582793D01*
X8823753Y-15582793D02*
X8814229Y-15563746D01*
X8814229Y-15563746D02*
X8804705Y-15554222D01*
X8804705Y-15554222D02*
X8785658Y-15544698D01*
X8947563Y-15458984D02*
X8966610Y-15458984D01*
X8966610Y-15458984D02*
X8985658Y-15468508D01*
X8985658Y-15468508D02*
X8995182Y-15478031D01*
X8995182Y-15478031D02*
X9004705Y-15497079D01*
X9004705Y-15497079D02*
X9014229Y-15535174D01*
X9014229Y-15535174D02*
X9014229Y-15582793D01*
X9014229Y-15582793D02*
X9004705Y-15620888D01*
X9004705Y-15620888D02*
X8995182Y-15639936D01*
X8995182Y-15639936D02*
X8985658Y-15649460D01*
X8985658Y-15649460D02*
X8966610Y-15658984D01*
X8966610Y-15658984D02*
X8947563Y-15658984D01*
X8947563Y-15658984D02*
X8928515Y-15649460D01*
X8928515Y-15649460D02*
X8918991Y-15639936D01*
X8918991Y-15639936D02*
X8909467Y-15620888D01*
X8909467Y-15620888D02*
X8899944Y-15582793D01*
X8899944Y-15582793D02*
X8899944Y-15535174D01*
X8899944Y-15535174D02*
X8909467Y-15497079D01*
X8909467Y-15497079D02*
X8918991Y-15478031D01*
X8918991Y-15478031D02*
X8928515Y-15468508D01*
X8928515Y-15468508D02*
X8947563Y-15458984D01*
X9138039Y-15458984D02*
X9157086Y-15458984D01*
X9157086Y-15458984D02*
X9176134Y-15468508D01*
X9176134Y-15468508D02*
X9185658Y-15478031D01*
X9185658Y-15478031D02*
X9195182Y-15497079D01*
X9195182Y-15497079D02*
X9204705Y-15535174D01*
X9204705Y-15535174D02*
X9204705Y-15582793D01*
X9204705Y-15582793D02*
X9195182Y-15620888D01*
X9195182Y-15620888D02*
X9185658Y-15639936D01*
X9185658Y-15639936D02*
X9176134Y-15649460D01*
X9176134Y-15649460D02*
X9157086Y-15658984D01*
X9157086Y-15658984D02*
X9138039Y-15658984D01*
X9138039Y-15658984D02*
X9118991Y-15649460D01*
X9118991Y-15649460D02*
X9109467Y-15639936D01*
X9109467Y-15639936D02*
X9099944Y-15620888D01*
X9099944Y-15620888D02*
X9090420Y-15582793D01*
X9090420Y-15582793D02*
X9090420Y-15535174D01*
X9090420Y-15535174D02*
X9099944Y-15497079D01*
X9099944Y-15497079D02*
X9109467Y-15478031D01*
X9109467Y-15478031D02*
X9118991Y-15468508D01*
X9118991Y-15468508D02*
X9138039Y-15458984D01*
X9290420Y-15658984D02*
X9290420Y-15525650D01*
X9290420Y-15544698D02*
X9299944Y-15535174D01*
X9299944Y-15535174D02*
X9318991Y-15525650D01*
X9318991Y-15525650D02*
X9347563Y-15525650D01*
X9347563Y-15525650D02*
X9366610Y-15535174D01*
X9366610Y-15535174D02*
X9376134Y-15554222D01*
X9376134Y-15554222D02*
X9376134Y-15658984D01*
X9376134Y-15554222D02*
X9385658Y-15535174D01*
X9385658Y-15535174D02*
X9404705Y-15525650D01*
X9404705Y-15525650D02*
X9433277Y-15525650D01*
X9433277Y-15525650D02*
X9452325Y-15535174D01*
X9452325Y-15535174D02*
X9461848Y-15554222D01*
X9461848Y-15554222D02*
X9461848Y-15658984D01*
X9557086Y-15658984D02*
X9557086Y-15525650D01*
X9557086Y-15544698D02*
X9566610Y-15535174D01*
X9566610Y-15535174D02*
X9585658Y-15525650D01*
X9585658Y-15525650D02*
X9614229Y-15525650D01*
X9614229Y-15525650D02*
X9633277Y-15535174D01*
X9633277Y-15535174D02*
X9642801Y-15554222D01*
X9642801Y-15554222D02*
X9642801Y-15658984D01*
X9642801Y-15554222D02*
X9652325Y-15535174D01*
X9652325Y-15535174D02*
X9671372Y-15525650D01*
X9671372Y-15525650D02*
X9699944Y-15525650D01*
X9699944Y-15525650D02*
X9718991Y-15535174D01*
X9718991Y-15535174D02*
X9728515Y-15554222D01*
X9728515Y-15554222D02*
X9728515Y-15658984D01*
X10118991Y-15449460D02*
X9947563Y-15706603D01*
X10376134Y-15458984D02*
X10395182Y-15458984D01*
X10395182Y-15458984D02*
X10414229Y-15468508D01*
X10414229Y-15468508D02*
X10423753Y-15478031D01*
X10423753Y-15478031D02*
X10433277Y-15497079D01*
X10433277Y-15497079D02*
X10442801Y-15535174D01*
X10442801Y-15535174D02*
X10442801Y-15582793D01*
X10442801Y-15582793D02*
X10433277Y-15620888D01*
X10433277Y-15620888D02*
X10423753Y-15639936D01*
X10423753Y-15639936D02*
X10414229Y-15649460D01*
X10414229Y-15649460D02*
X10395182Y-15658984D01*
X10395182Y-15658984D02*
X10376134Y-15658984D01*
X10376134Y-15658984D02*
X10357087Y-15649460D01*
X10357087Y-15649460D02*
X10347563Y-15639936D01*
X10347563Y-15639936D02*
X10338039Y-15620888D01*
X10338039Y-15620888D02*
X10328515Y-15582793D01*
X10328515Y-15582793D02*
X10328515Y-15535174D01*
X10328515Y-15535174D02*
X10338039Y-15497079D01*
X10338039Y-15497079D02*
X10347563Y-15478031D01*
X10347563Y-15478031D02*
X10357087Y-15468508D01*
X10357087Y-15468508D02*
X10376134Y-15458984D01*
X10528515Y-15639936D02*
X10538039Y-15649460D01*
X10538039Y-15649460D02*
X10528515Y-15658984D01*
X10528515Y-15658984D02*
X10518991Y-15649460D01*
X10518991Y-15649460D02*
X10528515Y-15639936D01*
X10528515Y-15639936D02*
X10528515Y-15658984D01*
X10661848Y-15458984D02*
X10680896Y-15458984D01*
X10680896Y-15458984D02*
X10699944Y-15468508D01*
X10699944Y-15468508D02*
X10709468Y-15478031D01*
X10709468Y-15478031D02*
X10718991Y-15497079D01*
X10718991Y-15497079D02*
X10728515Y-15535174D01*
X10728515Y-15535174D02*
X10728515Y-15582793D01*
X10728515Y-15582793D02*
X10718991Y-15620888D01*
X10718991Y-15620888D02*
X10709468Y-15639936D01*
X10709468Y-15639936D02*
X10699944Y-15649460D01*
X10699944Y-15649460D02*
X10680896Y-15658984D01*
X10680896Y-15658984D02*
X10661848Y-15658984D01*
X10661848Y-15658984D02*
X10642801Y-15649460D01*
X10642801Y-15649460D02*
X10633277Y-15639936D01*
X10633277Y-15639936D02*
X10623753Y-15620888D01*
X10623753Y-15620888D02*
X10614229Y-15582793D01*
X10614229Y-15582793D02*
X10614229Y-15535174D01*
X10614229Y-15535174D02*
X10623753Y-15497079D01*
X10623753Y-15497079D02*
X10633277Y-15478031D01*
X10633277Y-15478031D02*
X10642801Y-15468508D01*
X10642801Y-15468508D02*
X10661848Y-15458984D01*
X10795182Y-15458984D02*
X10918991Y-15458984D01*
X10918991Y-15458984D02*
X10852325Y-15535174D01*
X10852325Y-15535174D02*
X10880896Y-15535174D01*
X10880896Y-15535174D02*
X10899944Y-15544698D01*
X10899944Y-15544698D02*
X10909468Y-15554222D01*
X10909468Y-15554222D02*
X10918991Y-15573269D01*
X10918991Y-15573269D02*
X10918991Y-15620888D01*
X10918991Y-15620888D02*
X10909468Y-15639936D01*
X10909468Y-15639936D02*
X10899944Y-15649460D01*
X10899944Y-15649460D02*
X10880896Y-15658984D01*
X10880896Y-15658984D02*
X10823753Y-15658984D01*
X10823753Y-15658984D02*
X10804706Y-15649460D01*
X10804706Y-15649460D02*
X10795182Y-15639936D01*
X11109468Y-15658984D02*
X10995182Y-15658984D01*
X11052325Y-15658984D02*
X11052325Y-15458984D01*
X11052325Y-15458984D02*
X11033277Y-15487555D01*
X11033277Y-15487555D02*
X11014229Y-15506603D01*
X11014229Y-15506603D02*
X10995182Y-15516127D01*
X11290420Y-15458984D02*
X11195182Y-15458984D01*
X11195182Y-15458984D02*
X11185658Y-15554222D01*
X11185658Y-15554222D02*
X11195182Y-15544698D01*
X11195182Y-15544698D02*
X11214229Y-15535174D01*
X11214229Y-15535174D02*
X11261848Y-15535174D01*
X11261848Y-15535174D02*
X11280896Y-15544698D01*
X11280896Y-15544698D02*
X11290420Y-15554222D01*
X11290420Y-15554222D02*
X11299944Y-15573269D01*
X11299944Y-15573269D02*
X11299944Y-15620888D01*
X11299944Y-15620888D02*
X11290420Y-15639936D01*
X11290420Y-15639936D02*
X11280896Y-15649460D01*
X11280896Y-15649460D02*
X11261848Y-15658984D01*
X11261848Y-15658984D02*
X11214229Y-15658984D01*
X11214229Y-15658984D02*
X11195182Y-15649460D01*
X11195182Y-15649460D02*
X11185658Y-15639936D01*
X11376134Y-15458984D02*
X11376134Y-15497079D01*
X11452325Y-15458984D02*
X11452325Y-15497079D01*
X11747563Y-15735174D02*
X11738039Y-15725650D01*
X11738039Y-15725650D02*
X11718991Y-15697079D01*
X11718991Y-15697079D02*
X11709468Y-15678031D01*
X11709468Y-15678031D02*
X11699944Y-15649460D01*
X11699944Y-15649460D02*
X11690420Y-15601841D01*
X11690420Y-15601841D02*
X11690420Y-15563746D01*
X11690420Y-15563746D02*
X11699944Y-15516127D01*
X11699944Y-15516127D02*
X11709468Y-15487555D01*
X11709468Y-15487555D02*
X11718991Y-15468508D01*
X11718991Y-15468508D02*
X11738039Y-15439936D01*
X11738039Y-15439936D02*
X11747563Y-15430412D01*
X11814229Y-15478031D02*
X11823753Y-15468508D01*
X11823753Y-15468508D02*
X11842801Y-15458984D01*
X11842801Y-15458984D02*
X11890420Y-15458984D01*
X11890420Y-15458984D02*
X11909468Y-15468508D01*
X11909468Y-15468508D02*
X11918991Y-15478031D01*
X11918991Y-15478031D02*
X11928515Y-15497079D01*
X11928515Y-15497079D02*
X11928515Y-15516127D01*
X11928515Y-15516127D02*
X11918991Y-15544698D01*
X11918991Y-15544698D02*
X11804706Y-15658984D01*
X11804706Y-15658984D02*
X11928515Y-15658984D01*
X12166610Y-15658984D02*
X12166610Y-15458984D01*
X12252325Y-15658984D02*
X12252325Y-15554222D01*
X12252325Y-15554222D02*
X12242801Y-15535174D01*
X12242801Y-15535174D02*
X12223753Y-15525650D01*
X12223753Y-15525650D02*
X12195182Y-15525650D01*
X12195182Y-15525650D02*
X12176134Y-15535174D01*
X12176134Y-15535174D02*
X12166610Y-15544698D01*
X12376134Y-15658984D02*
X12357087Y-15649460D01*
X12357087Y-15649460D02*
X12347563Y-15639936D01*
X12347563Y-15639936D02*
X12338039Y-15620888D01*
X12338039Y-15620888D02*
X12338039Y-15563746D01*
X12338039Y-15563746D02*
X12347563Y-15544698D01*
X12347563Y-15544698D02*
X12357087Y-15535174D01*
X12357087Y-15535174D02*
X12376134Y-15525650D01*
X12376134Y-15525650D02*
X12404706Y-15525650D01*
X12404706Y-15525650D02*
X12423753Y-15535174D01*
X12423753Y-15535174D02*
X12433277Y-15544698D01*
X12433277Y-15544698D02*
X12442801Y-15563746D01*
X12442801Y-15563746D02*
X12442801Y-15620888D01*
X12442801Y-15620888D02*
X12433277Y-15639936D01*
X12433277Y-15639936D02*
X12423753Y-15649460D01*
X12423753Y-15649460D02*
X12404706Y-15658984D01*
X12404706Y-15658984D02*
X12376134Y-15658984D01*
X12557087Y-15658984D02*
X12538039Y-15649460D01*
X12538039Y-15649460D02*
X12528515Y-15630412D01*
X12528515Y-15630412D02*
X12528515Y-15458984D01*
X12709468Y-15649460D02*
X12690420Y-15658984D01*
X12690420Y-15658984D02*
X12652325Y-15658984D01*
X12652325Y-15658984D02*
X12633277Y-15649460D01*
X12633277Y-15649460D02*
X12623753Y-15630412D01*
X12623753Y-15630412D02*
X12623753Y-15554222D01*
X12623753Y-15554222D02*
X12633277Y-15535174D01*
X12633277Y-15535174D02*
X12652325Y-15525650D01*
X12652325Y-15525650D02*
X12690420Y-15525650D01*
X12690420Y-15525650D02*
X12709468Y-15535174D01*
X12709468Y-15535174D02*
X12718991Y-15554222D01*
X12718991Y-15554222D02*
X12718991Y-15573269D01*
X12718991Y-15573269D02*
X12623753Y-15592317D01*
X12795182Y-15649460D02*
X12814230Y-15658984D01*
X12814230Y-15658984D02*
X12852325Y-15658984D01*
X12852325Y-15658984D02*
X12871372Y-15649460D01*
X12871372Y-15649460D02*
X12880896Y-15630412D01*
X12880896Y-15630412D02*
X12880896Y-15620888D01*
X12880896Y-15620888D02*
X12871372Y-15601841D01*
X12871372Y-15601841D02*
X12852325Y-15592317D01*
X12852325Y-15592317D02*
X12823753Y-15592317D01*
X12823753Y-15592317D02*
X12804706Y-15582793D01*
X12804706Y-15582793D02*
X12795182Y-15563746D01*
X12795182Y-15563746D02*
X12795182Y-15554222D01*
X12795182Y-15554222D02*
X12804706Y-15535174D01*
X12804706Y-15535174D02*
X12823753Y-15525650D01*
X12823753Y-15525650D02*
X12852325Y-15525650D01*
X12852325Y-15525650D02*
X12871372Y-15535174D01*
X12947563Y-15735174D02*
X12957087Y-15725650D01*
X12957087Y-15725650D02*
X12976134Y-15697079D01*
X12976134Y-15697079D02*
X12985658Y-15678031D01*
X12985658Y-15678031D02*
X12995182Y-15649460D01*
X12995182Y-15649460D02*
X13004706Y-15601841D01*
X13004706Y-15601841D02*
X13004706Y-15563746D01*
X13004706Y-15563746D02*
X12995182Y-15516127D01*
X12995182Y-15516127D02*
X12985658Y-15487555D01*
X12985658Y-15487555D02*
X12976134Y-15468508D01*
X12976134Y-15468508D02*
X12957087Y-15439936D01*
X12957087Y-15439936D02*
X12947563Y-15430412D01*
X13309468Y-15735174D02*
X13299944Y-15725650D01*
X13299944Y-15725650D02*
X13280896Y-15697079D01*
X13280896Y-15697079D02*
X13271372Y-15678031D01*
X13271372Y-15678031D02*
X13261849Y-15649460D01*
X13261849Y-15649460D02*
X13252325Y-15601841D01*
X13252325Y-15601841D02*
X13252325Y-15563746D01*
X13252325Y-15563746D02*
X13261849Y-15516127D01*
X13261849Y-15516127D02*
X13271372Y-15487555D01*
X13271372Y-15487555D02*
X13280896Y-15468508D01*
X13280896Y-15468508D02*
X13299944Y-15439936D01*
X13299944Y-15439936D02*
X13309468Y-15430412D01*
X13385658Y-15525650D02*
X13385658Y-15658984D01*
X13385658Y-15544698D02*
X13395182Y-15535174D01*
X13395182Y-15535174D02*
X13414230Y-15525650D01*
X13414230Y-15525650D02*
X13442801Y-15525650D01*
X13442801Y-15525650D02*
X13461849Y-15535174D01*
X13461849Y-15535174D02*
X13471372Y-15554222D01*
X13471372Y-15554222D02*
X13471372Y-15658984D01*
X13595182Y-15658984D02*
X13576134Y-15649460D01*
X13576134Y-15649460D02*
X13566611Y-15639936D01*
X13566611Y-15639936D02*
X13557087Y-15620888D01*
X13557087Y-15620888D02*
X13557087Y-15563746D01*
X13557087Y-15563746D02*
X13566611Y-15544698D01*
X13566611Y-15544698D02*
X13576134Y-15535174D01*
X13576134Y-15535174D02*
X13595182Y-15525650D01*
X13595182Y-15525650D02*
X13623753Y-15525650D01*
X13623753Y-15525650D02*
X13642801Y-15535174D01*
X13642801Y-15535174D02*
X13652325Y-15544698D01*
X13652325Y-15544698D02*
X13661849Y-15563746D01*
X13661849Y-15563746D02*
X13661849Y-15620888D01*
X13661849Y-15620888D02*
X13652325Y-15639936D01*
X13652325Y-15639936D02*
X13642801Y-15649460D01*
X13642801Y-15649460D02*
X13623753Y-15658984D01*
X13623753Y-15658984D02*
X13595182Y-15658984D01*
X13718992Y-15525650D02*
X13795182Y-15525650D01*
X13747563Y-15458984D02*
X13747563Y-15630412D01*
X13747563Y-15630412D02*
X13757087Y-15649460D01*
X13757087Y-15649460D02*
X13776134Y-15658984D01*
X13776134Y-15658984D02*
X13795182Y-15658984D01*
X14014230Y-15525650D02*
X14014230Y-15725650D01*
X14014230Y-15535174D02*
X14033277Y-15525650D01*
X14033277Y-15525650D02*
X14071373Y-15525650D01*
X14071373Y-15525650D02*
X14090420Y-15535174D01*
X14090420Y-15535174D02*
X14099944Y-15544698D01*
X14099944Y-15544698D02*
X14109468Y-15563746D01*
X14109468Y-15563746D02*
X14109468Y-15620888D01*
X14109468Y-15620888D02*
X14099944Y-15639936D01*
X14099944Y-15639936D02*
X14090420Y-15649460D01*
X14090420Y-15649460D02*
X14071373Y-15658984D01*
X14071373Y-15658984D02*
X14033277Y-15658984D01*
X14033277Y-15658984D02*
X14014230Y-15649460D01*
X14223753Y-15658984D02*
X14204706Y-15649460D01*
X14204706Y-15649460D02*
X14195182Y-15630412D01*
X14195182Y-15630412D02*
X14195182Y-15458984D01*
X14385658Y-15658984D02*
X14385658Y-15554222D01*
X14385658Y-15554222D02*
X14376134Y-15535174D01*
X14376134Y-15535174D02*
X14357087Y-15525650D01*
X14357087Y-15525650D02*
X14318992Y-15525650D01*
X14318992Y-15525650D02*
X14299944Y-15535174D01*
X14385658Y-15649460D02*
X14366611Y-15658984D01*
X14366611Y-15658984D02*
X14318992Y-15658984D01*
X14318992Y-15658984D02*
X14299944Y-15649460D01*
X14299944Y-15649460D02*
X14290420Y-15630412D01*
X14290420Y-15630412D02*
X14290420Y-15611365D01*
X14290420Y-15611365D02*
X14299944Y-15592317D01*
X14299944Y-15592317D02*
X14318992Y-15582793D01*
X14318992Y-15582793D02*
X14366611Y-15582793D01*
X14366611Y-15582793D02*
X14385658Y-15573269D01*
X14452325Y-15525650D02*
X14528515Y-15525650D01*
X14480896Y-15458984D02*
X14480896Y-15630412D01*
X14480896Y-15630412D02*
X14490420Y-15649460D01*
X14490420Y-15649460D02*
X14509468Y-15658984D01*
X14509468Y-15658984D02*
X14528515Y-15658984D01*
X14671373Y-15649460D02*
X14652325Y-15658984D01*
X14652325Y-15658984D02*
X14614230Y-15658984D01*
X14614230Y-15658984D02*
X14595182Y-15649460D01*
X14595182Y-15649460D02*
X14585658Y-15630412D01*
X14585658Y-15630412D02*
X14585658Y-15554222D01*
X14585658Y-15554222D02*
X14595182Y-15535174D01*
X14595182Y-15535174D02*
X14614230Y-15525650D01*
X14614230Y-15525650D02*
X14652325Y-15525650D01*
X14652325Y-15525650D02*
X14671373Y-15535174D01*
X14671373Y-15535174D02*
X14680896Y-15554222D01*
X14680896Y-15554222D02*
X14680896Y-15573269D01*
X14680896Y-15573269D02*
X14585658Y-15592317D01*
X14852325Y-15658984D02*
X14852325Y-15458984D01*
X14852325Y-15649460D02*
X14833277Y-15658984D01*
X14833277Y-15658984D02*
X14795182Y-15658984D01*
X14795182Y-15658984D02*
X14776134Y-15649460D01*
X14776134Y-15649460D02*
X14766611Y-15639936D01*
X14766611Y-15639936D02*
X14757087Y-15620888D01*
X14757087Y-15620888D02*
X14757087Y-15563746D01*
X14757087Y-15563746D02*
X14766611Y-15544698D01*
X14766611Y-15544698D02*
X14776134Y-15535174D01*
X14776134Y-15535174D02*
X14795182Y-15525650D01*
X14795182Y-15525650D02*
X14833277Y-15525650D01*
X14833277Y-15525650D02*
X14852325Y-15535174D01*
X14928515Y-15735174D02*
X14938039Y-15725650D01*
X14938039Y-15725650D02*
X14957087Y-15697079D01*
X14957087Y-15697079D02*
X14966611Y-15678031D01*
X14966611Y-15678031D02*
X14976134Y-15649460D01*
X14976134Y-15649460D02*
X14985658Y-15601841D01*
X14985658Y-15601841D02*
X14985658Y-15563746D01*
X14985658Y-15563746D02*
X14976134Y-15516127D01*
X14976134Y-15516127D02*
X14966611Y-15487555D01*
X14966611Y-15487555D02*
X14957087Y-15468508D01*
X14957087Y-15468508D02*
X14938039Y-15439936D01*
X14938039Y-15439936D02*
X14928515Y-15430412D01*
X8172500Y-15831500D02*
G75*
G02*
X7972500Y-15831500I-100000J0D01*
G01*
X7972500Y-15831500D02*
G75*
G02*
X8172500Y-15831500I100000J0D01*
G01*
X8414229Y-15722984D02*
X8538039Y-15722984D01*
X8538039Y-15722984D02*
X8471372Y-15799174D01*
X8471372Y-15799174D02*
X8499944Y-15799174D01*
X8499944Y-15799174D02*
X8518991Y-15808698D01*
X8518991Y-15808698D02*
X8528515Y-15818222D01*
X8528515Y-15818222D02*
X8538039Y-15837269D01*
X8538039Y-15837269D02*
X8538039Y-15884888D01*
X8538039Y-15884888D02*
X8528515Y-15903936D01*
X8528515Y-15903936D02*
X8518991Y-15913460D01*
X8518991Y-15913460D02*
X8499944Y-15922984D01*
X8499944Y-15922984D02*
X8442801Y-15922984D01*
X8442801Y-15922984D02*
X8423753Y-15913460D01*
X8423753Y-15913460D02*
X8414229Y-15903936D01*
X8623753Y-15903936D02*
X8633277Y-15913460D01*
X8633277Y-15913460D02*
X8623753Y-15922984D01*
X8623753Y-15922984D02*
X8614229Y-15913460D01*
X8614229Y-15913460D02*
X8623753Y-15903936D01*
X8623753Y-15903936D02*
X8623753Y-15922984D01*
X8709467Y-15742031D02*
X8718991Y-15732508D01*
X8718991Y-15732508D02*
X8738039Y-15722984D01*
X8738039Y-15722984D02*
X8785658Y-15722984D01*
X8785658Y-15722984D02*
X8804705Y-15732508D01*
X8804705Y-15732508D02*
X8814229Y-15742031D01*
X8814229Y-15742031D02*
X8823753Y-15761079D01*
X8823753Y-15761079D02*
X8823753Y-15780127D01*
X8823753Y-15780127D02*
X8814229Y-15808698D01*
X8814229Y-15808698D02*
X8699944Y-15922984D01*
X8699944Y-15922984D02*
X8823753Y-15922984D01*
X8947563Y-15722984D02*
X8966610Y-15722984D01*
X8966610Y-15722984D02*
X8985658Y-15732508D01*
X8985658Y-15732508D02*
X8995182Y-15742031D01*
X8995182Y-15742031D02*
X9004705Y-15761079D01*
X9004705Y-15761079D02*
X9014229Y-15799174D01*
X9014229Y-15799174D02*
X9014229Y-15846793D01*
X9014229Y-15846793D02*
X9004705Y-15884888D01*
X9004705Y-15884888D02*
X8995182Y-15903936D01*
X8995182Y-15903936D02*
X8985658Y-15913460D01*
X8985658Y-15913460D02*
X8966610Y-15922984D01*
X8966610Y-15922984D02*
X8947563Y-15922984D01*
X8947563Y-15922984D02*
X8928515Y-15913460D01*
X8928515Y-15913460D02*
X8918991Y-15903936D01*
X8918991Y-15903936D02*
X8909467Y-15884888D01*
X8909467Y-15884888D02*
X8899944Y-15846793D01*
X8899944Y-15846793D02*
X8899944Y-15799174D01*
X8899944Y-15799174D02*
X8909467Y-15761079D01*
X8909467Y-15761079D02*
X8918991Y-15742031D01*
X8918991Y-15742031D02*
X8928515Y-15732508D01*
X8928515Y-15732508D02*
X8947563Y-15722984D01*
X9138039Y-15722984D02*
X9157086Y-15722984D01*
X9157086Y-15722984D02*
X9176134Y-15732508D01*
X9176134Y-15732508D02*
X9185658Y-15742031D01*
X9185658Y-15742031D02*
X9195182Y-15761079D01*
X9195182Y-15761079D02*
X9204705Y-15799174D01*
X9204705Y-15799174D02*
X9204705Y-15846793D01*
X9204705Y-15846793D02*
X9195182Y-15884888D01*
X9195182Y-15884888D02*
X9185658Y-15903936D01*
X9185658Y-15903936D02*
X9176134Y-15913460D01*
X9176134Y-15913460D02*
X9157086Y-15922984D01*
X9157086Y-15922984D02*
X9138039Y-15922984D01*
X9138039Y-15922984D02*
X9118991Y-15913460D01*
X9118991Y-15913460D02*
X9109467Y-15903936D01*
X9109467Y-15903936D02*
X9099944Y-15884888D01*
X9099944Y-15884888D02*
X9090420Y-15846793D01*
X9090420Y-15846793D02*
X9090420Y-15799174D01*
X9090420Y-15799174D02*
X9099944Y-15761079D01*
X9099944Y-15761079D02*
X9109467Y-15742031D01*
X9109467Y-15742031D02*
X9118991Y-15732508D01*
X9118991Y-15732508D02*
X9138039Y-15722984D01*
X9290420Y-15922984D02*
X9290420Y-15789650D01*
X9290420Y-15808698D02*
X9299944Y-15799174D01*
X9299944Y-15799174D02*
X9318991Y-15789650D01*
X9318991Y-15789650D02*
X9347563Y-15789650D01*
X9347563Y-15789650D02*
X9366610Y-15799174D01*
X9366610Y-15799174D02*
X9376134Y-15818222D01*
X9376134Y-15818222D02*
X9376134Y-15922984D01*
X9376134Y-15818222D02*
X9385658Y-15799174D01*
X9385658Y-15799174D02*
X9404705Y-15789650D01*
X9404705Y-15789650D02*
X9433277Y-15789650D01*
X9433277Y-15789650D02*
X9452325Y-15799174D01*
X9452325Y-15799174D02*
X9461848Y-15818222D01*
X9461848Y-15818222D02*
X9461848Y-15922984D01*
X9557086Y-15922984D02*
X9557086Y-15789650D01*
X9557086Y-15808698D02*
X9566610Y-15799174D01*
X9566610Y-15799174D02*
X9585658Y-15789650D01*
X9585658Y-15789650D02*
X9614229Y-15789650D01*
X9614229Y-15789650D02*
X9633277Y-15799174D01*
X9633277Y-15799174D02*
X9642801Y-15818222D01*
X9642801Y-15818222D02*
X9642801Y-15922984D01*
X9642801Y-15818222D02*
X9652325Y-15799174D01*
X9652325Y-15799174D02*
X9671372Y-15789650D01*
X9671372Y-15789650D02*
X9699944Y-15789650D01*
X9699944Y-15789650D02*
X9718991Y-15799174D01*
X9718991Y-15799174D02*
X9728515Y-15818222D01*
X9728515Y-15818222D02*
X9728515Y-15922984D01*
X10118991Y-15713460D02*
X9947563Y-15970603D01*
X10376134Y-15722984D02*
X10395182Y-15722984D01*
X10395182Y-15722984D02*
X10414229Y-15732508D01*
X10414229Y-15732508D02*
X10423753Y-15742031D01*
X10423753Y-15742031D02*
X10433277Y-15761079D01*
X10433277Y-15761079D02*
X10442801Y-15799174D01*
X10442801Y-15799174D02*
X10442801Y-15846793D01*
X10442801Y-15846793D02*
X10433277Y-15884888D01*
X10433277Y-15884888D02*
X10423753Y-15903936D01*
X10423753Y-15903936D02*
X10414229Y-15913460D01*
X10414229Y-15913460D02*
X10395182Y-15922984D01*
X10395182Y-15922984D02*
X10376134Y-15922984D01*
X10376134Y-15922984D02*
X10357087Y-15913460D01*
X10357087Y-15913460D02*
X10347563Y-15903936D01*
X10347563Y-15903936D02*
X10338039Y-15884888D01*
X10338039Y-15884888D02*
X10328515Y-15846793D01*
X10328515Y-15846793D02*
X10328515Y-15799174D01*
X10328515Y-15799174D02*
X10338039Y-15761079D01*
X10338039Y-15761079D02*
X10347563Y-15742031D01*
X10347563Y-15742031D02*
X10357087Y-15732508D01*
X10357087Y-15732508D02*
X10376134Y-15722984D01*
X10528515Y-15903936D02*
X10538039Y-15913460D01*
X10538039Y-15913460D02*
X10528515Y-15922984D01*
X10528515Y-15922984D02*
X10518991Y-15913460D01*
X10518991Y-15913460D02*
X10528515Y-15903936D01*
X10528515Y-15903936D02*
X10528515Y-15922984D01*
X10728515Y-15922984D02*
X10614229Y-15922984D01*
X10671372Y-15922984D02*
X10671372Y-15722984D01*
X10671372Y-15722984D02*
X10652325Y-15751555D01*
X10652325Y-15751555D02*
X10633277Y-15770603D01*
X10633277Y-15770603D02*
X10614229Y-15780127D01*
X10804706Y-15742031D02*
X10814229Y-15732508D01*
X10814229Y-15732508D02*
X10833277Y-15722984D01*
X10833277Y-15722984D02*
X10880896Y-15722984D01*
X10880896Y-15722984D02*
X10899944Y-15732508D01*
X10899944Y-15732508D02*
X10909468Y-15742031D01*
X10909468Y-15742031D02*
X10918991Y-15761079D01*
X10918991Y-15761079D02*
X10918991Y-15780127D01*
X10918991Y-15780127D02*
X10909468Y-15808698D01*
X10909468Y-15808698D02*
X10795182Y-15922984D01*
X10795182Y-15922984D02*
X10918991Y-15922984D01*
X11090420Y-15722984D02*
X11052325Y-15722984D01*
X11052325Y-15722984D02*
X11033277Y-15732508D01*
X11033277Y-15732508D02*
X11023753Y-15742031D01*
X11023753Y-15742031D02*
X11004706Y-15770603D01*
X11004706Y-15770603D02*
X10995182Y-15808698D01*
X10995182Y-15808698D02*
X10995182Y-15884888D01*
X10995182Y-15884888D02*
X11004706Y-15903936D01*
X11004706Y-15903936D02*
X11014229Y-15913460D01*
X11014229Y-15913460D02*
X11033277Y-15922984D01*
X11033277Y-15922984D02*
X11071372Y-15922984D01*
X11071372Y-15922984D02*
X11090420Y-15913460D01*
X11090420Y-15913460D02*
X11099944Y-15903936D01*
X11099944Y-15903936D02*
X11109468Y-15884888D01*
X11109468Y-15884888D02*
X11109468Y-15837269D01*
X11109468Y-15837269D02*
X11099944Y-15818222D01*
X11099944Y-15818222D02*
X11090420Y-15808698D01*
X11090420Y-15808698D02*
X11071372Y-15799174D01*
X11071372Y-15799174D02*
X11033277Y-15799174D01*
X11033277Y-15799174D02*
X11014229Y-15808698D01*
X11014229Y-15808698D02*
X11004706Y-15818222D01*
X11004706Y-15818222D02*
X10995182Y-15837269D01*
X11233277Y-15722984D02*
X11252325Y-15722984D01*
X11252325Y-15722984D02*
X11271372Y-15732508D01*
X11271372Y-15732508D02*
X11280896Y-15742031D01*
X11280896Y-15742031D02*
X11290420Y-15761079D01*
X11290420Y-15761079D02*
X11299944Y-15799174D01*
X11299944Y-15799174D02*
X11299944Y-15846793D01*
X11299944Y-15846793D02*
X11290420Y-15884888D01*
X11290420Y-15884888D02*
X11280896Y-15903936D01*
X11280896Y-15903936D02*
X11271372Y-15913460D01*
X11271372Y-15913460D02*
X11252325Y-15922984D01*
X11252325Y-15922984D02*
X11233277Y-15922984D01*
X11233277Y-15922984D02*
X11214229Y-15913460D01*
X11214229Y-15913460D02*
X11204706Y-15903936D01*
X11204706Y-15903936D02*
X11195182Y-15884888D01*
X11195182Y-15884888D02*
X11185658Y-15846793D01*
X11185658Y-15846793D02*
X11185658Y-15799174D01*
X11185658Y-15799174D02*
X11195182Y-15761079D01*
X11195182Y-15761079D02*
X11204706Y-15742031D01*
X11204706Y-15742031D02*
X11214229Y-15732508D01*
X11214229Y-15732508D02*
X11233277Y-15722984D01*
X11376134Y-15722984D02*
X11376134Y-15761079D01*
X11452325Y-15722984D02*
X11452325Y-15761079D01*
X11747563Y-15999174D02*
X11738039Y-15989650D01*
X11738039Y-15989650D02*
X11718991Y-15961079D01*
X11718991Y-15961079D02*
X11709468Y-15942031D01*
X11709468Y-15942031D02*
X11699944Y-15913460D01*
X11699944Y-15913460D02*
X11690420Y-15865841D01*
X11690420Y-15865841D02*
X11690420Y-15827746D01*
X11690420Y-15827746D02*
X11699944Y-15780127D01*
X11699944Y-15780127D02*
X11709468Y-15751555D01*
X11709468Y-15751555D02*
X11718991Y-15732508D01*
X11718991Y-15732508D02*
X11738039Y-15703936D01*
X11738039Y-15703936D02*
X11747563Y-15694412D01*
X11909468Y-15789650D02*
X11909468Y-15922984D01*
X11861848Y-15713460D02*
X11814229Y-15856317D01*
X11814229Y-15856317D02*
X11938039Y-15856317D01*
X12166610Y-15922984D02*
X12166610Y-15722984D01*
X12252325Y-15922984D02*
X12252325Y-15818222D01*
X12252325Y-15818222D02*
X12242801Y-15799174D01*
X12242801Y-15799174D02*
X12223753Y-15789650D01*
X12223753Y-15789650D02*
X12195182Y-15789650D01*
X12195182Y-15789650D02*
X12176134Y-15799174D01*
X12176134Y-15799174D02*
X12166610Y-15808698D01*
X12376134Y-15922984D02*
X12357087Y-15913460D01*
X12357087Y-15913460D02*
X12347563Y-15903936D01*
X12347563Y-15903936D02*
X12338039Y-15884888D01*
X12338039Y-15884888D02*
X12338039Y-15827746D01*
X12338039Y-15827746D02*
X12347563Y-15808698D01*
X12347563Y-15808698D02*
X12357087Y-15799174D01*
X12357087Y-15799174D02*
X12376134Y-15789650D01*
X12376134Y-15789650D02*
X12404706Y-15789650D01*
X12404706Y-15789650D02*
X12423753Y-15799174D01*
X12423753Y-15799174D02*
X12433277Y-15808698D01*
X12433277Y-15808698D02*
X12442801Y-15827746D01*
X12442801Y-15827746D02*
X12442801Y-15884888D01*
X12442801Y-15884888D02*
X12433277Y-15903936D01*
X12433277Y-15903936D02*
X12423753Y-15913460D01*
X12423753Y-15913460D02*
X12404706Y-15922984D01*
X12404706Y-15922984D02*
X12376134Y-15922984D01*
X12557087Y-15922984D02*
X12538039Y-15913460D01*
X12538039Y-15913460D02*
X12528515Y-15894412D01*
X12528515Y-15894412D02*
X12528515Y-15722984D01*
X12709468Y-15913460D02*
X12690420Y-15922984D01*
X12690420Y-15922984D02*
X12652325Y-15922984D01*
X12652325Y-15922984D02*
X12633277Y-15913460D01*
X12633277Y-15913460D02*
X12623753Y-15894412D01*
X12623753Y-15894412D02*
X12623753Y-15818222D01*
X12623753Y-15818222D02*
X12633277Y-15799174D01*
X12633277Y-15799174D02*
X12652325Y-15789650D01*
X12652325Y-15789650D02*
X12690420Y-15789650D01*
X12690420Y-15789650D02*
X12709468Y-15799174D01*
X12709468Y-15799174D02*
X12718991Y-15818222D01*
X12718991Y-15818222D02*
X12718991Y-15837269D01*
X12718991Y-15837269D02*
X12623753Y-15856317D01*
X12795182Y-15913460D02*
X12814230Y-15922984D01*
X12814230Y-15922984D02*
X12852325Y-15922984D01*
X12852325Y-15922984D02*
X12871372Y-15913460D01*
X12871372Y-15913460D02*
X12880896Y-15894412D01*
X12880896Y-15894412D02*
X12880896Y-15884888D01*
X12880896Y-15884888D02*
X12871372Y-15865841D01*
X12871372Y-15865841D02*
X12852325Y-15856317D01*
X12852325Y-15856317D02*
X12823753Y-15856317D01*
X12823753Y-15856317D02*
X12804706Y-15846793D01*
X12804706Y-15846793D02*
X12795182Y-15827746D01*
X12795182Y-15827746D02*
X12795182Y-15818222D01*
X12795182Y-15818222D02*
X12804706Y-15799174D01*
X12804706Y-15799174D02*
X12823753Y-15789650D01*
X12823753Y-15789650D02*
X12852325Y-15789650D01*
X12852325Y-15789650D02*
X12871372Y-15799174D01*
X12947563Y-15999174D02*
X12957087Y-15989650D01*
X12957087Y-15989650D02*
X12976134Y-15961079D01*
X12976134Y-15961079D02*
X12985658Y-15942031D01*
X12985658Y-15942031D02*
X12995182Y-15913460D01*
X12995182Y-15913460D02*
X13004706Y-15865841D01*
X13004706Y-15865841D02*
X13004706Y-15827746D01*
X13004706Y-15827746D02*
X12995182Y-15780127D01*
X12995182Y-15780127D02*
X12985658Y-15751555D01*
X12985658Y-15751555D02*
X12976134Y-15732508D01*
X12976134Y-15732508D02*
X12957087Y-15703936D01*
X12957087Y-15703936D02*
X12947563Y-15694412D01*
X13309468Y-15999174D02*
X13299944Y-15989650D01*
X13299944Y-15989650D02*
X13280896Y-15961079D01*
X13280896Y-15961079D02*
X13271372Y-15942031D01*
X13271372Y-15942031D02*
X13261849Y-15913460D01*
X13261849Y-15913460D02*
X13252325Y-15865841D01*
X13252325Y-15865841D02*
X13252325Y-15827746D01*
X13252325Y-15827746D02*
X13261849Y-15780127D01*
X13261849Y-15780127D02*
X13271372Y-15751555D01*
X13271372Y-15751555D02*
X13280896Y-15732508D01*
X13280896Y-15732508D02*
X13299944Y-15703936D01*
X13299944Y-15703936D02*
X13309468Y-15694412D01*
X13385658Y-15789650D02*
X13385658Y-15922984D01*
X13385658Y-15808698D02*
X13395182Y-15799174D01*
X13395182Y-15799174D02*
X13414230Y-15789650D01*
X13414230Y-15789650D02*
X13442801Y-15789650D01*
X13442801Y-15789650D02*
X13461849Y-15799174D01*
X13461849Y-15799174D02*
X13471372Y-15818222D01*
X13471372Y-15818222D02*
X13471372Y-15922984D01*
X13595182Y-15922984D02*
X13576134Y-15913460D01*
X13576134Y-15913460D02*
X13566611Y-15903936D01*
X13566611Y-15903936D02*
X13557087Y-15884888D01*
X13557087Y-15884888D02*
X13557087Y-15827746D01*
X13557087Y-15827746D02*
X13566611Y-15808698D01*
X13566611Y-15808698D02*
X13576134Y-15799174D01*
X13576134Y-15799174D02*
X13595182Y-15789650D01*
X13595182Y-15789650D02*
X13623753Y-15789650D01*
X13623753Y-15789650D02*
X13642801Y-15799174D01*
X13642801Y-15799174D02*
X13652325Y-15808698D01*
X13652325Y-15808698D02*
X13661849Y-15827746D01*
X13661849Y-15827746D02*
X13661849Y-15884888D01*
X13661849Y-15884888D02*
X13652325Y-15903936D01*
X13652325Y-15903936D02*
X13642801Y-15913460D01*
X13642801Y-15913460D02*
X13623753Y-15922984D01*
X13623753Y-15922984D02*
X13595182Y-15922984D01*
X13718992Y-15789650D02*
X13795182Y-15789650D01*
X13747563Y-15722984D02*
X13747563Y-15894412D01*
X13747563Y-15894412D02*
X13757087Y-15913460D01*
X13757087Y-15913460D02*
X13776134Y-15922984D01*
X13776134Y-15922984D02*
X13795182Y-15922984D01*
X14014230Y-15789650D02*
X14014230Y-15989650D01*
X14014230Y-15799174D02*
X14033277Y-15789650D01*
X14033277Y-15789650D02*
X14071373Y-15789650D01*
X14071373Y-15789650D02*
X14090420Y-15799174D01*
X14090420Y-15799174D02*
X14099944Y-15808698D01*
X14099944Y-15808698D02*
X14109468Y-15827746D01*
X14109468Y-15827746D02*
X14109468Y-15884888D01*
X14109468Y-15884888D02*
X14099944Y-15903936D01*
X14099944Y-15903936D02*
X14090420Y-15913460D01*
X14090420Y-15913460D02*
X14071373Y-15922984D01*
X14071373Y-15922984D02*
X14033277Y-15922984D01*
X14033277Y-15922984D02*
X14014230Y-15913460D01*
X14223753Y-15922984D02*
X14204706Y-15913460D01*
X14204706Y-15913460D02*
X14195182Y-15894412D01*
X14195182Y-15894412D02*
X14195182Y-15722984D01*
X14385658Y-15922984D02*
X14385658Y-15818222D01*
X14385658Y-15818222D02*
X14376134Y-15799174D01*
X14376134Y-15799174D02*
X14357087Y-15789650D01*
X14357087Y-15789650D02*
X14318992Y-15789650D01*
X14318992Y-15789650D02*
X14299944Y-15799174D01*
X14385658Y-15913460D02*
X14366611Y-15922984D01*
X14366611Y-15922984D02*
X14318992Y-15922984D01*
X14318992Y-15922984D02*
X14299944Y-15913460D01*
X14299944Y-15913460D02*
X14290420Y-15894412D01*
X14290420Y-15894412D02*
X14290420Y-15875365D01*
X14290420Y-15875365D02*
X14299944Y-15856317D01*
X14299944Y-15856317D02*
X14318992Y-15846793D01*
X14318992Y-15846793D02*
X14366611Y-15846793D01*
X14366611Y-15846793D02*
X14385658Y-15837269D01*
X14452325Y-15789650D02*
X14528515Y-15789650D01*
X14480896Y-15722984D02*
X14480896Y-15894412D01*
X14480896Y-15894412D02*
X14490420Y-15913460D01*
X14490420Y-15913460D02*
X14509468Y-15922984D01*
X14509468Y-15922984D02*
X14528515Y-15922984D01*
X14671373Y-15913460D02*
X14652325Y-15922984D01*
X14652325Y-15922984D02*
X14614230Y-15922984D01*
X14614230Y-15922984D02*
X14595182Y-15913460D01*
X14595182Y-15913460D02*
X14585658Y-15894412D01*
X14585658Y-15894412D02*
X14585658Y-15818222D01*
X14585658Y-15818222D02*
X14595182Y-15799174D01*
X14595182Y-15799174D02*
X14614230Y-15789650D01*
X14614230Y-15789650D02*
X14652325Y-15789650D01*
X14652325Y-15789650D02*
X14671373Y-15799174D01*
X14671373Y-15799174D02*
X14680896Y-15818222D01*
X14680896Y-15818222D02*
X14680896Y-15837269D01*
X14680896Y-15837269D02*
X14585658Y-15856317D01*
X14852325Y-15922984D02*
X14852325Y-15722984D01*
X14852325Y-15913460D02*
X14833277Y-15922984D01*
X14833277Y-15922984D02*
X14795182Y-15922984D01*
X14795182Y-15922984D02*
X14776134Y-15913460D01*
X14776134Y-15913460D02*
X14766611Y-15903936D01*
X14766611Y-15903936D02*
X14757087Y-15884888D01*
X14757087Y-15884888D02*
X14757087Y-15827746D01*
X14757087Y-15827746D02*
X14766611Y-15808698D01*
X14766611Y-15808698D02*
X14776134Y-15799174D01*
X14776134Y-15799174D02*
X14795182Y-15789650D01*
X14795182Y-15789650D02*
X14833277Y-15789650D01*
X14833277Y-15789650D02*
X14852325Y-15799174D01*
X14928515Y-15999174D02*
X14938039Y-15989650D01*
X14938039Y-15989650D02*
X14957087Y-15961079D01*
X14957087Y-15961079D02*
X14966611Y-15942031D01*
X14966611Y-15942031D02*
X14976134Y-15913460D01*
X14976134Y-15913460D02*
X14985658Y-15865841D01*
X14985658Y-15865841D02*
X14985658Y-15827746D01*
X14985658Y-15827746D02*
X14976134Y-15780127D01*
X14976134Y-15780127D02*
X14966611Y-15751555D01*
X14966611Y-15751555D02*
X14957087Y-15732508D01*
X14957087Y-15732508D02*
X14938039Y-15703936D01*
X14938039Y-15703936D02*
X14928515Y-15694412D01*
M02*
