G04 #@! TF.GenerationSoftware,KiCad,Pcbnew,8.0.8*
G04 #@! TF.CreationDate,2025-03-22T16:06:40-05:00*
G04 #@! TF.ProjectId,ControllerPCB,436f6e74-726f-46c6-9c65-725043422e6b,rev?*
G04 #@! TF.SameCoordinates,Original*
G04 #@! TF.FileFunction,Copper,L4,Bot*
G04 #@! TF.FilePolarity,Positive*
%FSLAX46Y46*%
G04 Gerber Fmt 4.6, Leading zero omitted, Abs format (unit mm)*
G04 Created by KiCad (PCBNEW 8.0.8) date 2025-03-22 16:06:40*
%MOMM*%
%LPD*%
G01*
G04 APERTURE LIST*
G04 Aperture macros list*
%AMRoundRect*
0 Rectangle with rounded corners*
0 $1 Rounding radius*
0 $2 $3 $4 $5 $6 $7 $8 $9 X,Y pos of 4 corners*
0 Add a 4 corners polygon primitive as box body*
4,1,4,$2,$3,$4,$5,$6,$7,$8,$9,$2,$3,0*
0 Add four circle primitives for the rounded corners*
1,1,$1+$1,$2,$3*
1,1,$1+$1,$4,$5*
1,1,$1+$1,$6,$7*
1,1,$1+$1,$8,$9*
0 Add four rect primitives between the rounded corners*
20,1,$1+$1,$2,$3,$4,$5,0*
20,1,$1+$1,$4,$5,$6,$7,0*
20,1,$1+$1,$6,$7,$8,$9,0*
20,1,$1+$1,$8,$9,$2,$3,0*%
G04 Aperture macros list end*
G04 #@! TA.AperFunction,ComponentPad*
%ADD10R,1.530000X1.530000*%
G04 #@! TD*
G04 #@! TA.AperFunction,ComponentPad*
%ADD11C,1.530000*%
G04 #@! TD*
G04 #@! TA.AperFunction,ComponentPad*
%ADD12C,1.752600*%
G04 #@! TD*
G04 #@! TA.AperFunction,ComponentPad*
%ADD13R,1.060000X1.060000*%
G04 #@! TD*
G04 #@! TA.AperFunction,ComponentPad*
%ADD14C,1.060000*%
G04 #@! TD*
G04 #@! TA.AperFunction,SMDPad,CuDef*
%ADD15R,0.280000X0.200000*%
G04 #@! TD*
G04 #@! TA.AperFunction,ComponentPad*
%ADD16O,6.540000X3.270000*%
G04 #@! TD*
G04 #@! TA.AperFunction,SMDPad,CuDef*
%ADD17RoundRect,0.135000X-0.135000X-0.185000X0.135000X-0.185000X0.135000X0.185000X-0.135000X0.185000X0*%
G04 #@! TD*
G04 #@! TA.AperFunction,ComponentPad*
%ADD18R,1.650000X1.650000*%
G04 #@! TD*
G04 #@! TA.AperFunction,ComponentPad*
%ADD19C,1.650000*%
G04 #@! TD*
G04 #@! TA.AperFunction,HeatsinkPad*
%ADD20O,1.800000X1.150000*%
G04 #@! TD*
G04 #@! TA.AperFunction,HeatsinkPad*
%ADD21O,2.000000X1.450000*%
G04 #@! TD*
G04 #@! TA.AperFunction,ViaPad*
%ADD22C,0.700000*%
G04 #@! TD*
G04 #@! TA.AperFunction,ViaPad*
%ADD23C,0.800000*%
G04 #@! TD*
G04 #@! TA.AperFunction,Conductor*
%ADD24C,0.300000*%
G04 #@! TD*
G04 #@! TA.AperFunction,Conductor*
%ADD25C,0.500000*%
G04 #@! TD*
G04 #@! TA.AperFunction,Conductor*
%ADD26C,0.200000*%
G04 #@! TD*
G04 APERTURE END LIST*
D10*
X135020000Y-61000000D03*
D11*
X132480000Y-61000000D03*
D12*
X160000000Y-117000000D03*
X160000000Y-119540000D03*
X160000000Y-122080000D03*
D13*
X165250000Y-98540000D03*
D14*
X163980000Y-98540000D03*
X165250000Y-97270000D03*
X163980000Y-97270000D03*
X165250000Y-96000000D03*
X163980000Y-96000000D03*
X165250000Y-94730000D03*
X163980000Y-94730000D03*
X165250000Y-93460000D03*
X163980000Y-93460000D03*
D15*
X94500000Y-106750000D03*
X94500000Y-107150000D03*
D16*
X157900000Y-86755000D03*
X150000000Y-86755000D03*
D15*
X94500000Y-111850000D03*
X94500000Y-112250000D03*
X93500000Y-104100000D03*
X93500000Y-103700000D03*
D17*
X158215001Y-97268300D03*
X159235001Y-97268300D03*
D18*
X189500000Y-111440000D03*
D19*
X186960000Y-111440000D03*
X189500000Y-108900000D03*
X186960000Y-108900000D03*
X189500000Y-106360000D03*
X186960000Y-106360000D03*
X189500000Y-103820000D03*
X186960000Y-103820000D03*
X189500000Y-101280000D03*
X186960000Y-101280000D03*
X189500000Y-98740000D03*
X186960000Y-98740000D03*
X189500000Y-96200000D03*
X186960000Y-96200000D03*
X189500000Y-93660000D03*
X186960000Y-93660000D03*
X189500000Y-91120000D03*
X186960000Y-91120000D03*
X189500000Y-88580000D03*
X186960000Y-88580000D03*
X189500000Y-86040000D03*
X186960000Y-86040000D03*
X189500000Y-83500000D03*
X186960000Y-83500000D03*
X189500000Y-80960000D03*
X186960000Y-80960000D03*
X189500000Y-78420000D03*
X186960000Y-78420000D03*
X189500000Y-75880000D03*
X186960000Y-75880000D03*
X189500000Y-73340000D03*
X186960000Y-73340000D03*
X189500000Y-70800000D03*
X186960000Y-70800000D03*
X189500000Y-68260000D03*
X186960000Y-68260000D03*
X189500000Y-65720000D03*
X186960000Y-65720000D03*
X189500000Y-63180000D03*
X186960000Y-63180000D03*
D17*
X158215001Y-95230000D03*
X159235001Y-95230000D03*
D15*
X93500000Y-106750000D03*
X93500000Y-107150000D03*
D12*
X133790000Y-84250000D03*
X131250000Y-84250000D03*
X128710000Y-84250000D03*
X126170000Y-84250000D03*
D17*
X158215001Y-99268300D03*
X159235001Y-99268300D03*
D15*
X160875001Y-97400000D03*
X160875001Y-97000000D03*
D20*
X204000000Y-122630000D03*
D21*
X200200000Y-122780000D03*
X200200000Y-130230000D03*
D20*
X204000000Y-130380000D03*
D12*
X149750000Y-137484399D03*
X147210000Y-137484399D03*
X144670000Y-137484399D03*
D15*
X94500000Y-109250000D03*
X94500000Y-108850000D03*
X93500000Y-108850000D03*
X93500000Y-109250000D03*
D10*
X115910000Y-144024399D03*
D11*
X115910000Y-141484399D03*
X118450000Y-144024399D03*
X118450000Y-141484399D03*
X120990000Y-144024399D03*
X120990000Y-141484399D03*
X123530000Y-144024399D03*
X123530000Y-141484399D03*
D12*
X140256600Y-137484399D03*
X137716600Y-137484399D03*
X135176600Y-137484399D03*
D15*
X160875001Y-95280000D03*
X160875001Y-94880000D03*
D12*
X140256600Y-144234399D03*
X137716600Y-144234399D03*
X135176600Y-144234399D03*
X149750000Y-144250000D03*
X147210000Y-144250000D03*
X144670000Y-144250000D03*
D15*
X93500000Y-111850000D03*
X93500000Y-112250000D03*
D18*
X101500000Y-111850000D03*
D19*
X98960000Y-111850000D03*
X101500000Y-109310000D03*
X98960000Y-109310000D03*
X101500000Y-106770000D03*
X98960000Y-106770000D03*
X101500000Y-104230000D03*
X98960000Y-104230000D03*
X101500000Y-101690000D03*
X98960000Y-101690000D03*
X101500000Y-99150000D03*
X98960000Y-99150000D03*
X101500000Y-96610000D03*
X98960000Y-96610000D03*
X101500000Y-94070000D03*
X98960000Y-94070000D03*
X101500000Y-91530000D03*
X98960000Y-91530000D03*
X101500000Y-88990000D03*
X98960000Y-88990000D03*
X101500000Y-86450000D03*
X98960000Y-86450000D03*
X101500000Y-83910000D03*
X98960000Y-83910000D03*
X101500000Y-81370000D03*
X98960000Y-81370000D03*
X101500000Y-78830000D03*
X98960000Y-78830000D03*
X101500000Y-76290000D03*
X98960000Y-76290000D03*
X101500000Y-73750000D03*
X98960000Y-73750000D03*
X101500000Y-71210000D03*
X98960000Y-71210000D03*
X101500000Y-68670000D03*
X98960000Y-68670000D03*
X101500000Y-66130000D03*
X98960000Y-66130000D03*
X101500000Y-63590000D03*
X98960000Y-63590000D03*
D15*
X94500000Y-104100000D03*
X94500000Y-103700000D03*
D12*
X159256600Y-137468798D03*
X156716600Y-137468798D03*
X154176600Y-137468798D03*
D15*
X160875001Y-99650000D03*
X160875001Y-99250000D03*
D22*
X149825000Y-105425000D03*
X147425000Y-127175000D03*
X126250000Y-127250000D03*
X148750000Y-119750000D03*
X149750000Y-113250000D03*
X151800000Y-106875000D03*
X119250000Y-119000000D03*
X123250000Y-136250000D03*
X117500000Y-136250000D03*
X111750000Y-136250000D03*
X129000000Y-136250000D03*
X140025000Y-99500000D03*
X134250000Y-128250000D03*
X134750000Y-122250000D03*
X121000000Y-121000000D03*
X142500000Y-120000000D03*
X140070378Y-119987586D03*
X137500000Y-120000000D03*
X135000000Y-120000000D03*
X132500000Y-120000000D03*
X130000000Y-117500000D03*
X132500000Y-117500000D03*
X134909264Y-117477408D03*
X137500000Y-117500000D03*
X140000000Y-117500000D03*
X142500000Y-117500000D03*
X142500000Y-115000000D03*
X140000000Y-115000000D03*
X137500000Y-115000000D03*
X135000000Y-115000000D03*
X132500000Y-115000000D03*
X130000000Y-112500000D03*
X132500000Y-112500000D03*
X135000000Y-112500000D03*
X137466362Y-112480511D03*
X140000000Y-112500000D03*
X142500000Y-112500000D03*
X142500000Y-110000000D03*
X140000000Y-110000000D03*
X137494975Y-109994975D03*
X135003103Y-109993793D03*
X132516384Y-110017252D03*
X129818529Y-110087631D03*
X102500000Y-60000000D03*
X100089121Y-60028921D03*
X97482498Y-60008068D03*
X97500000Y-115000000D03*
X100000000Y-115000000D03*
X102500000Y-115000000D03*
X105000000Y-115000000D03*
X107476540Y-117510178D03*
X105013281Y-117486718D03*
X102500000Y-117500000D03*
X92673527Y-115234596D03*
X92500000Y-117500000D03*
X192500000Y-115000000D03*
X190000000Y-115000000D03*
X187570378Y-114989821D03*
X185000000Y-115000000D03*
X180000000Y-112500000D03*
X177500000Y-122500000D03*
X180000000Y-120000000D03*
X162500000Y-100000000D03*
X157479643Y-100036741D03*
X155000000Y-100000000D03*
X152500000Y-102500000D03*
X155000000Y-102500000D03*
X157500000Y-102500000D03*
X160000000Y-102500000D03*
X182514149Y-89916339D03*
X180000000Y-92500000D03*
X177500000Y-95000000D03*
X170000000Y-85000000D03*
X172500000Y-82500000D03*
X175000000Y-80000000D03*
X165000000Y-85000000D03*
X165000000Y-82500000D03*
X167500000Y-82500000D03*
X170007074Y-79996896D03*
X167500000Y-80000000D03*
X164916339Y-80090735D03*
X160000000Y-80000000D03*
X157500000Y-80000000D03*
X155000000Y-80000000D03*
X155000000Y-77500000D03*
X157500000Y-77500000D03*
X160000000Y-77500000D03*
X165000000Y-77500000D03*
X167500000Y-77500000D03*
X170000000Y-77500000D03*
X172500000Y-77500000D03*
X175000000Y-75000000D03*
X172500000Y-75000000D03*
X170030534Y-74976540D03*
X167500000Y-75000000D03*
X165000000Y-75000000D03*
X160000000Y-75000000D03*
X157500000Y-75000000D03*
X135003103Y-75033637D03*
X132500000Y-72500000D03*
X130000000Y-70000000D03*
X127500000Y-67500000D03*
X125000000Y-67500000D03*
X127437379Y-69966362D03*
X130000000Y-72500000D03*
X132469465Y-75068827D03*
X130000000Y-77500000D03*
X127507758Y-74998448D03*
X120000000Y-67500000D03*
X122546051Y-69966362D03*
X125000000Y-72500000D03*
X125000000Y-80000000D03*
X122475672Y-80030534D03*
X122500000Y-77500000D03*
X120000000Y-77500000D03*
X120000000Y-75000000D03*
X117500000Y-75000000D03*
X117500000Y-72500000D03*
X115000000Y-72500000D03*
X190000000Y-60000000D03*
X187501735Y-59984360D03*
X185000000Y-60000000D03*
X182500000Y-60000000D03*
X180000000Y-60000000D03*
X177500000Y-60000000D03*
X175000000Y-60000000D03*
X172500000Y-60000000D03*
X170000000Y-60000000D03*
X167500000Y-60000000D03*
X165058710Y-59999999D03*
X162500000Y-60000000D03*
X160000000Y-60000000D03*
X157500000Y-60000000D03*
X155000000Y-60000000D03*
X152500000Y-60000000D03*
X150000000Y-60000000D03*
X147500000Y-60000000D03*
X145000000Y-60000000D03*
X142500000Y-60000000D03*
X140000000Y-60000000D03*
X130000000Y-60000000D03*
X127500000Y-60000000D03*
X125197171Y-59966362D03*
X122500000Y-60000000D03*
X120000000Y-60000000D03*
X117500000Y-60000000D03*
X115000000Y-60000000D03*
X112500000Y-60000000D03*
X110000000Y-60000000D03*
X107500000Y-60000000D03*
X92500000Y-60000000D03*
X89982002Y-64984360D03*
X197500000Y-147500000D03*
X197500000Y-145000000D03*
X197500000Y-142500000D03*
X197500000Y-62500000D03*
X197500000Y-60000000D03*
X195000000Y-60000000D03*
X197500000Y-65000000D03*
X197557097Y-122513281D03*
X195000000Y-122500000D03*
X192500000Y-122500000D03*
X190000000Y-122500000D03*
X187500000Y-122500000D03*
X195000000Y-115000000D03*
X195000000Y-117500000D03*
X187500000Y-117500000D03*
X190000000Y-117500000D03*
X192500000Y-117500000D03*
X200000000Y-120000000D03*
X197500000Y-120000000D03*
X195000000Y-120000000D03*
X192500000Y-120000000D03*
X190000000Y-120000000D03*
X187500000Y-120000000D03*
X184935827Y-119979643D03*
X180000000Y-125000000D03*
X182500000Y-125000000D03*
X185000000Y-125000000D03*
X190000000Y-125000000D03*
X192500000Y-125000000D03*
X195000000Y-147500000D03*
X195000000Y-145000000D03*
X194894370Y-142343602D03*
X202500000Y-140000000D03*
X205000000Y-140000000D03*
X205000000Y-137500000D03*
X202500000Y-137500000D03*
X202500000Y-135000000D03*
X205000000Y-135000000D03*
X205000000Y-132500000D03*
X202553993Y-132484360D03*
X200000000Y-132500000D03*
X192500000Y-132500000D03*
X190000000Y-132500000D03*
X187500000Y-132500000D03*
X187500000Y-130000000D03*
X185000000Y-130000000D03*
X185000000Y-132500000D03*
X182500000Y-132500000D03*
X182500000Y-130000000D03*
X180000000Y-130000000D03*
X180000000Y-132500000D03*
X177500000Y-132500000D03*
X177500000Y-130000000D03*
X174987586Y-129938931D03*
X175000000Y-132500000D03*
X172500000Y-132500000D03*
X172500000Y-130000000D03*
X170000000Y-130000000D03*
X170000000Y-132500000D03*
X167500000Y-132500000D03*
X162500000Y-135000000D03*
X162500000Y-137500000D03*
X162500000Y-140000000D03*
X152500000Y-147500000D03*
X152500000Y-142500000D03*
X87491189Y-139862345D03*
X85000000Y-140000000D03*
X85000000Y-137500000D03*
X87500000Y-137500000D03*
X90000000Y-137500000D03*
X90000000Y-140000000D03*
X115000000Y-137500000D03*
X112500000Y-137500000D03*
X120000000Y-137500000D03*
X125000000Y-137500000D03*
X114895983Y-124895983D03*
X130000000Y-137500000D03*
X130000000Y-140000000D03*
X130000000Y-142500000D03*
X129971017Y-145350868D03*
X130000000Y-147500000D03*
X107500000Y-147500000D03*
X107500000Y-145000000D03*
X107500000Y-142500000D03*
X107500000Y-140000000D03*
X107500000Y-137500000D03*
X107500000Y-135000000D03*
X107500000Y-132500000D03*
X107500000Y-130000000D03*
X107537766Y-127457052D03*
X110000000Y-127500000D03*
X112500000Y-127500000D03*
X112446689Y-122284208D03*
X112500000Y-125000000D03*
X110000000Y-125000000D03*
X107500000Y-125000000D03*
X107500000Y-122500000D03*
X110000000Y-122500000D03*
X110018620Y-119961707D03*
X107500000Y-120000000D03*
X200000000Y-107500000D03*
X200000000Y-115000000D03*
X200000000Y-110000000D03*
X197500000Y-110000000D03*
X202500000Y-110000000D03*
X202500000Y-115000000D03*
X202500000Y-112500000D03*
X200000000Y-112500000D03*
X197500000Y-115000000D03*
X197500000Y-117500000D03*
X202500000Y-67500000D03*
X200000000Y-117500000D03*
X197500000Y-72500000D03*
X202500000Y-70000000D03*
X197500000Y-97500000D03*
X200000000Y-70000000D03*
X197500000Y-70000000D03*
X200000000Y-85000000D03*
X202500000Y-82500000D03*
X197500000Y-85000000D03*
X202500000Y-75000000D03*
X200000000Y-75000000D03*
X200000000Y-82500000D03*
X197500000Y-77500000D03*
X202500000Y-85000000D03*
X200000000Y-77500000D03*
X202500000Y-72500000D03*
X197500000Y-75000000D03*
X200000000Y-72500000D03*
X202500000Y-117500000D03*
X197500000Y-95000000D03*
X200000000Y-87500000D03*
X197500000Y-80000000D03*
X200000000Y-92500000D03*
X197500000Y-87500000D03*
X202500000Y-77500000D03*
X200000000Y-80000000D03*
X202500000Y-80000000D03*
X197500000Y-82500000D03*
X202500000Y-97500000D03*
X197500000Y-102500000D03*
X200000000Y-100000000D03*
X202500000Y-105000000D03*
X200000000Y-105000000D03*
X202500000Y-102500000D03*
X197500000Y-105000000D03*
X200000000Y-97500000D03*
X197500000Y-100000000D03*
X200000000Y-102500000D03*
X202500000Y-100000000D03*
X200000000Y-90000000D03*
X202500000Y-87500000D03*
X202500000Y-95000000D03*
X197500000Y-90000000D03*
X197500000Y-92500000D03*
X202500000Y-92500000D03*
X200000000Y-95000000D03*
X197500000Y-107500000D03*
X202500000Y-90000000D03*
X197500000Y-112500000D03*
X202500000Y-107500000D03*
X200000000Y-67500000D03*
X197500000Y-67500000D03*
X192500000Y-135000000D03*
X197500000Y-140000000D03*
X195000000Y-135000000D03*
X195000000Y-137500000D03*
X195000000Y-140000000D03*
X200000000Y-135000000D03*
X200000000Y-137500000D03*
X197500000Y-135000000D03*
X200000000Y-140000000D03*
X197500000Y-137500000D03*
X192500000Y-137500000D03*
X192500000Y-140000000D03*
X182500000Y-135000000D03*
X187500000Y-140000000D03*
X185000000Y-135000000D03*
X185000000Y-137500000D03*
X185000000Y-140000000D03*
X190000000Y-135000000D03*
X190000000Y-137500000D03*
X187500000Y-135000000D03*
X190000000Y-140000000D03*
X187500000Y-137500000D03*
X182500000Y-137500000D03*
X182500000Y-140000000D03*
X177500000Y-140000000D03*
X175000000Y-135000000D03*
X175000000Y-137500000D03*
X175000000Y-140000000D03*
X180000000Y-135000000D03*
X180000000Y-137500000D03*
X177500000Y-135000000D03*
X180000000Y-140000000D03*
X177500000Y-137500000D03*
X172500000Y-140000000D03*
X165000000Y-135000000D03*
X170000000Y-140000000D03*
X167500000Y-135000000D03*
X167500000Y-137500000D03*
X167500000Y-140000000D03*
X172500000Y-137500000D03*
X170000000Y-135000000D03*
X170000000Y-137500000D03*
X165000000Y-137500000D03*
X165000000Y-140000000D03*
X185000000Y-142500000D03*
X190000000Y-147500000D03*
X187500000Y-142500000D03*
X187500000Y-145000000D03*
X187500000Y-147500000D03*
X192500000Y-142500000D03*
X192500000Y-145000000D03*
X190000000Y-142500000D03*
X192500000Y-147500000D03*
X190000000Y-145000000D03*
X185000000Y-145000000D03*
X185000000Y-147500000D03*
X175000000Y-142500000D03*
X180000000Y-147500000D03*
X177500000Y-142500000D03*
X177500000Y-145000000D03*
X177500000Y-147500000D03*
X182500000Y-142500000D03*
X182500000Y-145000000D03*
X180000000Y-142500000D03*
X182500000Y-147500000D03*
X180000000Y-145000000D03*
X175000000Y-145000000D03*
X175000000Y-147500000D03*
X165000000Y-142500000D03*
X170000000Y-147500000D03*
X167500000Y-142500000D03*
X167500000Y-145000000D03*
X167500000Y-147500000D03*
X172500000Y-142500000D03*
X172500000Y-145000000D03*
X170000000Y-142500000D03*
X172500000Y-147500000D03*
X170000000Y-145000000D03*
X165000000Y-145000000D03*
X165000000Y-147500000D03*
X155000000Y-142500000D03*
X160000000Y-147500000D03*
X157500000Y-142500000D03*
X157500000Y-145000000D03*
X157500000Y-147500000D03*
X162500000Y-142500000D03*
X162500000Y-145000000D03*
X160000000Y-142500000D03*
X162500000Y-147500000D03*
X160000000Y-145000000D03*
X155000000Y-145000000D03*
X155000000Y-147500000D03*
X105000000Y-140000000D03*
X100000000Y-145000000D03*
X105000000Y-142500000D03*
X102500000Y-142500000D03*
X100000000Y-142500000D03*
X105000000Y-147500000D03*
X102500000Y-147500000D03*
X105000000Y-145000000D03*
X100000000Y-147500000D03*
X102500000Y-145000000D03*
X102500000Y-140000000D03*
X100000000Y-140000000D03*
X97500000Y-140000000D03*
X92500000Y-145000000D03*
X97500000Y-142500000D03*
X95000000Y-142500000D03*
X92500000Y-142500000D03*
X97500000Y-147500000D03*
X95000000Y-147500000D03*
X97500000Y-145000000D03*
X92500000Y-147500000D03*
X95000000Y-145000000D03*
X95000000Y-140000000D03*
X92500000Y-140000000D03*
X105000000Y-130000000D03*
X100000000Y-135000000D03*
X105000000Y-132500000D03*
X102500000Y-132500000D03*
X100000000Y-132500000D03*
X105000000Y-137500000D03*
X102500000Y-137500000D03*
X105000000Y-135000000D03*
X100000000Y-137500000D03*
X102500000Y-135000000D03*
X102500000Y-130000000D03*
X100000000Y-130000000D03*
X97500000Y-130000000D03*
X92500000Y-135000000D03*
X97500000Y-132500000D03*
X95000000Y-132500000D03*
X92500000Y-132500000D03*
X97500000Y-137500000D03*
X95000000Y-137500000D03*
X97500000Y-135000000D03*
X92500000Y-137500000D03*
X95000000Y-135000000D03*
X95000000Y-130000000D03*
X92500000Y-130000000D03*
X105000000Y-120000000D03*
X100000000Y-125000000D03*
X105000000Y-122500000D03*
X102500000Y-122500000D03*
X100000000Y-122500000D03*
X105000000Y-127500000D03*
X102500000Y-127500000D03*
X105000000Y-125000000D03*
X100000000Y-127500000D03*
X102500000Y-125000000D03*
X102500000Y-120000000D03*
X100000000Y-120000000D03*
X97500000Y-120000000D03*
X92500000Y-125000000D03*
X97500000Y-122500000D03*
X95000000Y-122500000D03*
X92500000Y-122500000D03*
X97500000Y-127500000D03*
X95000000Y-127500000D03*
X97500000Y-125000000D03*
X92500000Y-127500000D03*
X95000000Y-125000000D03*
X95000000Y-120000000D03*
X92500000Y-120000000D03*
X90000000Y-127500000D03*
X85000000Y-132500000D03*
X90000000Y-130000000D03*
X87500000Y-130000000D03*
X85000000Y-130000000D03*
X90000000Y-135000000D03*
X87500000Y-135000000D03*
X90000000Y-132500000D03*
X85000000Y-135000000D03*
X87500000Y-132500000D03*
X87500000Y-127500000D03*
X85000000Y-127500000D03*
X90000000Y-117500000D03*
X85000000Y-122500000D03*
X90000000Y-120000000D03*
X87500000Y-120000000D03*
X85000000Y-120000000D03*
X90000000Y-125000000D03*
X87500000Y-125000000D03*
X90000000Y-122500000D03*
X85000000Y-125000000D03*
X87500000Y-122500000D03*
X87500000Y-117500000D03*
X85000000Y-117500000D03*
X90000000Y-107500000D03*
X85000000Y-112500000D03*
X90000000Y-110000000D03*
X87500000Y-110000000D03*
X85000000Y-110000000D03*
X90000000Y-115000000D03*
X87500000Y-115000000D03*
X90000000Y-112500000D03*
X85000000Y-115000000D03*
X87500000Y-112500000D03*
X87500000Y-107500000D03*
X85000000Y-107500000D03*
X90000000Y-97500000D03*
X85000000Y-102500000D03*
X90000000Y-100000000D03*
X87500000Y-100000000D03*
X85000000Y-100000000D03*
X90000000Y-105000000D03*
X87500000Y-105000000D03*
X90000000Y-102500000D03*
X85000000Y-105000000D03*
X87500000Y-102500000D03*
X87500000Y-97500000D03*
X85000000Y-97500000D03*
X90000000Y-87500000D03*
X85000000Y-92500000D03*
X90000000Y-90000000D03*
X87500000Y-90000000D03*
X85000000Y-90000000D03*
X90000000Y-95000000D03*
X87500000Y-95000000D03*
X90000000Y-92500000D03*
X85000000Y-95000000D03*
X87500000Y-92500000D03*
X87500000Y-87500000D03*
X85000000Y-87500000D03*
X90000000Y-77500000D03*
X85000000Y-82500000D03*
X90000000Y-80000000D03*
X87500000Y-80000000D03*
X85000000Y-80000000D03*
X90000000Y-85000000D03*
X87500000Y-85000000D03*
X90000000Y-82500000D03*
X85000000Y-85000000D03*
X87500000Y-82500000D03*
X87500000Y-77500000D03*
X85000000Y-77500000D03*
X90000000Y-75000000D03*
X87500000Y-75000000D03*
X85000000Y-75000000D03*
X87500000Y-72500000D03*
X90000000Y-72500000D03*
X85000000Y-72500000D03*
X90000000Y-70000000D03*
X87500000Y-70000000D03*
X85000000Y-70000000D03*
X90000000Y-67500000D03*
X87500000Y-67500000D03*
X85000000Y-67500000D03*
X144500000Y-108250000D03*
X144000000Y-109500000D03*
X144000000Y-110500000D03*
X144000000Y-111500000D03*
X144000000Y-112500000D03*
X144000000Y-113500000D03*
X144000000Y-114500000D03*
X144000000Y-115500000D03*
X143750000Y-116500000D03*
X143750000Y-117500000D03*
X143750000Y-119000000D03*
X144250000Y-121750000D03*
X144500000Y-122750000D03*
X143500000Y-122750000D03*
X142500000Y-122750000D03*
X141500000Y-122750000D03*
X140250000Y-122750000D03*
X138250000Y-122250000D03*
X137250000Y-122750000D03*
X136250000Y-122500000D03*
X133500000Y-121750000D03*
X131750000Y-121250000D03*
X130250000Y-121000000D03*
X129000000Y-120750000D03*
X129250000Y-119750000D03*
X128250000Y-118750000D03*
X128750000Y-116500000D03*
X129750000Y-115250000D03*
X129000000Y-114250000D03*
X128500000Y-113000000D03*
X128250000Y-111750000D03*
X128000000Y-110500000D03*
X128750000Y-109250000D03*
X128500000Y-108000000D03*
X144000000Y-106250000D03*
X142965394Y-106103817D03*
X141750000Y-106000000D03*
X140500000Y-106000000D03*
X139500000Y-106000000D03*
X138500000Y-106250000D03*
X137000000Y-106250000D03*
X136000000Y-106250000D03*
X133250000Y-106750000D03*
X132250000Y-106750000D03*
X131250000Y-106750000D03*
X130250000Y-106750000D03*
X129250000Y-106750000D03*
X127750000Y-106750000D03*
D23*
X120250000Y-107500000D03*
X116000000Y-98250000D03*
X116250000Y-125500000D03*
X113750000Y-130500000D03*
X119500000Y-130250000D03*
X124500000Y-129000000D03*
X128250000Y-128750000D03*
X174500000Y-127250000D03*
X183250000Y-118500000D03*
X151500000Y-83250000D03*
X148500000Y-83250000D03*
D22*
X94500000Y-64500000D03*
X93500000Y-64500000D03*
X94500000Y-69750000D03*
X93500000Y-69750000D03*
X94500000Y-74750000D03*
X93500000Y-74750000D03*
X94500000Y-79750000D03*
X93500000Y-79750000D03*
X94500000Y-84750000D03*
X93500000Y-84750000D03*
X94500000Y-90000000D03*
X93500000Y-90000000D03*
X94500000Y-95000000D03*
X93500000Y-95000000D03*
X94500000Y-100250000D03*
X93500000Y-100250000D03*
X94500000Y-105500000D03*
X93500000Y-105500000D03*
X94500000Y-110500000D03*
X93500000Y-110500000D03*
X194750000Y-64250000D03*
X193750000Y-64250000D03*
X194750000Y-69500000D03*
X193750000Y-69500000D03*
X194750000Y-74500000D03*
X193750000Y-74500000D03*
X194750000Y-79500000D03*
X193750000Y-79500000D03*
X194750000Y-84500000D03*
X193750000Y-84500000D03*
X194750000Y-110750000D03*
X193750000Y-110750000D03*
X194750000Y-107750000D03*
X193750000Y-107750000D03*
X194750000Y-103250000D03*
X193750000Y-103250000D03*
X194750000Y-98500000D03*
X193750000Y-98500000D03*
X194750000Y-95750000D03*
X194750000Y-89750000D03*
X193750000Y-89750000D03*
X194750000Y-92750000D03*
X193750000Y-92750000D03*
X193750000Y-95750000D03*
X159750000Y-100500000D03*
X159750000Y-92000000D03*
X159750000Y-96250000D03*
X159750000Y-98250000D03*
X195800000Y-132755000D03*
X121250000Y-108250000D03*
X197805000Y-131755000D03*
X196050000Y-125425000D03*
X153000000Y-89250000D03*
X151500000Y-97000000D03*
X120550000Y-95212500D03*
X153750000Y-90250000D03*
X122000000Y-116500000D03*
X117250000Y-117750000D03*
X124000000Y-103250000D03*
X148275000Y-126680000D03*
X166500000Y-100980000D03*
X121250000Y-112000000D03*
X197075000Y-128100000D03*
X146250000Y-94250000D03*
X198300000Y-124755000D03*
X134250000Y-101000000D03*
X117250000Y-116750000D03*
X127500000Y-88500000D03*
X139450000Y-123750000D03*
X147000000Y-94750000D03*
X132750000Y-88500000D03*
X125000000Y-88500000D03*
X130250000Y-88500000D03*
X127000000Y-110500000D03*
X128000000Y-121250000D03*
X131074460Y-105743146D03*
X137000000Y-105250000D03*
X127250000Y-120500000D03*
X131973777Y-105778262D03*
X134750000Y-123250000D03*
X127250000Y-118750000D03*
X137000000Y-123750000D03*
X123750000Y-115250000D03*
X127500000Y-113000000D03*
X129250000Y-105750000D03*
X127500000Y-108000000D03*
X129750000Y-121750000D03*
X128250000Y-119750000D03*
X128500000Y-106250000D03*
X130174489Y-105750628D03*
X127000000Y-106250000D03*
X127750000Y-109250000D03*
X137950000Y-105450000D03*
X127250000Y-111750000D03*
X127750000Y-116971880D03*
X133250000Y-122750000D03*
X131500000Y-122250000D03*
X135750000Y-105250000D03*
X132970467Y-105785002D03*
X128000000Y-114250000D03*
X127036705Y-105125640D03*
X129500000Y-102500000D03*
X128750000Y-115500000D03*
X136000000Y-123500000D03*
X145500000Y-107000000D03*
X147750000Y-101500000D03*
X133750000Y-105250000D03*
X145000000Y-114500000D03*
X142250000Y-105250000D03*
X139500000Y-128250000D03*
X145000000Y-109500000D03*
X141250000Y-105250000D03*
X143250000Y-105250000D03*
X145000000Y-115500000D03*
X140000000Y-105250000D03*
X148250000Y-124000000D03*
X146250000Y-99500000D03*
X149750000Y-110250000D03*
X145500000Y-108328120D03*
X142450000Y-123800000D03*
X137625000Y-128875000D03*
X140750000Y-102250000D03*
X138750000Y-123000000D03*
X145000000Y-112500000D03*
X141450000Y-123800000D03*
X144750000Y-117500000D03*
X143375000Y-100625000D03*
X149500000Y-122500000D03*
X140375000Y-123875000D03*
X141250000Y-126750000D03*
X142250000Y-127000000D03*
X138000000Y-123750000D03*
X148750000Y-121000000D03*
X144500000Y-123750000D03*
X139000000Y-105250000D03*
X136500000Y-128250000D03*
X144750000Y-116500000D03*
X145000000Y-110500000D03*
X144750000Y-119000000D03*
X144250000Y-105250000D03*
X142000000Y-101250000D03*
X143250000Y-127000000D03*
X143450000Y-123800000D03*
X144804522Y-99945478D03*
X145250000Y-121850000D03*
X145000000Y-111500000D03*
X145000000Y-113500000D03*
X172500000Y-135000000D03*
D24*
X182750000Y-83500000D02*
X186960000Y-83500000D01*
X172750000Y-93500000D02*
X182750000Y-83500000D01*
X157500000Y-114250000D02*
X172750000Y-99000000D01*
X145750000Y-114250000D02*
X157500000Y-114250000D01*
X172750000Y-99000000D02*
X172750000Y-93500000D01*
X145000000Y-113500000D02*
X145750000Y-114250000D01*
X188325000Y-84865000D02*
X189500000Y-86040000D01*
X182885000Y-84865000D02*
X188325000Y-84865000D01*
X173353553Y-94396447D02*
X182885000Y-84865000D01*
X157707106Y-114750000D02*
X173353553Y-99103553D01*
X145250000Y-114750000D02*
X157707106Y-114750000D01*
X173353553Y-99103553D02*
X173353553Y-94396447D01*
X145000000Y-114500000D02*
X145250000Y-114750000D01*
X174000000Y-95000000D02*
X182960000Y-86040000D01*
X182960000Y-86040000D02*
X186960000Y-86040000D01*
X174000000Y-99250000D02*
X174000000Y-95000000D01*
X158000000Y-115250000D02*
X174000000Y-99250000D01*
X145000000Y-115500000D02*
X145250000Y-115250000D01*
X145250000Y-115250000D02*
X158000000Y-115250000D01*
X189500000Y-88000000D02*
X189500000Y-88580000D01*
X182785000Y-87215000D02*
X188715000Y-87215000D01*
X174750000Y-95250000D02*
X182785000Y-87215000D01*
X158500000Y-115750000D02*
X174750000Y-99500000D01*
X145739950Y-115750000D02*
X158500000Y-115750000D01*
X174750000Y-99500000D02*
X174750000Y-95250000D01*
X188715000Y-87215000D02*
X189500000Y-88000000D01*
X144989950Y-116500000D02*
X145739950Y-115750000D01*
X144750000Y-116500000D02*
X144989950Y-116500000D01*
X186790000Y-88750000D02*
X186960000Y-88580000D01*
X186250000Y-88750000D02*
X186790000Y-88750000D01*
X158750000Y-116250000D02*
X186250000Y-88750000D01*
X146000000Y-116250000D02*
X158750000Y-116250000D01*
X144750000Y-117500000D02*
X146000000Y-116250000D01*
X185530000Y-61750000D02*
X186960000Y-63180000D01*
X150750000Y-61750000D02*
X185530000Y-61750000D01*
X139250000Y-73250000D02*
X150750000Y-61750000D01*
X139250000Y-104500000D02*
X139250000Y-73250000D01*
X140000000Y-105250000D02*
X139250000Y-104500000D01*
X187750000Y-60750000D02*
X189500000Y-62500000D01*
X150000000Y-60750000D02*
X187750000Y-60750000D01*
X138500000Y-72250000D02*
X150000000Y-60750000D01*
X139000000Y-105250000D02*
X138500000Y-104750000D01*
X138500000Y-104750000D02*
X138500000Y-72250000D01*
X189500000Y-62500000D02*
X189500000Y-63180000D01*
X127250000Y-60750000D02*
X100500000Y-60750000D01*
X100500000Y-60750000D02*
X98960000Y-62290000D01*
X137750000Y-105250000D02*
X137750000Y-71250000D01*
X137750000Y-71250000D02*
X127250000Y-60750000D01*
X98960000Y-62290000D02*
X98960000Y-63590000D01*
X137950000Y-105450000D02*
X137750000Y-105250000D01*
X152750000Y-65250000D02*
X186490000Y-65250000D01*
X141250000Y-76750000D02*
X152750000Y-65250000D01*
X141250000Y-101489950D02*
X141250000Y-76750000D01*
X141450000Y-101689950D02*
X141250000Y-101489950D01*
X141450000Y-105050000D02*
X141450000Y-101689950D01*
X141250000Y-105250000D02*
X141450000Y-105050000D01*
X186490000Y-65250000D02*
X186960000Y-65720000D01*
X98960000Y-98290000D02*
X98960000Y-99150000D01*
X102475000Y-97975000D02*
X99275000Y-97975000D01*
X99275000Y-97975000D02*
X98960000Y-98290000D01*
X104750000Y-109500000D02*
X104750000Y-100250000D01*
X119500000Y-124250000D02*
X104750000Y-109500000D01*
X134750000Y-123250000D02*
X133750000Y-124250000D01*
X133750000Y-124250000D02*
X119500000Y-124250000D01*
X104750000Y-100250000D02*
X102475000Y-97975000D01*
X101580000Y-68750000D02*
X101500000Y-68670000D01*
X128250000Y-85500000D02*
X128225749Y-85500000D01*
X131000000Y-88250000D02*
X128250000Y-85500000D01*
X127483700Y-79233700D02*
X117000000Y-68750000D01*
X131000000Y-101925540D02*
X131000000Y-88250000D01*
X127483700Y-84757951D02*
X127483700Y-79233700D01*
X131074460Y-102000000D02*
X131000000Y-101925540D01*
X128225749Y-85500000D02*
X127483700Y-84757951D01*
X117000000Y-68750000D02*
X101580000Y-68750000D01*
X152250000Y-95250000D02*
X158250000Y-95250000D01*
X144250000Y-107250000D02*
X146950000Y-104550000D01*
X135750000Y-107250000D02*
X144250000Y-107250000D01*
X146950000Y-100550000D02*
X152250000Y-95250000D01*
X133750000Y-105250000D02*
X135750000Y-107250000D01*
X146950000Y-104550000D02*
X146950000Y-100550000D01*
D25*
X116000000Y-103250000D02*
X120250000Y-107500000D01*
X116000000Y-98250000D02*
X116000000Y-103250000D01*
D24*
X98960000Y-83290000D02*
X98960000Y-83910000D01*
X99515000Y-82735000D02*
X98960000Y-83290000D01*
X117500000Y-96250000D02*
X103985000Y-82735000D01*
X103985000Y-82735000D02*
X99515000Y-82735000D01*
X117500000Y-103000000D02*
X117500000Y-96250000D01*
X127500000Y-113000000D02*
X117500000Y-103000000D01*
X103000000Y-84250000D02*
X101840000Y-84250000D01*
X114500000Y-95750000D02*
X103000000Y-84250000D01*
X101840000Y-84250000D02*
X101500000Y-83910000D01*
X114500000Y-103250000D02*
X114500000Y-95750000D01*
X128000000Y-114250000D02*
X125500000Y-114250000D01*
X125500000Y-114250000D02*
X114500000Y-103250000D01*
X100135000Y-85275000D02*
X98960000Y-86450000D01*
X103025000Y-85275000D02*
X100135000Y-85275000D01*
X113750000Y-103260050D02*
X113750000Y-96000000D01*
X113750000Y-96000000D02*
X103025000Y-85275000D01*
X128750000Y-115500000D02*
X125989950Y-115500000D01*
X125989950Y-115500000D02*
X113750000Y-103260050D01*
X102565000Y-87815000D02*
X100135000Y-87815000D01*
X112250000Y-97500000D02*
X102565000Y-87815000D01*
X100135000Y-87815000D02*
X98960000Y-88990000D01*
X112250000Y-105760050D02*
X112250000Y-97500000D01*
X123461830Y-116971880D02*
X112250000Y-105760050D01*
X127750000Y-116971880D02*
X123461830Y-116971880D01*
X102700000Y-86450000D02*
X101500000Y-86450000D01*
X113000000Y-96750000D02*
X102700000Y-86450000D01*
X113000000Y-105500000D02*
X113000000Y-96750000D01*
X122750000Y-115250000D02*
X113000000Y-105500000D01*
X123750000Y-115250000D02*
X122750000Y-115250000D01*
D25*
X113750000Y-128000000D02*
X116250000Y-125500000D01*
X113750000Y-130500000D02*
X113750000Y-128000000D01*
X114000000Y-130250000D02*
X113750000Y-130500000D01*
X119500000Y-130250000D02*
X114000000Y-130250000D01*
X120750000Y-129000000D02*
X119500000Y-130250000D01*
X124500000Y-129000000D02*
X120750000Y-129000000D01*
X124750000Y-128750000D02*
X124500000Y-129000000D01*
X128250000Y-128750000D02*
X124750000Y-128750000D01*
D24*
X188325000Y-110265000D02*
X189500000Y-111440000D01*
X163750000Y-132000000D02*
X185485000Y-110265000D01*
X140750000Y-132000000D02*
X163750000Y-132000000D01*
X137625000Y-128875000D02*
X140750000Y-132000000D01*
X185485000Y-110265000D02*
X188325000Y-110265000D01*
X185500000Y-111750000D02*
X186650000Y-111750000D01*
X186650000Y-111750000D02*
X186960000Y-111440000D01*
X139750000Y-132500000D02*
X164750000Y-132500000D01*
X164750000Y-132500000D02*
X185500000Y-111750000D01*
X136500000Y-129250000D02*
X139750000Y-132500000D01*
X136500000Y-128250000D02*
X136500000Y-129250000D01*
D25*
X181000000Y-120750000D02*
X174500000Y-127250000D01*
X183250000Y-118500000D02*
X181000000Y-120750000D01*
X148500000Y-83250000D02*
X151500000Y-83250000D01*
D24*
X186560000Y-108500000D02*
X186960000Y-108900000D01*
X141760050Y-131500000D02*
X163500000Y-131500000D01*
X138000000Y-127739950D02*
X141760050Y-131500000D01*
X138000000Y-123750000D02*
X138000000Y-127739950D01*
X163500000Y-131500000D02*
X186500000Y-108500000D01*
X186500000Y-108500000D02*
X186560000Y-108500000D01*
X188505000Y-89755000D02*
X189500000Y-90750000D01*
X186245000Y-89755000D02*
X188505000Y-89755000D01*
X162000000Y-114000000D02*
X186245000Y-89755000D01*
X145523700Y-118226300D02*
X160523700Y-118226300D01*
X144750000Y-119000000D02*
X145523700Y-118226300D01*
X160523700Y-118226300D02*
X162000000Y-116750000D01*
X162000000Y-116750000D02*
X162000000Y-114000000D01*
X189500000Y-90750000D02*
X189500000Y-91120000D01*
X182500000Y-82250000D02*
X188250000Y-82250000D01*
X172000000Y-98750000D02*
X172000000Y-92750000D01*
X158250000Y-112500000D02*
X172000000Y-98750000D01*
X145000000Y-112500000D02*
X158250000Y-112500000D01*
X172000000Y-92750000D02*
X182500000Y-82250000D01*
X188250000Y-82250000D02*
X189500000Y-83500000D01*
X182540000Y-80960000D02*
X186960000Y-80960000D01*
X171250000Y-92250000D02*
X182540000Y-80960000D01*
X171250000Y-98707106D02*
X171250000Y-92250000D01*
X158457106Y-111500000D02*
X171250000Y-98707106D01*
X145000000Y-111500000D02*
X158457106Y-111500000D01*
X188750001Y-79750000D02*
X189500000Y-80499999D01*
X170500000Y-91500000D02*
X182250000Y-79750000D01*
X170500000Y-98750000D02*
X170500000Y-91500000D01*
X158300000Y-110950000D02*
X170500000Y-98750000D01*
X182250000Y-79750000D02*
X188750001Y-79750000D01*
X145450000Y-110950000D02*
X158300000Y-110950000D01*
X145000000Y-110500000D02*
X145450000Y-110950000D01*
X189500000Y-80499999D02*
X189500000Y-80960000D01*
X170000000Y-90250000D02*
X181830000Y-78420000D01*
X170000000Y-98469950D02*
X170000000Y-90250000D01*
X149750000Y-110250000D02*
X158219950Y-110250000D01*
X158219950Y-110250000D02*
X170000000Y-98469950D01*
X181830000Y-78420000D02*
X186960000Y-78420000D01*
X189500000Y-77750000D02*
X189500000Y-78420000D01*
X188995000Y-77245000D02*
X189500000Y-77750000D01*
X168750000Y-97740050D02*
X168750000Y-89500000D01*
X156990050Y-109500000D02*
X168750000Y-97740050D01*
X168750000Y-89500000D02*
X181005000Y-77245000D01*
X145000000Y-109500000D02*
X156990050Y-109500000D01*
X181005000Y-77245000D02*
X188995000Y-77245000D01*
X180370000Y-75880000D02*
X186960000Y-75880000D01*
X167750000Y-88500000D02*
X180370000Y-75880000D01*
X167750000Y-97800000D02*
X167750000Y-88500000D01*
X145500000Y-108328120D02*
X157221880Y-108328120D01*
X157221880Y-108328120D02*
X167750000Y-97800000D01*
D26*
X94500000Y-106750000D02*
X94500000Y-105500000D01*
X93500000Y-106750000D02*
X93500000Y-105500000D01*
X94095000Y-103105000D02*
X100375000Y-103105000D01*
X100375000Y-103105000D02*
X101500000Y-104230000D01*
X93500000Y-103700000D02*
X94095000Y-103105000D01*
X98430000Y-103700000D02*
X98960000Y-104230000D01*
X94500000Y-103700000D02*
X98430000Y-103700000D01*
X94500000Y-104100000D02*
X94500000Y-105500000D01*
X93500000Y-104100000D02*
X93500000Y-105500000D01*
X98180000Y-107550000D02*
X98960000Y-106770000D01*
X93900000Y-107550000D02*
X98180000Y-107550000D01*
X93500000Y-107150000D02*
X93900000Y-107550000D01*
X100375000Y-105645000D02*
X101500000Y-106770000D01*
X96989009Y-107150000D02*
X98494009Y-105645000D01*
X94500000Y-107150000D02*
X96989009Y-107150000D01*
X98494009Y-105645000D02*
X100375000Y-105645000D01*
X94500000Y-108850000D02*
X98500000Y-108850000D01*
X98500000Y-108850000D02*
X98960000Y-109310000D01*
X100375000Y-108185000D02*
X101500000Y-109310000D01*
X94165000Y-108185000D02*
X100375000Y-108185000D01*
X93500000Y-108850000D02*
X94165000Y-108185000D01*
X94500000Y-109250000D02*
X94500000Y-110500000D01*
X94500000Y-111850000D02*
X94500000Y-110500000D01*
X93500000Y-111850000D02*
X93500000Y-110500000D01*
X100375000Y-112975000D02*
X101500000Y-111850000D01*
X94225000Y-112975000D02*
X100375000Y-112975000D01*
X93500000Y-112250000D02*
X94225000Y-112975000D01*
X98560000Y-112250000D02*
X98960000Y-111850000D01*
X94500000Y-112250000D02*
X98560000Y-112250000D01*
X159235001Y-99268300D02*
X159253301Y-99250000D01*
X159253301Y-99250000D02*
X161000000Y-99250000D01*
X160875001Y-99250000D02*
X161000000Y-99250000D01*
X161000000Y-99250000D02*
X163270000Y-99250000D01*
X159503301Y-97000000D02*
X160875001Y-97000000D01*
X159235001Y-97268300D02*
X159503301Y-97000000D01*
X159585001Y-94880000D02*
X160875001Y-94880000D01*
X159235001Y-95230000D02*
X159585001Y-94880000D01*
X160720000Y-95280000D02*
X159750000Y-96250000D01*
X160875001Y-95280000D02*
X160720000Y-95280000D01*
X160600000Y-97400000D02*
X159750000Y-98250000D01*
X160875001Y-97400000D02*
X160600000Y-97400000D01*
X160875001Y-99650000D02*
X160600000Y-99650000D01*
X160600000Y-99650000D02*
X159750000Y-100500000D01*
X163270000Y-99250000D02*
X163980000Y-98540000D01*
X163710000Y-97000000D02*
X163980000Y-97270000D01*
X160875001Y-97000000D02*
X163710000Y-97000000D01*
X162500000Y-96000000D02*
X163980000Y-96000000D01*
X161380000Y-94880000D02*
X162500000Y-96000000D01*
X160875001Y-94880000D02*
X161380000Y-94880000D01*
D24*
X101986701Y-80005000D02*
X100325000Y-80005000D01*
X101991701Y-80000000D02*
X101986701Y-80005000D01*
X103990000Y-80000000D02*
X101991701Y-80000000D01*
X127000000Y-110500000D02*
X119500000Y-103000000D01*
X119500000Y-95510000D02*
X103990000Y-80000000D01*
X119500000Y-103000000D02*
X119500000Y-95510000D01*
X100325000Y-80005000D02*
X98960000Y-81370000D01*
X131074460Y-105743146D02*
X131074460Y-102000000D01*
X137000000Y-73500000D02*
X126130000Y-62630000D01*
X102460000Y-62630000D02*
X101500000Y-63590000D01*
X137000000Y-105250000D02*
X137000000Y-73500000D01*
X126130000Y-62630000D02*
X102460000Y-62630000D01*
X109000000Y-106750000D02*
X109000000Y-98500000D01*
X102030000Y-91530000D02*
X101500000Y-91530000D01*
X122750000Y-120500000D02*
X109000000Y-106750000D01*
X127250000Y-120500000D02*
X122750000Y-120500000D01*
X109000000Y-98500000D02*
X102030000Y-91530000D01*
X99390000Y-67360000D02*
X118360000Y-67360000D01*
X131500000Y-100750000D02*
X131973777Y-101223777D01*
X98960000Y-68670000D02*
X98960000Y-67790000D01*
X130000000Y-84734251D02*
X131500000Y-86234251D01*
X131973777Y-101223777D02*
X131973777Y-105778262D01*
X98960000Y-67790000D02*
X99390000Y-67360000D01*
X131500000Y-86234251D02*
X131500000Y-100750000D01*
X130000000Y-79000000D02*
X130000000Y-84734251D01*
X118360000Y-67360000D02*
X130000000Y-79000000D01*
X101740000Y-88990000D02*
X101500000Y-88990000D01*
X123260050Y-118750000D02*
X111000000Y-106489950D01*
X111000000Y-98250000D02*
X101740000Y-88990000D01*
X127250000Y-118750000D02*
X123260050Y-118750000D01*
X111000000Y-106489950D02*
X111000000Y-98250000D01*
X137000000Y-123750000D02*
X135000000Y-125750000D01*
X135000000Y-125750000D02*
X118750000Y-125750000D01*
X103250000Y-102750000D02*
X102190000Y-101690000D01*
X103250000Y-110250000D02*
X103250000Y-102750000D01*
X102190000Y-101690000D02*
X101500000Y-101690000D01*
X118750000Y-125750000D02*
X103250000Y-110250000D01*
X128800000Y-93300000D02*
X108075000Y-72575000D01*
X128800000Y-105300000D02*
X128800000Y-93300000D01*
X129250000Y-105750000D02*
X128800000Y-105300000D01*
X108075000Y-72575000D02*
X99674999Y-72575000D01*
X98960000Y-73289999D02*
X98960000Y-73750000D01*
X99674999Y-72575000D02*
X98960000Y-73289999D01*
X127500000Y-108000000D02*
X125250000Y-105750000D01*
X125250000Y-105750000D02*
X125250000Y-97750000D01*
X100290000Y-77500000D02*
X98960000Y-78830000D01*
X104940000Y-77500000D02*
X100290000Y-77500000D01*
X125250000Y-97750000D02*
X106650000Y-79150000D01*
X106620000Y-79180000D02*
X104940000Y-77500000D01*
X107250000Y-108739950D02*
X107250000Y-99000000D01*
X102750000Y-94500000D02*
X101930000Y-94500000D01*
X107250000Y-99000000D02*
X102750000Y-94500000D01*
X129550000Y-121950000D02*
X120460050Y-121950000D01*
X101930000Y-94500000D02*
X101500000Y-94070000D01*
X120460050Y-121950000D02*
X107250000Y-108739950D01*
X129750000Y-121750000D02*
X129550000Y-121950000D01*
X128250000Y-119750000D02*
X123000000Y-119750000D01*
X110000000Y-106750000D02*
X110000000Y-98368299D01*
X110000000Y-98368299D02*
X101881701Y-90250000D01*
X101881701Y-90250000D02*
X100240000Y-90250000D01*
X100240000Y-90250000D02*
X98960000Y-91530000D01*
X123000000Y-119750000D02*
X110000000Y-106750000D01*
X128250000Y-106000000D02*
X128250000Y-95250000D01*
X128500000Y-106250000D02*
X128250000Y-106000000D01*
X128250000Y-95250000D02*
X106750000Y-73750000D01*
X106750000Y-73750000D02*
X101500000Y-73750000D01*
X130250000Y-90064251D02*
X110220749Y-70035000D01*
X98960000Y-70789999D02*
X98960000Y-71210000D01*
X130250000Y-105675117D02*
X130250000Y-90064251D01*
X130174489Y-105750628D02*
X130250000Y-105675117D01*
X99714999Y-70035000D02*
X98960000Y-70789999D01*
X110220749Y-70035000D02*
X99714999Y-70035000D01*
X101670000Y-79000000D02*
X101500000Y-78830000D01*
X121646447Y-95146447D02*
X105500000Y-79000000D01*
X105500000Y-79000000D02*
X101670000Y-79000000D01*
X121646447Y-103146447D02*
X121646447Y-95146447D01*
X127750000Y-109250000D02*
X121646447Y-103146447D01*
X104000000Y-81500000D02*
X101630000Y-81500000D01*
X127250000Y-111750000D02*
X118000000Y-102500000D01*
X101630000Y-81500000D02*
X101500000Y-81370000D01*
X118000000Y-95500000D02*
X104000000Y-81500000D01*
X118000000Y-102500000D02*
X118000000Y-95500000D01*
X105500000Y-109000000D02*
X105500000Y-99750000D01*
X132500000Y-123500000D02*
X120000000Y-123500000D01*
X133250000Y-122750000D02*
X132500000Y-123500000D01*
X105500000Y-99750000D02*
X102360000Y-96610000D01*
X102360000Y-96610000D02*
X101500000Y-96610000D01*
X120000000Y-123500000D02*
X105500000Y-109000000D01*
X99565000Y-95435000D02*
X98960000Y-96040000D01*
X131000000Y-122750000D02*
X120250000Y-122750000D01*
X102435000Y-95435000D02*
X99565000Y-95435000D01*
X98960000Y-96040000D02*
X98960000Y-96610000D01*
X106250000Y-99250000D02*
X102435000Y-95435000D01*
X106250000Y-108750000D02*
X106250000Y-99250000D01*
X131500000Y-122250000D02*
X131000000Y-122750000D01*
X120250000Y-122750000D02*
X106250000Y-108750000D01*
X98960000Y-65540000D02*
X98960000Y-66130000D01*
X135750000Y-105250000D02*
X136000000Y-105000000D01*
X136000000Y-74750000D02*
X126015000Y-64765000D01*
X126015000Y-64765000D02*
X99735000Y-64765000D01*
X136000000Y-105000000D02*
X136000000Y-74750000D01*
X99735000Y-64765000D02*
X98960000Y-65540000D01*
X132476300Y-78226300D02*
X120000000Y-65750000D01*
X132970467Y-105785002D02*
X132970467Y-101500000D01*
X101880000Y-65750000D02*
X101500000Y-66130000D01*
X132050000Y-100579533D02*
X132050000Y-85200000D01*
X120000000Y-65750000D02*
X101880000Y-65750000D01*
X132050000Y-85200000D02*
X132476300Y-84773700D01*
X132970467Y-101500000D02*
X132050000Y-100579533D01*
X132476300Y-84773700D02*
X132476300Y-78226300D01*
X127000000Y-105088935D02*
X127000000Y-100500000D01*
X127000000Y-95750000D02*
X106250000Y-75000000D01*
X106175000Y-74925000D02*
X99325000Y-74925000D01*
X127000000Y-100500000D02*
X127000000Y-95750000D01*
X99325000Y-74925000D02*
X98960000Y-75290000D01*
X127036705Y-105125640D02*
X127000000Y-105088935D01*
X98960000Y-75290000D02*
X98960000Y-76290000D01*
X126500000Y-88500000D02*
X109250000Y-71250000D01*
X129500000Y-102500000D02*
X129500000Y-91489950D01*
X101540000Y-71250000D02*
X101500000Y-71210000D01*
X126510050Y-88500000D02*
X126500000Y-88500000D01*
X129500000Y-91489950D02*
X126510050Y-88500000D01*
X109250000Y-71250000D02*
X101540000Y-71250000D01*
X119000000Y-125000000D02*
X104000000Y-110000000D01*
X104000000Y-110000000D02*
X104000000Y-101000000D01*
X104000000Y-101000000D02*
X102150000Y-99150000D01*
X134500000Y-125000000D02*
X119000000Y-125000000D01*
X136000000Y-123500000D02*
X134500000Y-125000000D01*
X102150000Y-99150000D02*
X101500000Y-99150000D01*
X145500000Y-107000000D02*
X153250000Y-99250000D01*
X153250000Y-99250000D02*
X158250000Y-99250000D01*
X152239950Y-97250000D02*
X158000000Y-97250000D01*
X147750000Y-101500000D02*
X147989950Y-101500000D01*
X147989950Y-101500000D02*
X152239950Y-97250000D01*
X142500000Y-100750000D02*
X142500000Y-79500000D01*
X142250000Y-105250000D02*
X142700000Y-104800000D01*
X185500000Y-68250000D02*
X185510000Y-68260000D01*
X142700000Y-100950000D02*
X142500000Y-100750000D01*
X185510000Y-68260000D02*
X186960000Y-68260000D01*
X142500000Y-79500000D02*
X153750000Y-68250000D01*
X142700000Y-104800000D02*
X142700000Y-100950000D01*
X153750000Y-68250000D02*
X185500000Y-68250000D01*
X144075000Y-100075000D02*
X144000000Y-100000000D01*
X186910000Y-70750000D02*
X186960000Y-70800000D01*
X144000000Y-100000000D02*
X144000000Y-81750000D01*
X144075000Y-104425000D02*
X144075000Y-100075000D01*
X143250000Y-105250000D02*
X144075000Y-104425000D01*
X155000000Y-70750000D02*
X186910000Y-70750000D01*
X144000000Y-81750000D02*
X155000000Y-70750000D01*
X148250000Y-124000000D02*
X148556300Y-124306300D01*
X165500000Y-119957107D02*
X165500000Y-114500000D01*
X165500000Y-114500000D02*
X185000000Y-95000000D01*
X185000000Y-95000000D02*
X189000000Y-95000000D01*
X161150807Y-124306300D02*
X165500000Y-119957107D01*
X189000000Y-95000000D02*
X189500000Y-95500000D01*
X148556300Y-124306300D02*
X161150807Y-124306300D01*
X189500000Y-95500000D02*
X189500000Y-96200000D01*
X146250000Y-99500000D02*
X146250000Y-99000000D01*
X154450000Y-90800000D02*
X161700000Y-90800000D01*
X189500000Y-75250000D02*
X189500000Y-75880000D01*
X161700000Y-90800000D02*
X177985000Y-74515000D01*
X146250000Y-99000000D02*
X154450000Y-90800000D01*
X188765000Y-74515000D02*
X189500000Y-75250000D01*
X177985000Y-74515000D02*
X188765000Y-74515000D01*
X144630000Y-125980000D02*
X162520000Y-125980000D01*
X167750000Y-115000000D02*
X184000000Y-98750000D01*
X185760000Y-98740000D02*
X186960000Y-98740000D01*
X142450000Y-123800000D02*
X144630000Y-125980000D01*
X184000000Y-98750000D02*
X185750000Y-98750000D01*
X162520000Y-125980000D02*
X167750000Y-120750000D01*
X185750000Y-98750000D02*
X185760000Y-98740000D01*
X167750000Y-120750000D02*
X167750000Y-115000000D01*
X140750000Y-75500000D02*
X151895000Y-64355000D01*
X188105000Y-64355000D02*
X188250000Y-64500000D01*
X140750000Y-102250000D02*
X140750000Y-75500000D01*
X188250000Y-64500000D02*
X188280000Y-64500000D01*
X188280000Y-64500000D02*
X189500000Y-65720000D01*
X151895000Y-64355000D02*
X188105000Y-64355000D01*
X138750000Y-123000000D02*
X138700000Y-123050000D01*
X186110000Y-106360000D02*
X186960000Y-106360000D01*
X183250000Y-106000000D02*
X185750000Y-106000000D01*
X185750000Y-106000000D02*
X186110000Y-106360000D01*
X174000000Y-119500000D02*
X174000000Y-115250000D01*
X143302944Y-130500000D02*
X163000000Y-130500000D01*
X174000000Y-115250000D02*
X183250000Y-106000000D01*
X138700000Y-125897056D02*
X143302944Y-130500000D01*
X163000000Y-130500000D02*
X174000000Y-119500000D01*
X138700000Y-123050000D02*
X138700000Y-125897056D01*
X141450000Y-123800000D02*
X145600000Y-127950000D01*
X188855001Y-100105000D02*
X189500000Y-100749999D01*
X169500000Y-114750000D02*
X184145000Y-100105000D01*
X189500000Y-100749999D02*
X189500000Y-101280000D01*
X161257106Y-127950000D02*
X169500000Y-119707106D01*
X184145000Y-100105000D02*
X188855001Y-100105000D01*
X145600000Y-127950000D02*
X161257106Y-127950000D01*
X169500000Y-119707106D02*
X169500000Y-114750000D01*
X143375000Y-100625000D02*
X143250000Y-100500000D01*
X154125000Y-69625000D02*
X188125000Y-69625000D01*
X143250000Y-80500000D02*
X154125000Y-69625000D01*
X189300000Y-70800000D02*
X189500000Y-70800000D01*
X188125000Y-69625000D02*
X189300000Y-70800000D01*
X143250000Y-100500000D02*
X143250000Y-80500000D01*
X164500000Y-120250000D02*
X164500000Y-114500000D01*
X164500000Y-114500000D02*
X185500000Y-93500000D01*
X150806300Y-123806300D02*
X160943700Y-123806300D01*
X149500000Y-122500000D02*
X150806300Y-123806300D01*
X160943700Y-123806300D02*
X164500000Y-120250000D01*
X186800000Y-93500000D02*
X186960000Y-93660000D01*
X185500000Y-93500000D02*
X186800000Y-93500000D01*
X173250000Y-119500000D02*
X173250000Y-115000000D01*
X162800000Y-129950000D02*
X173250000Y-119500000D01*
X183065000Y-105185000D02*
X188325000Y-105185000D01*
X140375000Y-123875000D02*
X140375000Y-126864950D01*
X188325000Y-105185000D02*
X189500000Y-106360000D01*
X173250000Y-115000000D02*
X183065000Y-105185000D01*
X143460050Y-129950000D02*
X162800000Y-129950000D01*
X140375000Y-126864950D02*
X143460050Y-129950000D01*
X143710050Y-129450000D02*
X162300000Y-129450000D01*
X172000000Y-115250000D02*
X183750000Y-103500000D01*
X162300000Y-129450000D02*
X172000000Y-119750000D01*
X183750000Y-103500000D02*
X186640000Y-103500000D01*
X186640000Y-103500000D02*
X186960000Y-103820000D01*
X141250000Y-126989950D02*
X143710050Y-129450000D01*
X172000000Y-119750000D02*
X172000000Y-115250000D01*
X141250000Y-126750000D02*
X141250000Y-126989950D01*
X183750000Y-102500000D02*
X188180000Y-102500000D01*
X171250000Y-115000000D02*
X183750000Y-102500000D01*
X142250000Y-127000000D02*
X144200000Y-128950000D01*
X171250000Y-119750000D02*
X171250000Y-115000000D01*
X188180000Y-102500000D02*
X189500000Y-103820000D01*
X144200000Y-128950000D02*
X162050000Y-128950000D01*
X162050000Y-128950000D02*
X171250000Y-119750000D01*
X148750000Y-121000000D02*
X148983700Y-120766300D01*
X160733700Y-120766300D02*
X162750000Y-118750000D01*
X148983700Y-120766300D02*
X160733700Y-120766300D01*
X185880000Y-91120000D02*
X186960000Y-91120000D01*
X162750000Y-118750000D02*
X162750000Y-114250000D01*
X162750000Y-114250000D02*
X185880000Y-91120000D01*
X166250000Y-114457106D02*
X184507106Y-96200000D01*
X166250000Y-120000000D02*
X166250000Y-114457106D01*
X145556300Y-124806300D02*
X161443700Y-124806300D01*
X144500000Y-123750000D02*
X145556300Y-124806300D01*
X184507106Y-96200000D02*
X186960000Y-96200000D01*
X161443700Y-124806300D02*
X166250000Y-120000000D01*
X145550000Y-103950000D02*
X145550000Y-99550000D01*
X186800000Y-73500000D02*
X186960000Y-73340000D01*
X144250000Y-105250000D02*
X145550000Y-103950000D01*
X156000000Y-73500000D02*
X186800000Y-73500000D01*
X145550000Y-99550000D02*
X145500000Y-99500000D01*
X145500000Y-99500000D02*
X145500000Y-84000000D01*
X145500000Y-84000000D02*
X156000000Y-73500000D01*
X188750000Y-67500000D02*
X188750000Y-67510000D01*
X142000000Y-78500000D02*
X153415000Y-67085000D01*
X188750000Y-67510000D02*
X189500000Y-68260000D01*
X142000000Y-101250000D02*
X142000000Y-78500000D01*
X188335000Y-67085000D02*
X188750000Y-67500000D01*
X153415000Y-67085000D02*
X188335000Y-67085000D01*
X144700000Y-128450000D02*
X161464213Y-128450000D01*
X183970000Y-101280000D02*
X186960000Y-101280000D01*
X170500000Y-114750000D02*
X183970000Y-101280000D01*
X161464213Y-128450000D02*
X170500000Y-119414213D01*
X143250000Y-127000000D02*
X144700000Y-128450000D01*
X170500000Y-119414213D02*
X170500000Y-114750000D01*
X183849212Y-97565000D02*
X188815000Y-97565000D01*
X144956300Y-125306300D02*
X161943700Y-125306300D01*
X143450000Y-123800000D02*
X144956300Y-125306300D01*
X188815000Y-97565000D02*
X189500000Y-98250000D01*
X189500000Y-98250000D02*
X189500000Y-98740000D01*
X167000000Y-114414212D02*
X183849212Y-97565000D01*
X161943700Y-125306300D02*
X167000000Y-120250000D01*
X167000000Y-120250000D02*
X167000000Y-114414212D01*
X144750000Y-99890956D02*
X144750000Y-83000000D01*
X144804522Y-99945478D02*
X144750000Y-99890956D01*
X144750000Y-83000000D02*
X155585000Y-72165000D01*
X189500000Y-72750000D02*
X189500000Y-73340000D01*
X155585000Y-72165000D02*
X188915000Y-72165000D01*
X188915000Y-72165000D02*
X189500000Y-72750000D01*
X159056300Y-123306300D02*
X160693700Y-123306300D01*
X145250000Y-121850000D02*
X145300000Y-121800000D01*
X163500000Y-114500000D02*
X185515000Y-92485000D01*
X160693700Y-123306300D02*
X163500000Y-120500000D01*
X163500000Y-120500000D02*
X163500000Y-114500000D01*
X185515000Y-92485000D02*
X185985000Y-92485000D01*
X188325000Y-92485000D02*
X189500000Y-93660000D01*
X185985000Y-92485000D02*
X188325000Y-92485000D01*
X145300000Y-121800000D02*
X157550000Y-121800000D01*
X157550000Y-121800000D02*
X159056300Y-123306300D01*
D26*
X93500000Y-109250000D02*
X93500000Y-110500000D01*
D24*
X189500000Y-108250000D02*
X189500000Y-108900000D01*
X182525000Y-107725000D02*
X188975000Y-107725000D01*
X174750000Y-115500000D02*
X182525000Y-107725000D01*
X174750000Y-119457107D02*
X174750000Y-115500000D01*
X163207107Y-131000000D02*
X174750000Y-119457107D01*
X188975000Y-107725000D02*
X189500000Y-108250000D01*
X142250000Y-131000000D02*
X163207107Y-131000000D01*
X139500000Y-128250000D02*
X142250000Y-131000000D01*
X105290000Y-76290000D02*
X101500000Y-76290000D01*
X126000000Y-105250000D02*
X126000000Y-97000000D01*
X126000000Y-97000000D02*
X105290000Y-76290000D01*
X127000000Y-106250000D02*
X126000000Y-105250000D01*
X98960000Y-93540000D02*
X98960000Y-94070000D01*
X108250000Y-106707106D02*
X108250000Y-98750000D01*
X128000000Y-121250000D02*
X122792894Y-121250000D01*
X99750000Y-92750000D02*
X98960000Y-93540000D01*
X108250000Y-98750000D02*
X102250000Y-92750000D01*
X122792894Y-121250000D02*
X108250000Y-106707106D01*
X102250000Y-92750000D02*
X99750000Y-92750000D01*
M02*
