M48
; DRILL file {KiCad 8.0.8} date 2025-03-22T16:06:51-0500
; FORMAT={-:-/ absolute / metric / decimal}
; #@! TF.CreationDate,2025-03-22T16:06:51-05:00
; #@! TF.GenerationSoftware,Kicad,Pcbnew,8.0.8
; #@! TF.FileFunction,Plated,1,4,PTH
FMAT,2
METRIC
; #@! TA.AperFunction,Plated,PTH,ViaDrill
T1C0.300
; #@! TA.AperFunction,Plated,PTH,ViaDrill
T2C0.400
; #@! TA.AperFunction,Plated,PTH,ComponentDrill
T3C0.550
; #@! TA.AperFunction,Plated,PTH,ComponentDrill
T4C0.660
; #@! TA.AperFunction,Plated,PTH,ComponentDrill
T5C0.850
; #@! TA.AperFunction,Plated,PTH,ComponentDrill
T6C1.020
; #@! TA.AperFunction,Plated,PTH,ComponentDrill
T7C1.100
; #@! TA.AperFunction,Plated,PTH,ComponentDrill
T8C1.245
; #@! TA.AperFunction,Plated,PTH,ComponentDrill
T9C1.270
%
G90
G05
T1
X85.0Y-67.5
X85.0Y-70.0
X85.0Y-72.5
X85.0Y-75.0
X85.0Y-77.5
X85.0Y-80.0
X85.0Y-82.5
X85.0Y-85.0
X85.0Y-87.5
X85.0Y-90.0
X85.0Y-92.5
X85.0Y-95.0
X85.0Y-97.5
X85.0Y-100.0
X85.0Y-102.5
X85.0Y-105.0
X85.0Y-107.5
X85.0Y-110.0
X85.0Y-112.5
X85.0Y-115.0
X85.0Y-117.5
X85.0Y-120.0
X85.0Y-122.5
X85.0Y-125.0
X85.0Y-127.5
X85.0Y-130.0
X85.0Y-132.5
X85.0Y-135.0
X85.0Y-137.5
X85.0Y-140.0
X87.491Y-139.862
X87.5Y-67.5
X87.5Y-70.0
X87.5Y-72.5
X87.5Y-75.0
X87.5Y-77.5
X87.5Y-80.0
X87.5Y-82.5
X87.5Y-85.0
X87.5Y-87.5
X87.5Y-90.0
X87.5Y-92.5
X87.5Y-95.0
X87.5Y-97.5
X87.5Y-100.0
X87.5Y-102.5
X87.5Y-105.0
X87.5Y-107.5
X87.5Y-110.0
X87.5Y-112.5
X87.5Y-115.0
X87.5Y-117.5
X87.5Y-120.0
X87.5Y-122.5
X87.5Y-125.0
X87.5Y-127.5
X87.5Y-130.0
X87.5Y-132.5
X87.5Y-135.0
X87.5Y-137.5
X89.982Y-64.984
X90.0Y-67.5
X90.0Y-70.0
X90.0Y-72.5
X90.0Y-75.0
X90.0Y-77.5
X90.0Y-80.0
X90.0Y-82.5
X90.0Y-85.0
X90.0Y-87.5
X90.0Y-90.0
X90.0Y-92.5
X90.0Y-95.0
X90.0Y-97.5
X90.0Y-100.0
X90.0Y-102.5
X90.0Y-105.0
X90.0Y-107.5
X90.0Y-110.0
X90.0Y-112.5
X90.0Y-115.0
X90.0Y-117.5
X90.0Y-120.0
X90.0Y-122.5
X90.0Y-125.0
X90.0Y-127.5
X90.0Y-130.0
X90.0Y-132.5
X90.0Y-135.0
X90.0Y-137.5
X90.0Y-140.0
X92.5Y-60.0
X92.5Y-117.5
X92.5Y-120.0
X92.5Y-122.5
X92.5Y-125.0
X92.5Y-127.5
X92.5Y-130.0
X92.5Y-132.5
X92.5Y-135.0
X92.5Y-137.5
X92.5Y-140.0
X92.5Y-142.5
X92.5Y-145.0
X92.5Y-147.5
X92.674Y-115.235
X93.5Y-64.5
X93.5Y-69.75
X93.5Y-74.75
X93.5Y-79.75
X93.5Y-84.75
X93.5Y-90.0
X93.5Y-95.0
X93.5Y-100.25
X93.5Y-105.5
X93.5Y-110.5
X94.5Y-64.5
X94.5Y-69.75
X94.5Y-74.75
X94.5Y-79.75
X94.5Y-84.75
X94.5Y-90.0
X94.5Y-95.0
X94.5Y-100.25
X94.5Y-105.5
X94.5Y-110.5
X95.0Y-120.0
X95.0Y-122.5
X95.0Y-125.0
X95.0Y-127.5
X95.0Y-130.0
X95.0Y-132.5
X95.0Y-135.0
X95.0Y-137.5
X95.0Y-140.0
X95.0Y-142.5
X95.0Y-145.0
X95.0Y-147.5
X97.482Y-60.008
X97.5Y-115.0
X97.5Y-120.0
X97.5Y-122.5
X97.5Y-125.0
X97.5Y-127.5
X97.5Y-130.0
X97.5Y-132.5
X97.5Y-135.0
X97.5Y-137.5
X97.5Y-140.0
X97.5Y-142.5
X97.5Y-145.0
X97.5Y-147.5
X100.0Y-115.0
X100.0Y-120.0
X100.0Y-122.5
X100.0Y-125.0
X100.0Y-127.5
X100.0Y-130.0
X100.0Y-132.5
X100.0Y-135.0
X100.0Y-137.5
X100.0Y-140.0
X100.0Y-142.5
X100.0Y-145.0
X100.0Y-147.5
X100.089Y-60.029
X102.5Y-60.0
X102.5Y-115.0
X102.5Y-117.5
X102.5Y-120.0
X102.5Y-122.5
X102.5Y-125.0
X102.5Y-127.5
X102.5Y-130.0
X102.5Y-132.5
X102.5Y-135.0
X102.5Y-137.5
X102.5Y-140.0
X102.5Y-142.5
X102.5Y-145.0
X102.5Y-147.5
X105.0Y-115.0
X105.0Y-120.0
X105.0Y-122.5
X105.0Y-125.0
X105.0Y-127.5
X105.0Y-130.0
X105.0Y-132.5
X105.0Y-135.0
X105.0Y-137.5
X105.0Y-140.0
X105.0Y-142.5
X105.0Y-145.0
X105.0Y-147.5
X105.013Y-117.487
X107.477Y-117.51
X107.5Y-60.0
X107.5Y-120.0
X107.5Y-122.5
X107.5Y-125.0
X107.5Y-130.0
X107.5Y-132.5
X107.5Y-135.0
X107.5Y-137.5
X107.5Y-140.0
X107.5Y-142.5
X107.5Y-145.0
X107.5Y-147.5
X107.538Y-127.457
X110.0Y-60.0
X110.0Y-122.5
X110.0Y-125.0
X110.0Y-127.5
X110.019Y-119.962
X111.75Y-136.25
X112.447Y-122.284
X112.5Y-60.0
X112.5Y-125.0
X112.5Y-127.5
X112.5Y-137.5
X114.896Y-124.896
X115.0Y-60.0
X115.0Y-72.5
X115.0Y-137.5
X117.25Y-116.75
X117.25Y-117.75
X117.5Y-60.0
X117.5Y-72.5
X117.5Y-75.0
X117.5Y-136.25
X119.25Y-119.0
X120.0Y-60.0
X120.0Y-67.5
X120.0Y-75.0
X120.0Y-77.5
X120.0Y-137.5
X120.55Y-95.212
X121.0Y-121.0
X121.25Y-108.25
X121.25Y-112.0
X122.0Y-116.5
X122.476Y-80.031
X122.5Y-60.0
X122.5Y-77.5
X122.546Y-69.966
X123.25Y-136.25
X123.75Y-115.25
X124.0Y-103.25
X125.0Y-67.5
X125.0Y-72.5
X125.0Y-80.0
X125.0Y-88.5
X125.0Y-137.5
X125.197Y-59.966
X126.25Y-127.25
X127.0Y-106.25
X127.0Y-110.5
X127.037Y-105.126
X127.25Y-111.75
X127.25Y-118.75
X127.25Y-120.5
X127.437Y-69.966
X127.5Y-60.0
X127.5Y-67.5
X127.5Y-88.5
X127.5Y-108.0
X127.5Y-113.0
X127.508Y-74.998
X127.75Y-106.75
X127.75Y-109.25
X127.75Y-116.972
X128.0Y-110.5
X128.0Y-114.25
X128.0Y-121.25
X128.25Y-111.75
X128.25Y-118.75
X128.25Y-119.75
X128.5Y-106.25
X128.5Y-108.0
X128.5Y-113.0
X128.75Y-109.25
X128.75Y-115.5
X128.75Y-116.5
X129.0Y-114.25
X129.0Y-120.75
X129.0Y-136.25
X129.25Y-105.75
X129.25Y-106.75
X129.25Y-119.75
X129.5Y-102.5
X129.75Y-115.25
X129.75Y-121.75
X129.819Y-110.088
X129.971Y-145.351
X130.0Y-60.0
X130.0Y-70.0
X130.0Y-72.5
X130.0Y-77.5
X130.0Y-112.5
X130.0Y-117.5
X130.0Y-137.5
X130.0Y-140.0
X130.0Y-142.5
X130.0Y-147.5
X130.174Y-105.751
X130.25Y-88.5
X130.25Y-106.75
X130.25Y-121.0
X131.074Y-105.743
X131.25Y-106.75
X131.5Y-122.25
X131.75Y-121.25
X131.974Y-105.778
X132.25Y-106.75
X132.469Y-75.069
X132.5Y-72.5
X132.5Y-112.5
X132.5Y-115.0
X132.5Y-117.5
X132.5Y-120.0
X132.516Y-110.017
X132.75Y-88.5
X132.97Y-105.785
X133.25Y-106.75
X133.25Y-122.75
X133.5Y-121.75
X133.75Y-105.25
X134.25Y-101.0
X134.25Y-128.25
X134.75Y-122.25
X134.75Y-123.25
X134.909Y-117.477
X135.0Y-112.5
X135.0Y-115.0
X135.0Y-120.0
X135.003Y-75.034
X135.003Y-109.994
X135.75Y-105.25
X136.0Y-106.25
X136.0Y-123.5
X136.25Y-122.5
X136.5Y-128.25
X137.0Y-105.25
X137.0Y-106.25
X137.0Y-123.75
X137.25Y-122.75
X137.466Y-112.481
X137.495Y-109.995
X137.5Y-115.0
X137.5Y-117.5
X137.5Y-120.0
X137.625Y-128.875
X137.95Y-105.45
X138.0Y-123.75
X138.25Y-122.25
X138.5Y-106.25
X138.75Y-123.0
X139.0Y-105.25
X139.45Y-123.75
X139.5Y-106.0
X139.5Y-128.25
X140.0Y-60.0
X140.0Y-105.25
X140.0Y-110.0
X140.0Y-112.5
X140.0Y-115.0
X140.0Y-117.5
X140.025Y-99.5
X140.07Y-119.988
X140.25Y-122.75
X140.375Y-123.875
X140.5Y-106.0
X140.75Y-102.25
X141.25Y-105.25
X141.25Y-126.75
X141.45Y-123.8
X141.5Y-122.75
X141.75Y-106.0
X142.0Y-101.25
X142.25Y-105.25
X142.25Y-127.0
X142.45Y-123.8
X142.5Y-60.0
X142.5Y-110.0
X142.5Y-112.5
X142.5Y-115.0
X142.5Y-117.5
X142.5Y-120.0
X142.5Y-122.75
X142.965Y-106.104
X143.25Y-105.25
X143.25Y-127.0
X143.375Y-100.625
X143.45Y-123.8
X143.5Y-122.75
X143.75Y-116.5
X143.75Y-117.5
X143.75Y-119.0
X144.0Y-106.25
X144.0Y-109.5
X144.0Y-110.5
X144.0Y-111.5
X144.0Y-112.5
X144.0Y-113.5
X144.0Y-114.5
X144.0Y-115.5
X144.25Y-105.25
X144.25Y-121.75
X144.5Y-108.25
X144.5Y-122.75
X144.5Y-123.75
X144.75Y-116.5
X144.75Y-117.5
X144.75Y-119.0
X144.805Y-99.945
X145.0Y-60.0
X145.0Y-109.5
X145.0Y-110.5
X145.0Y-111.5
X145.0Y-112.5
X145.0Y-113.5
X145.0Y-114.5
X145.0Y-115.5
X145.25Y-121.85
X145.5Y-107.0
X145.5Y-108.328
X146.25Y-94.25
X146.25Y-99.5
X147.0Y-94.75
X147.425Y-127.175
X147.5Y-60.0
X147.75Y-101.5
X148.25Y-124.0
X148.275Y-126.68
X148.75Y-119.75
X148.75Y-121.0
X149.5Y-122.5
X149.75Y-110.25
X149.75Y-113.25
X149.825Y-105.425
X150.0Y-60.0
X151.5Y-97.0
X151.8Y-106.875
X152.5Y-60.0
X152.5Y-102.5
X152.5Y-142.5
X152.5Y-147.5
X153.0Y-89.25
X153.75Y-90.25
X155.0Y-60.0
X155.0Y-77.5
X155.0Y-80.0
X155.0Y-100.0
X155.0Y-102.5
X155.0Y-142.5
X155.0Y-145.0
X155.0Y-147.5
X157.48Y-100.037
X157.5Y-60.0
X157.5Y-75.0
X157.5Y-77.5
X157.5Y-80.0
X157.5Y-102.5
X157.5Y-142.5
X157.5Y-145.0
X157.5Y-147.5
X159.75Y-92.0
X159.75Y-96.25
X159.75Y-98.25
X159.75Y-100.5
X160.0Y-60.0
X160.0Y-75.0
X160.0Y-77.5
X160.0Y-80.0
X160.0Y-102.5
X160.0Y-142.5
X160.0Y-145.0
X160.0Y-147.5
X162.5Y-60.0
X162.5Y-100.0
X162.5Y-135.0
X162.5Y-137.5
X162.5Y-140.0
X162.5Y-142.5
X162.5Y-145.0
X162.5Y-147.5
X164.916Y-80.091
X165.0Y-75.0
X165.0Y-77.5
X165.0Y-82.5
X165.0Y-85.0
X165.0Y-135.0
X165.0Y-137.5
X165.0Y-140.0
X165.0Y-142.5
X165.0Y-145.0
X165.0Y-147.5
X165.059Y-60.0
X166.5Y-100.98
X167.5Y-60.0
X167.5Y-75.0
X167.5Y-77.5
X167.5Y-80.0
X167.5Y-82.5
X167.5Y-132.5
X167.5Y-135.0
X167.5Y-137.5
X167.5Y-140.0
X167.5Y-142.5
X167.5Y-145.0
X167.5Y-147.5
X170.0Y-60.0
X170.0Y-77.5
X170.0Y-85.0
X170.0Y-130.0
X170.0Y-132.5
X170.0Y-135.0
X170.0Y-137.5
X170.0Y-140.0
X170.0Y-142.5
X170.0Y-145.0
X170.0Y-147.5
X170.007Y-79.997
X170.031Y-74.977
X172.5Y-60.0
X172.5Y-75.0
X172.5Y-77.5
X172.5Y-82.5
X172.5Y-130.0
X172.5Y-132.5
X172.5Y-135.0
X172.5Y-137.5
X172.5Y-140.0
X172.5Y-142.5
X172.5Y-145.0
X172.5Y-147.5
X174.988Y-129.939
X175.0Y-60.0
X175.0Y-75.0
X175.0Y-80.0
X175.0Y-132.5
X175.0Y-135.0
X175.0Y-137.5
X175.0Y-140.0
X175.0Y-142.5
X175.0Y-145.0
X175.0Y-147.5
X177.5Y-60.0
X177.5Y-95.0
X177.5Y-122.5
X177.5Y-130.0
X177.5Y-132.5
X177.5Y-135.0
X177.5Y-137.5
X177.5Y-140.0
X177.5Y-142.5
X177.5Y-145.0
X177.5Y-147.5
X180.0Y-60.0
X180.0Y-92.5
X180.0Y-112.5
X180.0Y-120.0
X180.0Y-125.0
X180.0Y-130.0
X180.0Y-132.5
X180.0Y-135.0
X180.0Y-137.5
X180.0Y-140.0
X180.0Y-142.5
X180.0Y-145.0
X180.0Y-147.5
X182.5Y-60.0
X182.5Y-125.0
X182.5Y-130.0
X182.5Y-132.5
X182.5Y-135.0
X182.5Y-137.5
X182.5Y-140.0
X182.5Y-142.5
X182.5Y-145.0
X182.5Y-147.5
X182.514Y-89.916
X184.936Y-119.98
X185.0Y-60.0
X185.0Y-115.0
X185.0Y-125.0
X185.0Y-130.0
X185.0Y-132.5
X185.0Y-135.0
X185.0Y-137.5
X185.0Y-140.0
X185.0Y-142.5
X185.0Y-145.0
X185.0Y-147.5
X187.5Y-117.5
X187.5Y-120.0
X187.5Y-122.5
X187.5Y-130.0
X187.5Y-132.5
X187.5Y-135.0
X187.5Y-137.5
X187.5Y-140.0
X187.5Y-142.5
X187.5Y-145.0
X187.5Y-147.5
X187.502Y-59.984
X187.57Y-114.99
X190.0Y-60.0
X190.0Y-115.0
X190.0Y-117.5
X190.0Y-120.0
X190.0Y-122.5
X190.0Y-125.0
X190.0Y-132.5
X190.0Y-135.0
X190.0Y-137.5
X190.0Y-140.0
X190.0Y-142.5
X190.0Y-145.0
X190.0Y-147.5
X192.5Y-115.0
X192.5Y-117.5
X192.5Y-120.0
X192.5Y-122.5
X192.5Y-125.0
X192.5Y-132.5
X192.5Y-135.0
X192.5Y-137.5
X192.5Y-140.0
X192.5Y-142.5
X192.5Y-145.0
X192.5Y-147.5
X193.75Y-64.25
X193.75Y-69.5
X193.75Y-74.5
X193.75Y-79.5
X193.75Y-84.5
X193.75Y-89.75
X193.75Y-92.75
X193.75Y-95.75
X193.75Y-98.5
X193.75Y-103.25
X193.75Y-107.75
X193.75Y-110.75
X194.75Y-64.25
X194.75Y-69.5
X194.75Y-74.5
X194.75Y-79.5
X194.75Y-84.5
X194.75Y-89.75
X194.75Y-92.75
X194.75Y-95.75
X194.75Y-98.5
X194.75Y-103.25
X194.75Y-107.75
X194.75Y-110.75
X194.894Y-142.344
X195.0Y-60.0
X195.0Y-115.0
X195.0Y-117.5
X195.0Y-120.0
X195.0Y-122.5
X195.0Y-135.0
X195.0Y-137.5
X195.0Y-140.0
X195.0Y-145.0
X195.0Y-147.5
X195.8Y-132.755
X196.05Y-125.425
X197.075Y-128.1
X197.5Y-60.0
X197.5Y-62.5
X197.5Y-65.0
X197.5Y-67.5
X197.5Y-70.0
X197.5Y-72.5
X197.5Y-75.0
X197.5Y-77.5
X197.5Y-80.0
X197.5Y-82.5
X197.5Y-85.0
X197.5Y-87.5
X197.5Y-90.0
X197.5Y-92.5
X197.5Y-95.0
X197.5Y-97.5
X197.5Y-100.0
X197.5Y-102.5
X197.5Y-105.0
X197.5Y-107.5
X197.5Y-110.0
X197.5Y-112.5
X197.5Y-115.0
X197.5Y-117.5
X197.5Y-120.0
X197.5Y-135.0
X197.5Y-137.5
X197.5Y-140.0
X197.5Y-142.5
X197.5Y-145.0
X197.5Y-147.5
X197.557Y-122.513
X197.805Y-131.755
X198.3Y-124.755
X200.0Y-67.5
X200.0Y-70.0
X200.0Y-72.5
X200.0Y-75.0
X200.0Y-77.5
X200.0Y-80.0
X200.0Y-82.5
X200.0Y-85.0
X200.0Y-87.5
X200.0Y-90.0
X200.0Y-92.5
X200.0Y-95.0
X200.0Y-97.5
X200.0Y-100.0
X200.0Y-102.5
X200.0Y-105.0
X200.0Y-107.5
X200.0Y-110.0
X200.0Y-112.5
X200.0Y-115.0
X200.0Y-117.5
X200.0Y-120.0
X200.0Y-132.5
X200.0Y-135.0
X200.0Y-137.5
X200.0Y-140.0
X202.5Y-67.5
X202.5Y-70.0
X202.5Y-72.5
X202.5Y-75.0
X202.5Y-77.5
X202.5Y-80.0
X202.5Y-82.5
X202.5Y-85.0
X202.5Y-87.5
X202.5Y-90.0
X202.5Y-92.5
X202.5Y-95.0
X202.5Y-97.5
X202.5Y-100.0
X202.5Y-102.5
X202.5Y-105.0
X202.5Y-107.5
X202.5Y-110.0
X202.5Y-112.5
X202.5Y-115.0
X202.5Y-117.5
X202.5Y-135.0
X202.5Y-137.5
X202.5Y-140.0
X202.554Y-132.484
X205.0Y-132.5
X205.0Y-135.0
X205.0Y-137.5
X205.0Y-140.0
T2
X113.75Y-130.5
X116.0Y-98.25
X116.25Y-125.5
X119.5Y-130.25
X120.25Y-107.5
X124.5Y-129.0
X128.25Y-128.75
X148.5Y-83.25
X151.5Y-83.25
X174.5Y-127.25
X183.25Y-118.5
T4
X163.98Y-93.46
X163.98Y-94.73
X163.98Y-96.0
X163.98Y-97.27
X163.98Y-98.54
X165.25Y-93.46
X165.25Y-94.73
X165.25Y-96.0
X165.25Y-97.27
X165.25Y-98.54
T6
X115.91Y-141.484
X115.91Y-144.024
X118.45Y-141.484
X118.45Y-144.024
X120.99Y-141.484
X120.99Y-144.024
X123.53Y-141.484
X123.53Y-144.024
X132.48Y-61.0
X135.02Y-61.0
T7
X98.96Y-63.59
X98.96Y-66.13
X98.96Y-68.67
X98.96Y-71.21
X98.96Y-73.75
X98.96Y-76.29
X98.96Y-78.83
X98.96Y-81.37
X98.96Y-83.91
X98.96Y-86.45
X98.96Y-88.99
X98.96Y-91.53
X98.96Y-94.07
X98.96Y-96.61
X98.96Y-99.15
X98.96Y-101.69
X98.96Y-104.23
X98.96Y-106.77
X98.96Y-109.31
X98.96Y-111.85
X101.5Y-63.59
X101.5Y-66.13
X101.5Y-68.67
X101.5Y-71.21
X101.5Y-73.75
X101.5Y-76.29
X101.5Y-78.83
X101.5Y-81.37
X101.5Y-83.91
X101.5Y-86.45
X101.5Y-88.99
X101.5Y-91.53
X101.5Y-94.07
X101.5Y-96.61
X101.5Y-99.15
X101.5Y-101.69
X101.5Y-104.23
X101.5Y-106.77
X101.5Y-109.31
X101.5Y-111.85
X186.96Y-63.18
X186.96Y-65.72
X186.96Y-68.26
X186.96Y-70.8
X186.96Y-73.34
X186.96Y-75.88
X186.96Y-78.42
X186.96Y-80.96
X186.96Y-83.5
X186.96Y-86.04
X186.96Y-88.58
X186.96Y-91.12
X186.96Y-93.66
X186.96Y-96.2
X186.96Y-98.74
X186.96Y-101.28
X186.96Y-103.82
X186.96Y-106.36
X186.96Y-108.9
X186.96Y-111.44
X189.5Y-63.18
X189.5Y-65.72
X189.5Y-68.26
X189.5Y-70.8
X189.5Y-73.34
X189.5Y-75.88
X189.5Y-78.42
X189.5Y-80.96
X189.5Y-83.5
X189.5Y-86.04
X189.5Y-88.58
X189.5Y-91.12
X189.5Y-93.66
X189.5Y-96.2
X189.5Y-98.74
X189.5Y-101.28
X189.5Y-103.82
X189.5Y-106.36
X189.5Y-108.9
X189.5Y-111.44
T8
X126.17Y-84.25
X128.71Y-84.25
X131.25Y-84.25
X133.79Y-84.25
X135.177Y-137.484
X135.177Y-144.234
X137.717Y-137.484
X137.717Y-144.234
X140.257Y-137.484
X140.257Y-144.234
X144.67Y-137.484
X144.67Y-144.25
X147.21Y-137.484
X147.21Y-144.25
X149.75Y-137.484
X149.75Y-144.25
X154.177Y-137.469
X156.717Y-137.469
X159.257Y-137.469
X160.0Y-117.0
X160.0Y-119.54
X160.0Y-122.08
T3
X203.675Y-122.63G85X204.325Y-122.63
G05
X203.675Y-130.38G85X204.325Y-130.38
G05
T5
X199.925Y-122.78G85X200.475Y-122.78
G05
X199.925Y-130.23G85X200.475Y-130.23
G05
T9
X148.02Y-86.755G85X151.98Y-86.755
G05
X155.92Y-86.755G85X159.88Y-86.755
G05
M30
